<svg xmlns="http://www.w3.org/2000/svg" xmlns:xlink="http://www.w3.org/1999/xlink" viewBox="0 0 1191 376"><defs><style>.a,.ag,.ar,.as,.b{fill:none;}.b,.c{clip-rule:evenodd;}.aw,.c{fill:#0179aa;}.d{isolation:isolate;}.e{clip-path:url(#a);}.al,.f{fill:#684994;}.g{fill:#f0d0bf;}.h{fill:#3bcfe3;}.i{opacity:0.1;}.j{fill:#e2bfaf;}.k{fill:#fff;}.l{fill:#230b48;}.m{fill:#160e05;}.n,.w,.x{fill:#a67d52;}.ae,.n{opacity:0.17;}.ar,.n,.t,.u,.w,.x{mix-blend-mode:multiply;}.o{fill:#e5bcaa;}.p{fill:#f8d8c7;}.q{fill:#e2e2e2;}.r{fill:#eac5b5;}.s{fill:#e66b5b;}.aq,.t{fill:#342c38;}.ar,.t{opacity:0.39;}.u{opacity:0.19;}.v{fill:#311858;}.aj,.ak,.al,.am,.aw,.v{fill-rule:evenodd;}.w{opacity:0.11;}.x{opacity:0.25;}.y{clip-path:url(#b);}.z{fill:#22b6ce;}.aa{fill:#1ba0bf;}.ab{opacity:0.14;}.ac{fill:#200e44;}.ad{opacity:0.3;}.af{fill:#e6e6e6;}.ag{stroke:#3bcfe3;stroke-miterlimit:10;stroke-width:2.12px;}.ah{fill:#f06358;}.ai{opacity:0.87;}.aj{fill:#494949;}.ak{fill:#666;}.am,.an{fill:#5b3e87;}.ao{fill:#e2bdac;}.ap{fill:#e8e7e6;}.ar,.as{stroke:#342c38;stroke-linecap:round;stroke-linejoin:round;}.ar{stroke-width:3.16px;}.as{stroke-width:2.11px;}.at{clip-path:url(#c);}.au{clip-path:url(#d);}.av{clip-path:url(#e);}.ax{clip-path:url(#g);}</style><clipPath id="a"><rect class="a" width="1191" height="376"/></clipPath><clipPath id="b"><path class="a" d="M862.74,277.35c-3.87-11.44-12.47-14.9-32.5-21.63a10.41,10.41,0,0,1-2.86-2l-6.28-3.28-.47-.24c-7.09,4.45-15.66,3.65-23.19.31a5.7,5.7,0,0,0-5.75.57l-3.11,2.33a20.67,20.67,0,0,1-3.72,2.31c-20,6.73-28.62,10.19-32.5,21.63-1.67,4.93-8.41,28.64-11.15,55.8,6.71,1.53,13,4.31,19.63,6.9.7-15.21,7.39-34.94,8.55-41.26l.8,77.35h74.88l.64-77.35c1.16,6.32,9,29.51,13.64,44.89,6.67-2.59,14.12-6.18,20.84-7.71C877.44,308.81,864.41,282.28,862.74,277.35Z"/></clipPath><clipPath id="c"><path class="b" d="M153,348.4s-5.16,16.53.38,25.34c0,0,13.77-2.61,19.07-9.07s-1.3-8-1.3-8-.57-8.12-17.05-8.44"/></clipPath><clipPath id="d"><polygon class="a" points="40 610.52 288.76 570.12 275.65 193.26 26.89 233.65 40 610.52"/></clipPath><clipPath id="e"><path class="b" d="M191.23,342.19s10.12,14,7.66,24.16c0,0-13.88,1.88-21-2.57s-1.3-8-1.3-8-2-7.89,13.51-13.4"/></clipPath><clipPath id="g"><path class="c" d="M178.29,364.18l-6.38,1a.78.78,0,0,1-.89-.64L169.63,356a.78.78,0,0,1,.64-.89l6.38-1a.78.78,0,0,1,.89.64l1.39,8.56a.78.78,0,0,1-.64.89"/></clipPath></defs><title>our_team</title><g class="d"><g class="e"><rect class="f" x="646.33" y="179" width="80.44" height="105"/><path class="g" d="M698.51,260.3s13.07-10.47,34.08,3.72,58.19,28.29,58.19,28.29l-8,26.67-79.21-31.85Z"/><path class="g" d="M797.23,307.81l62.3-37.7-13.78-14.54-63.66,30.48C767.74,294.83,778.71,317.77,797.23,307.81Z"/><path class="g" d="M659.51,257.79s-20.7-7.39-38.79,10.36-41.8,37.19-41.8,37.19l22,18.78L652.11,283Z"/><polygon class="h" points="639.78 377 638.44 255.8 720.44 255.8 719.44 377 639.78 377"/><rect class="g" x="666.83" y="243.84" width="29.1" height="40.68"/><path class="g" d="M654.86,255.8H705.5a0,0,0,0,1,0,0v10.58a25.32,25.32,0,0,1-25.32,25.32h0a25.32,25.32,0,0,1-25.32-25.32V255.8a0,0,0,0,1,0,0Z"/><path class="h" d="M673.85,308.35c0,12.25-6.93,22.18-19.18,22.18a22.18,22.18,0,1,1,0-44.36C666.92,286.17,673.85,296.1,673.85,308.35Z"/><path class="h" d="M727.45,307.24a22.18,22.18,0,0,1-22.18,22.18c-12.25,0-19.18-9.93-19.18-22.18s6.93-22.18,19.18-22.18A22.18,22.18,0,0,1,727.45,307.24Z"/><path class="g" d="M583.51,320.81l-57.6-44.38,16.67-11.11L603.11,303C615.15,314.71,599.35,334.64,583.51,320.81Z"/><circle class="g" cx="526.11" cy="268.3" r="18"/><path class="i" d="M666.83,243.84V256H656.11s2.67,37,63.67,33.33c0,0,20-1,28-16.37l-5.94-3.22q-.6-.33-1.18-.69l-13-8.06s-5.87-2.87-7.12-2.87V255.8h-24.5V243.59Z"/><path class="g" d="M718.79,178.95l-1.68-6a36.32,36.32,0,0,0-35-26.48h0A36.32,36.32,0,0,0,647.47,172l-2.16,6.94s-7.53,56.81,31.62,72.35a13.88,13.88,0,0,0,10.24,0C726.31,235.76,718.79,178.95,718.79,178.95Z"/><ellipse class="g" cx="646.92" cy="208.4" rx="11.27" ry="14.29"/><path class="j" d="M719.27,194.72a101.19,101.19,0,0,0-.48-15.77l-1.68-6a36.32,36.32,0,0,0-35-26.48h0q-1.48,0-2.93.12a39.91,39.91,0,0,1,22.38,23.85l2.2,6.45s9.64,52.11-22,75.36a13.86,13.86,0,0,0,5.42-1c14.33-5.69,22.4-16.91,26.88-28.84a9,9,0,0,0,2,.23c6.23,0,11.27-6.4,11.27-14.29C727.3,201.94,723.91,196.48,719.27,194.72Z"/><path class="f" d="M647.58,170.65s13.53,15,44.53,13l-3.44-11.32s6.69,10.3,23.91,11.53a85.2,85.2,0,0,0,4.88,20.69s6.4-.25,5.41-10.09c0,0,8.36-7.13,1.23-29.52s-29.52-25.34-38.62-25.34c0,0-38.13-4.43-47.48,33,0,0-2.2,11.62,1.16,20.22a9.12,9.12,0,0,0,3,3.95h0s-.47,7.32,5.43,8.06C647.58,204.84,650.78,193.28,647.58,170.65Z"/><path class="k" d="M674.22,231.52c1.76,10.09,16.92,8,17.7,0Z"/><path class="l" d="M659.42,203.64a1.4,1.4,0,0,1-1.12-.55,1.31,1.31,0,0,1,.29-1.88c2.59-1.85,10.38-2.51,13.19.12a1.32,1.32,0,0,1,0,1.9,1.43,1.43,0,0,1-2,0c-1.71-1.6-7.91-1.09-9.59.12A1.44,1.44,0,0,1,659.42,203.64Z"/><path class="l" d="M696.61,203.49a1.41,1.41,0,0,1-1.16-.59,1.32,1.32,0,0,1,.38-1.87c2.75-1.78,9.67-2.69,13.82,0a1.32,1.32,0,0,1,.38,1.87,1.42,1.42,0,0,1-1.93.36c-3.14-2-8.82-1.22-10.7,0A1.43,1.43,0,0,1,696.61,203.49Z"/><path class="m" d="M706.59,212.93c0,2.89-.34,1.4-4.57,1.4s-4.57,1.49-4.57-1.4,2-5.24,4.57-5.24S706.59,210,706.59,212.93Z"/><path class="m" d="M669.62,212.93c0,2.89-.34,1.4-4.57,1.4s-4.57,1.49-4.57-1.4,2-5.24,4.57-5.24S669.62,210,669.62,212.93Z"/><path class="n" d="M685.47,210.63c.21-.1.35.09.44.44-2,.57-5.4,4.34-5.28,8.93.07,2.77,3.39,1.62,5.37,1.62a1.19,1.19,0,0,1-.22.39c-.87.75-6.64,2.07-6.7-1.68C679,214.26,685.37,210.67,685.47,210.63Z"/><path class="f" d="M637.67,173.33s-11,73.33-15,122L656.33,297,655,164Z"/><rect class="o" x="299.01" y="242.9" width="30.4" height="66.73"/><path class="h" d="M277.38,376.61c3.41-5.72,6.34-10.66,7.22-14.14,4.61-18.09-2.55-25.56-7.78-32.33-1-1.28-9.2-9.24-5.17-23.23,4.23,3.13-15.88,35.31-15.89,35.32-2.89-6.17-16.48-5.07-21.89-10.75,2.52-1.75,20-48,20.3-48.69,5.74-12.63,24.89-14.66,24.91-14.53,0-.27,19.75-4.65,19.75-4.65,1.6,13.4,15.41,39.24,15.41,39.24l-.71,72.83Z"/><path class="h" d="M349.65,376.61c-3.41-5.72-6.34-10.66-7.22-14.14-4.61-18.09,2.55-25.56,7.78-32.33,1-1.28,9.2-9.24,5.17-23.23,0,0,21.75,46.06,18.11,34.24,2.89-6.17,13.64-11.75,19-17.43-2.52-1.75-10.16-32.48-18.1-41.44-10.51-11.84-26.45-14.16-26.47-14,0-.27-18.74-4.65-18.74-4.65-1.6,13.4-15.71,38.26-15.71,38.26v74.45Z"/><path class="p" d="M313.36,344a12,12,0,0,1-.34,5.68c-1.95,6.36-9,8.46-15.32,6.51l-54.51-4.67c-8.5-2.58-11.72-12.24-9.78-18.6s9.34-11.75,16.86-9.23l54.14,11.82C308.89,336.92,312.58,339.75,313.36,344Z"/><rect class="q" x="269.73" y="290.07" width="125.11" height="86.55" rx="3.67" ry="3.67"/><circle class="k" cx="332.29" cy="335.81" r="10.9"/><path class="h" d="M268.57,196.87s-.12,14.87-12.82,19.1l-3-3.53s11.64-1.59,14.29-15.7Z"/><path class="h" d="M267.42,196.69s-4.17,11.42-15.11,11.2L251,204.35s9.4,2,15.3-8.18Z"/><path class="h" d="M362.45,192.81s.12,14.87,12.82,19.1l3-3.53s-11.64-1.59-14.29-15.7Z"/><path class="h" d="M363.6,192.64s4.17,11.42,15.11,11.2l1.34-3.54s-9.4,2-15.3-8.18Z"/><path class="p" d="M314.25,260c11.37,0,26.39-13.94,31.41-21.45,4.46-6.68,38.24-90.93-31.56-91.37-70.37-.45-35.43,82.84-30.83,89.63C288.34,244.3,302.88,260,314.25,260Z"/><path class="r" d="M314.1,147.19l-1.41,0c61.43,6.76,28.77,87.21,24.22,93.92-3.48,5.14-11.49,14.54-19.91,18.65,10.92-1.58,24-14.33,28.66-21.22,3.75-5.54,27.13-62-2.69-83.49C336.27,150.26,327,147.19,314.1,147.19Z"/><ellipse class="p" cx="272.57" cy="215.44" rx="7.51" ry="12.99" transform="translate(-53.69 96.02) rotate(-18.22)"/><ellipse class="r" cx="355.41" cy="214.94" rx="12.99" ry="7.51" transform="translate(40.12 485.33) rotate(-71.78)"/><ellipse class="s" cx="263.04" cy="178.97" rx="20.55" ry="19.15"/><ellipse class="s" cx="366.75" cy="173.37" rx="21.29" ry="19.84"/><path class="f" d="M366.75,153.53a21.94,21.94,0,0,0-15.61,6.38c-28.83-33.9-66.4-9.26-66.4-9.26a50.89,50.89,0,0,0-11.66,11.61,21.61,21.61,0,0,0-10-2.45c-11.35,0-20.55,8.58-20.55,19.15s9.2,19.15,20.55,19.15a21.88,21.88,0,0,0,5.78-.78,81.7,81.7,0,0,1,2.43,7.81c22.43-1.55,36.56-4.61,45.31-7.49l6.3-16-2.71,14.7a49.83,49.83,0,0,0,5.06-2.27l2.29-18,2.36,14.83a101.84,101.84,0,0,1,26.21,15.16,19.07,19.07,0,0,0,6.38-13.29,22.89,22.89,0,0,0,4.3.4c11.76,0,21.29-8.88,21.29-19.84S378.5,153.53,366.75,153.53Z"/><path class="t" d="M377.5,156.26c2.26,16.08-18.34,18.79-18.34,18.79a50.16,50.16,0,0,0-4.28-10.23,21.27,21.27,0,0,0-3.75-4.9,51.94,51.94,0,0,0-17.29-13.66c6.08,8.4,15.88,26.42,14.87,54a85.14,85.14,0,0,0,7.35,5.82,19.07,19.07,0,0,0,6.38-13.29,22.89,22.89,0,0,0,4.3.4c11.76,0,21.29-8.88,21.29-19.84A19.62,19.62,0,0,0,377.5,156.26Z"/><path class="h" d="M273.09,162.26s-7.24,17.52-4.26,35.07l-3.37.63s-5-15,4.52-37A19.84,19.84,0,0,1,273.09,162.26Z"/><path class="u" d="M246.33,190.08a21,21,0,0,0,16.72,8,21.89,21.89,0,0,0,5.78-.78,43.32,43.32,0,0,1-.66-7.62S257.23,193.92,246.33,190.08Z"/><path class="h" d="M351.14,159.91a12.79,12.79,0,0,1,1.64-1.52s12.9,8.92,13.07,34.83l-3.4-.41S362,171.93,351.14,159.91Z"/><path class="k" d="M304.66,242.1c1.76,11.08,16.92,8.81,17.7,0Z"/><path class="l" d="M289.86,211.48a1.36,1.36,0,0,1-1.12-.6,1.53,1.53,0,0,1,.29-2.06c2.59-2,10.38-2.76,13.19.13a1.54,1.54,0,0,1,0,2.09,1.34,1.34,0,0,1-2,0c-1.71-1.76-7.91-1.19-9.59.13A1.36,1.36,0,0,1,289.86,211.48Z"/><path class="l" d="M327,211.32a1.37,1.37,0,0,1-1.16-.65,1.53,1.53,0,0,1,.38-2.05c2.75-2,9.67-3,13.82,0a1.53,1.53,0,0,1,.38,2.05,1.35,1.35,0,0,1-1.93.4c-3.14-2.24-8.82-1.34-10.7,0A1.33,1.33,0,0,1,327,211.32Z"/><path class="m" d="M337,221.69c0,3.17-.34,1.54-4.57,1.54s-4.57,1.64-4.57-1.54,2-5.75,4.57-5.75S337,218.51,337,221.69Z"/><path class="m" d="M300.06,221.69c0,3.17-.34,1.54-4.57,1.54s-4.57,1.64-4.57-1.54,2-5.75,4.57-5.75S300.06,218.51,300.06,221.69Z"/><path class="r" d="M315.55,222.86c.21-.07.35.08.45.37a7.27,7.27,0,0,0-5,7c.15,2.23,3.42,1.41,5.4,1.47a.85.85,0,0,1-.21.31c-.84.58-6.57,1.46-6.72-1.56C309.2,225.58,315.45,222.89,315.55,222.86Z"/><path class="v" d="M86.88,185.35,53.3,198.67A36.54,36.54,0,0,0,32.81,246.1l.63,1.59a36.49,36.49,0,0,0,23.82,21.64c7.51,2.18,38.36,9.4,46.2,6.29l-7.32-13.48,18.31-7.26a36.53,36.53,0,0,0,20.49-47.44l-.63-1.59A36.53,36.53,0,0,0,86.88,185.35Z"/><path class="h" d="M92.61,248.19l-.06,0a1.17,1.17,0,0,1-.71.05c-.78-.19-19.13-4.62-27.84-11.08l0,0a13.51,13.51,0,0,1,15.18-22.3,13.51,13.51,0,0,1,26.4,5.56v0c-1.8,10.69-12,26.6-12.4,27.28a1.16,1.16,0,0,1-.55.45Z"/><path class="v" d="M929.67,108.84H965.8a36.54,36.54,0,0,1,36.53,36.54v1.71A36.49,36.49,0,0,1,988.16,176c-6.18,4.8-32.2,22.87-40.63,22.87l1.84-15.23h-19.7a36.53,36.53,0,0,1-36.53-36.54v-1.71A36.53,36.53,0,0,1,929.67,108.84Z"/><path class="h" d="M954.16,129.63a.61.61,0,0,0-.84,0L930.2,152.75a.6.6,0,0,0-.16.28l-3,12.9a.6.6,0,0,0,.58.73l.14,0,12.9-3a.61.61,0,0,0,.28-.16L964,140.34a.6.6,0,0,0,0-.84Z"/><path class="h" d="M967.34,126.31a8.49,8.49,0,0,0-5.85-2.64,4.94,4.94,0,0,0-3.6,1.4l-2.48,2.47a.6.6,0,0,0,0,.84l9.86,9.86a.6.6,0,0,0,.84,0l2.48-2.48c2.26-2.27,1.69-6.51-1.26-9.46Z"/><rect class="p" x="794.06" y="223.57" width="26.36" height="37.23"/><rect class="w" x="794.06" y="223.57" width="26.36" height="37.23"/><path class="p" d="M830.54,205c-1.28,7.27,3,13.33,9.63,14.63a11.86,11.86,0,0,0,14.27-9.91c1.28-7.27-3-14.23-9.64-15.53S831.81,197.69,830.54,205Z"/><path class="x" d="M830.54,205c-1.28,7.27,3,13.33,9.63,14.63a11.86,11.86,0,0,0,14.27-9.91c1.28-7.27-3-14.23-9.64-15.53S831.81,197.69,830.54,205Z"/><path class="p" d="M784.48,205c1.28,7.27-3,13.33-9.64,14.63a11.86,11.86,0,0,1-14.26-9.91c-1.28-7.27,3-14.23,9.63-15.53S783.2,197.69,784.48,205Z"/><path class="p" d="M840.45,156C834,147.22,824,141.47,813.28,141l-.55,0v-.42l-5.26.21-5.26-.21V141l-.55,0C791,141.47,781,147.22,774.51,156s-7.31,19.8-6.8,30.38c.38,8,1.8,20.88,2.2,28.87,6.47,24.22,22.58,28.35,37.57,28.35s31.64-4.14,37.57-28.35c.4-8,1.81-20.89,2.2-28.87C847.76,175.78,846.9,164.74,840.45,156Z"/><path class="w" d="M840.45,156a36.21,36.21,0,0,0-26-14.85,40.26,40.26,0,0,1,9,9.73c6.45,9.82,7.31,22.18,6.8,34-.39,8.95-1.8,23.39-2.2,32.34-3,13.69-8.72,21.64-15.57,26.17,13.54-1,27.31-6.62,32.6-28.18.4-8,1.81-20.89,2.2-28.87C847.76,175.78,846.9,164.74,840.45,156Z"/><path class="f" d="M769.62,195.94c.49-10.06.61-28.27,9.5-28.27,6.58,0,8.37,1.5,28.36,1.5,17.69,0,22.83-2,29.45-2,7.1,0,8.86,9.48,9,22.63,0,2.71.22,5.42.37,8.13.09,1.59.21,3.17.29,4.76,0,.64.2,2.37,1,2.21s1.05-3.67,1.15-4.42a124.19,124.19,0,0,0,.86-15.9c0-9.75,2.58-24.83-14.31-37.58-12.33-9.3-32-9.53-44.46-5.46-8.69,2.84-18.83,9.21-21.93,17.82-3.4,9.46-3.32,16.85-2.2,35.57.12,2,.36,4.06.64,6.08a39.53,39.53,0,0,0,.69,4c.71,2.86,1.7.82,1.67-1C769.68,201.36,769.49,198.67,769.62,195.94Z"/><path class="f" d="M849.89,137.36c.35,4-.73,6.68-3,9.86a17.56,17.56,0,0,0,1.29-13.68l-2.14-.69a44.64,44.64,0,0,0-33.81,2.5c-1.74.88-2.7,1.5-2.7,1.5,5.12-5,14.57-7.54,14.57-7.54-15.61-1.59-31.8,4.87-37,9.68-.61-2.73,4.48-7.67,8.47-8.83-20.64,2.06-26.53,23-23,30.71,0,0-3.42,2.21-2.83,2.41a8.25,8.25,0,0,0-1.79,3c-.32,1.94,2.47,9.68,2.47,9.68s4-5,7.33-5c5.32,0,30.09,5.71,30.09,5.71s24.77-5.71,30.09-5.71c3.32,0,7.34,5,7.34,5s2.79-7.74,2.47-9.68a8.21,8.21,0,0,0-1.79-3c1.41-2.14,3.41-4.93,4.34-8C852.17,148.85,852,141.39,849.89,137.36Z"/><g class="y"><rect class="z" x="732.47" y="248.24" width="151.42" height="15.18"/><rect class="aa" x="732.47" y="263.4" width="151.42" height="15.18"/><rect class="z" x="732.47" y="278.56" width="151.42" height="15.18"/><rect class="aa" x="732.47" y="293.72" width="151.42" height="15.18"/><rect class="z" x="732.47" y="308.87" width="151.42" height="15.18"/><rect class="aa" x="732.47" y="324.03" width="151.42" height="15.18"/><rect class="z" x="732.47" y="339.19" width="151.42" height="15.18"/><rect class="aa" x="732.47" y="354.34" width="151.42" height="15.18"/><rect class="z" x="732.47" y="369.5" width="151.42" height="15.18"/><rect class="h" x="671.84" y="308.87" width="151.42" height="15.18" transform="translate(431.09 1064.01) rotate(-90)"/><rect class="h" x="702.15" y="308.87" width="151.42" height="15.18" transform="translate(461.4 1094.32) rotate(-90)"/><rect class="h" x="732.47" y="308.87" width="151.42" height="15.18" transform="translate(491.72 1124.64) rotate(-90)"/><rect class="h" x="762.78" y="308.87" width="151.42" height="15.18" transform="translate(522.03 1154.95) rotate(-90)"/><rect class="h" x="793.1" y="308.87" width="151.42" height="15.18" transform="translate(552.34 1185.27) rotate(-90)"/></g><polygon class="ab" points="807.8 252.77 806.84 375.62 809.29 376.11 808.74 253.64 807.8 252.77"/><path class="p" d="M790.55,356.25c-2.12-2.35-8.7-.51-9.37-.39-.88.15-3.45-.91-3.45-.91-4.05-1.63-18.27-20.69-20.38-23.56-4.93,3.67-11.16,3.53-16.5,6.82,14.75,18.46,39.29,35.81,45,37.56,6.12.64,8.93.57,10.21-.8C801.52,369.22,791,357.52,790.55,356.25Z"/><path class="ac" d="M774,372.32l-1.63-.94a1.7,1.7,0,0,1-.72-1.9l4.06-16.06a1.44,1.44,0,0,1,1.83-1.1l.44.17a3.42,3.42,0,0,1,1.92,4.11l-3.64,14.59A1.59,1.59,0,0,1,774,372.32Z"/><path class="p" d="M787.21,355.87l12.43-1.36c3.64-.15,4.24,5.41,1.21,5.46,3,0,3.64,5.61.61,5.61,3,0,2.73,5.47-.3,5.47,3,0,1.82,5.13-1.21,5.13l-9.44,0Z"/><path class="p" d="M785.68,355.59s5.17-1.81,5.44-6.59q0-.21,0-.41a2.76,2.76,0,0,1,3.52-2.47h0c1.07.31,1.75,1.94,1.61,3.45-.25,2.73-.62,6.72-4.93,8.17Z"/><path class="k" d="M763.31,334.64a2.12,2.12,0,0,1-2,2.13L740,338.63c-1.83.15-3.4-.84-3.47-2.24L736,325.21c-.06-1.4,1.42-2.45,3.25-2.36L760.72,324a2.28,2.28,0,0,1,2.2,2.06Z"/><circle class="ad" cx="805.15" cy="370.64" r="1.21"/><circle class="ad" cx="805.15" cy="351.69" r="1.21"/><circle class="ad" cx="805.15" cy="332.74" r="1.21"/><circle class="ad" cx="805.15" cy="313.8" r="1.21"/><circle class="ad" cx="805.15" cy="294.85" r="1.21"/><circle class="ad" cx="805.15" cy="275.9" r="1.21"/><path class="ae" d="M830.24,255.72a18.79,18.79,0,0,1-3.77-2.61l-5.19-4.44-14.21,3.9-10.64-2.41a3.6,3.6,0,0,0-4.14.27l-3.71,3a16.54,16.54,0,0,1-2.88,2c2,11,24.38,19.38,50.72,19.38a106.85,106.85,0,0,0,23.9-2.59C855.62,264.64,846.87,261.31,830.24,255.72Z"/><polygon class="h" points="793.57 248.76 807.66 252.86 804.31 263.72 784.23 255.52 793.57 248.76"/><polygon class="h" points="821.29 248.67 806.95 252.74 811.02 263.56 830.62 255.47 821.29 248.67"/><path class="m" d="M784.54,189.67a1.68,1.68,0,0,1-.94-.27.81.81,0,0,1-.05-1.4c2.35-1.79,9.23-2.9,13.27-.88a.84.84,0,0,1,.35,1.38,1.72,1.72,0,0,1-1.91.25c-2.95-1.48-8.26-.5-9.73.61A1.66,1.66,0,0,1,784.54,189.67Z"/><path class="m" d="M833.73,189.75a1.66,1.66,0,0,1-1-.31c-2.1-1.6-7.11-1.55-10.11.09a1.74,1.74,0,0,1-1.92-.19.83.83,0,0,1,.27-1.39c4.13-2.26,10.69-2.2,13.75.13a.81.81,0,0,1,0,1.4A1.68,1.68,0,0,1,833.73,189.75Z"/><path class="k" d="M795.73,222.3c4.85,13.58,22.56,9.44,23.53,0Z"/><path class="n" d="M810.3,200.23c.27-.1.44.1.57.48-2.53.56-6.71,4.52-6.46,9.45.15,3,4.32,1.83,6.82,1.87a1.18,1.18,0,0,1-.27.42c-1.08.78-8.35,2.05-8.5-2C802.21,204,810.17,200.27,810.3,200.23Z"/><path class="m" d="M831.07,202.26c0,3-.33,1.43-4.5,1.43s-4.5,1.52-4.5-1.43,2-5.35,4.5-5.35S831.07,199.31,831.07,202.26Z"/><path class="m" d="M794.65,202.26c0,3-.33,1.43-4.51,1.43s-4.5,1.52-4.5-1.43,2-5.35,4.5-5.35S794.65,199.31,794.65,202.26Z"/><path class="f" d="M824.29,266.75s6.87-13.74,3.27-22.24c0,0-12.43.33-18,5.23s0,7.2,0,7.2-.65,7.2,13.74,9.81"/><path class="f" d="M789.91,266.75S783,253,786.64,244.5c0,0,12.43.33,18,5.23s0,7.2,0,7.2.65,7.2-13.74,9.81"/><rect class="ac" x="803.68" y="249.33" width="7.11" height="9.08" rx="0.69" ry="0.69" transform="translate(1614.48 507.73) rotate(180)"/><path class="af" d="M960.65,370.21v6.13H830.2a2.39,2.39,0,0,1-2.39-2.39v-3.07a.66.66,0,0,1,.66-.66Z"/><path class="q" d="M858.34,288.48H959.4a3.58,3.58,0,0,1,3.58,3.58v74.78a3.6,3.6,0,0,1-3.58,3.58H858a3.23,3.23,0,0,1-3.23-3.23V292A3.57,3.57,0,0,1,858.34,288.48Z"/><circle class="k" cx="908.92" cy="331.44" r="11.62"/><ellipse class="g" cx="845.5" cy="265.35" rx="14.65" ry="14.34"/><path class="h" d="M1072.09,308.09a16.83,16.83,0,0,0-2.41-.71,17.48,17.48,0,0,0-2.82-.22,15.69,15.69,0,0,0-3,.36,16.56,16.56,0,0,0-3,1,20.63,20.63,0,0,0-2.75,1.53,18,18,0,0,0-2.39,2,14.32,14.32,0,0,0-1.93,2.28,16.06,16.06,0,0,0-2.33,5,17,17,0,0,0-.47,2.31,15.27,15.27,0,0,0-.09,2c0,.26,0,.51,0,.75l.68-.78a49,49,0,0,1,4.81-4.68c.95-.78,1.93-1.51,2.88-2.15l1.4-.85c.47-.24.91-.46,1.31-.68s.82-.31,1.15-.45a6,6,0,0,1,.91-.29l.8-.22-.76.28a6.27,6.27,0,0,0-.87.36l-1.11.55c-.38.24-.78.49-1.24.76l-1.31.93c-.88.71-1.79,1.5-2.64,2.33a44.53,44.53,0,0,0-4.32,4.92c-.31.4-.56.76-.8,1.1a8.34,8.34,0,0,0,1.09,0c.55,0,1.22,0,1.89-.13s1.42-.16,2.19-.31,1.53-.33,2.31-.55a22,22,0,0,0,2.31-.76,22.7,22.7,0,0,0,2.19-1,18.53,18.53,0,0,0,2-1.24,20.06,20.06,0,0,0,3.5-3,21.94,21.94,0,0,0,1.48-1.68c.45-.56.89-1.18,1.31-1.77s.84-1.15,1.2-1.71.75-1.09,1-1.51.56-.84.75-1.1.27-.45.27-.45a3.68,3.68,0,0,0-.38-.33,7.35,7.35,0,0,0-1.09-.8,9.71,9.71,0,0,0-1.79-.95Zm0,0"/><path class="h" d="M1046.27,313a.55.55,0,0,0-.08-.19,18,18,0,0,0-6.59-6.36,19.74,19.74,0,0,0-3.08-1.39,22.85,22.85,0,0,0-3.32-.79,16.38,16.38,0,0,0-3.41-.17,15.19,15.19,0,0,0-3.26.49,17.7,17.7,0,0,0-2.93,1,21,21,0,0,0-2.31,1.41,12.94,12.94,0,0,0-1.63,1.55,11.1,11.1,0,0,0-.9,1.15c-.21.29-.31.46-.31.46s.16.14.43.41.66.6,1.11.94.91.79,1.51,1.26,1.14,1,1.74,1.47,1.26,1,1.91,1.48a24,24,0,0,0,2,1.33,22.71,22.71,0,0,0,4.55,2.12c.81.3,1.64.48,2.49.7a24.09,24.09,0,0,0,2.61.41c.89.07,1.78.15,2.65.15s1.73,0,2.58-.1,1.67-.17,2.39-.28,1.46-.28,2-.41c.39-.08.68-.16,1-.23m-1-1a49.11,49.11,0,0,0-5.95-3.93,31.1,31.1,0,0,0-3.44-1.67c-.58-.21-1.13-.41-1.65-.61s-1-.32-1.51-.45-.92-.19-1.31-.25a9.84,9.84,0,0,0-1-.13l-.92-.07h.93a8.62,8.62,0,0,1,1,0l1.34.15,1.57.32,1.76.5a31.19,31.19,0,0,1,3.61,1.41,55.13,55.13,0,0,1,6.07,3.32c.14.68.27,1.37.42,2.06-.29-.21-.56-.45-.92-.7Zm0,0"/><path class="ag" d="M1049,295.32s-6.89,8.21.33,27.58-.16,26.1-.16,26.1"/><path class="ah" d="M1051.12,305.19m1,6.32-.44-.48"/><path class="k" d="M1048.79,301.78a5.32,5.32,0,0,0,5-5.29,7.06,7.06,0,0,0-.09-1.09c.17.2.33.42.5.59a5.32,5.32,0,0,0,7.73-7.3,5.32,5.32,0,0,0-.13-10.64,5.82,5.82,0,0,0-.73,0c.14-.11.3-.24.4-.34a5.33,5.33,0,0,0-7.53-7.54,5.87,5.87,0,0,0-.47.56,4.34,4.34,0,0,0,0-.46,5.32,5.32,0,0,0-10.64-.28,5.32,5.32,0,0,0-7.37,7.67c.23.22.52.45.8.67a4.76,4.76,0,0,0-.67,0,5.33,5.33,0,0,0,0,10.65,5.32,5.32,0,0,0,7.54,7.5h0a5.34,5.34,0,0,0,4,5.13m-3.16-18.26a4.65,4.65,0,1,1,4.65,4.65,4.65,4.65,0,0,1-4.65-4.65Z"/><circle class="f" cx="1048.26" cy="283.45" r="7.42"/><g class="ai"><path class="aj" d="M1060.71,377.86h-22.26a5.11,5.11,0,0,1-5-4L1028,349a5.11,5.11,0,0,1,5-6.21h33.25a5.11,5.11,0,0,1,5,6.21l-5.49,24.9A5.11,5.11,0,0,1,1060.71,377.86Z"/></g><path class="ak" d="M1049.26,343.06H1033a5,5,0,0,0-5,6l5.49,24.53a4.8,4.8,0,0,0,5,3.64h10.81Z"/><path class="al" d="M1060.71,377.86h-22.26a5.11,5.11,0,0,1-5-4L1028,349a5.11,5.11,0,0,1,5-6.21h33.25a5.11,5.11,0,0,1,5,6.21l-5.49,24.9A5.11,5.11,0,0,1,1060.71,377.86Z"/><path class="am" d="M1049.26,343.06H1033a5,5,0,0,0-5,6l5.49,24.53a4.8,4.8,0,0,0,5,3.64h10.81Z"/><rect class="an" x="1025.94" y="342.42" width="46.87" height="9.87"/><rect class="f" x="1049.46" y="342.42" width="23.36" height="9.81"/><rect class="ao" x="479.7" y="237.98" width="24.78" height="30.34"/><path class="g" d="M515.65,206.18c-1.31,7.43,3.1,13.62,9.85,15A12.12,12.12,0,0,0,540.08,211c1.31-7.43-3.1-14.54-9.85-15.87S517,198.75,515.65,206.18Z"/><path class="g" d="M468.58,206.18c1.31,7.43-3.1,13.62-9.85,15A12.12,12.12,0,0,1,444.16,211c-1.31-7.43,3.1-14.54,9.85-15.87S467.28,198.75,468.58,206.18Z"/><path class="g" d="M525.78,156.11c-6.59-8.95-16.86-14.82-27.76-15.26l-.56,0v-.43l-5.37.21-5.37-.21v.43l-.56,0c-10.91.43-21.18,6.31-27.76,15.26s-7.47,20.24-6.95,31c.39,8.16,1.84,21.34,2.24,29.51,6.62,24.75,23.07,29,38.39,29s32.33-4.23,38.4-29c.41-8.16,1.85-21.34,2.24-29.51C533.25,176.35,532.38,165.07,525.78,156.11Z"/><path class="f" d="M511.37,256.49c-.53-.19-4.8-3.55-4.8-3.55s-2.27-2.67-2.09-2.61-12.39,8.13-12.39,8.13l-12.39-8.13L477,253s-5,3.76-6.15,4.17c5.33,19.27,9,44.74,21.23,60C503.49,300.76,505.9,275.7,511.37,256.49Z"/><polygon class="h" points="499.57 303.73 494.87 270.83 498.28 264.37 492.26 259.6 492.26 259.25 492.07 259.43 491.89 259.25 491.89 259.6 485.87 264.37 489.27 270.83 484.58 303.73 492.07 317.2 499.57 303.73"/><path class="q" d="M510.53,256a73.45,73.45,0,0,1-18,30.93S478.25,275.22,472.91,256c-18.82,6.7-27.51,12.8-31.15,24.17-3,9.31-10.82,96.83-11.12,104a.7.7,0,0,0,.57.7c4.74,1.12,13,1.54,18.91-.21a.64.64,0,0,0,.4-.37.71.71,0,0,0,0-.57c-.29-.64,4.73-74.42,5.81-80.71l3.42,74.85,64.67.08.9-25.07C526.1,295.12,530.75,263.11,510.53,256Z"/><path class="f" d="M453.4,197c.5-10.28.63-28.89,9.71-28.89,6.72,0,8.55,1.53,29,1.53,18.08,0,23.33-2,30.1-2,7.25,0,9,9.69,9.19,23.13,0,2.77.22,5.54.38,8.3.09,1.62.21,3.24.29,4.86,0,.66.2,2.42,1.07,2.26s1.07-3.75,1.17-4.51a126.91,126.91,0,0,0,.88-16.25c0-10,2.88-29.14-15.14-41.1-11.09-7.35-34-8.08-46.76-3.92-8.88,2.9-17.4,10.45-20.57,19.25-3.48,9.66-3.39,17.21-2.24,36.35.13,2.08.37,4.15.66,6.21a40.43,40.43,0,0,0,.7,4.11c.73,2.93,1.74.84,1.71-1C453.46,202.5,453.27,199.74,453.4,197Z"/><path class="h" d="M524.37,359.19H535a5.73,5.73,0,0,1,5.73,5.73v47.16A5.72,5.72,0,0,1,535,417.8H524.37a5.72,5.72,0,0,1-5.72-5.72V364.92A5.73,5.73,0,0,1,524.37,359.19Z"/><path class="ap" d="M550.93,381c.24-.16-6.45-93.71-9.48-102.86-3.31-10-10.29-13.41-26.67-19.14,1,19.37,7.16,38.58,7.16,56.76A80.56,80.56,0,0,0,524,332.9l1.81-38.59c3.18,17.48,4.18,40.93,6.09,56.36.55,4.46,1.87,21.76,1.26,25.88-.41,2.78-1.48,3.74-3,5.23s-1.65,2.95-1.61,4.89v11.72c0,3.13,4.62,3.72,5.37.9.22-.83.32-9.15,1.17-9.1a2.22,2.22,0,0,1,2.14,1.25c2.31,6.86-2.92,16.16-2.15,18.37,2.24,6.38,8.34.81,12.25-7.95C550.33,395.06,550.82,385.7,550.93,381Z"/><path class="q" d="M509.34,255.36C528,261.79,537.67,266,541.28,277c3,8.94,9.3,94.33,9.58,101.2a.67.67,0,0,1-.57.67c-4.7,1.05-12.87,1.41-18.74-.31a.62.62,0,0,1-.4-.35.66.66,0,0,1,0-.54c.29-.62-3-48.68-4.3-60.2-.71-6.45-.37-12.51-1.45-18.55l-2.55,67.71c-3.21,0-7.65.41-10.87.29-1,0-3.42.11-4.22-.69s-.4-2.23-.43-3.25c-.13-5.27-.09-10.55,0-15.82.14-14.66.53-29.31.91-44,.34-12.83.75-25.66,1-38.48C509.26,264,509.91,255.55,509.34,255.36Z"/><path class="h" d="M522.41,375.24C468,304.85,465,259.68,464.85,257.73l9.44-2.91.07.31c0,.45,3.42,45.78,55.66,113.41Z"/><path class="m" d="M465.2,188.52a1.93,1.93,0,0,1-1.08-.31.94.94,0,0,1-.06-1.61c2.7-2.06,10.61-3.34,15.26-1a1,1,0,0,1,.4,1.59,2,2,0,0,1-2.19.29c-3.39-1.7-9.5-.58-11.18.71A1.9,1.9,0,0,1,465.2,188.52Z"/><path class="m" d="M521.74,188.61a1.91,1.91,0,0,1-1.14-.35c-2.42-1.83-8.17-1.78-11.62.1a2,2,0,0,1-2.21-.22,1,1,0,0,1,.31-1.6c4.75-2.6,12.28-2.53,15.8.14a.94.94,0,0,1-.05,1.61A1.93,1.93,0,0,1,521.74,188.61Z"/><path class="k" d="M478.06,226c5.57,15.61,25.93,10.85,27,0Z"/><path class="n" d="M494.81,200.66c.31-.12.51.12.65.56-2.91.64-7.72,5.2-7.43,10.86.17,3.42,5,2.1,7.84,2.15a1.36,1.36,0,0,1-.31.48c-1.24.9-9.59,2.36-9.77-2.27C485.51,204.95,494.66,200.71,494.81,200.66Z"/><path class="m" d="M518.68,203c0,3.39-.38,1.64-5.18,1.64s-5.18,1.75-5.18-1.64,2.32-6.15,5.18-6.15S518.68,199.6,518.68,203Z"/><path class="m" d="M476.81,203c0,3.39-.38,1.64-5.18,1.64s-5.18,1.75-5.18-1.64,2.32-6.15,5.18-6.15S476.81,199.6,476.81,203Z"/><path class="f" d="M137.37,339.83s-49.93,7-52.39,37.27h57.66Z"/><path class="f" d="M164.51,277.15s7.07-26.32,23.24-30.15c0,0,18.65,7.95,2.67,50.54Z"/><path class="t" d="M168.91,276s5.14-21.4,17.14-24.45c0,0,13.89,6.55,2.2,41.16Z"/><path class="f" d="M149.89,280.09s-16-20.39-31.58-17.71c0,0-13.35,13.91,16.52,45.21Z"/><path class="t" d="M145.62,280.75s-12.48-16.81-24.12-15c0,0-9.71,10.91,13.43,36.84Z"/><path class="f" d="M157.74,276.58c-36.58,7.47-21.7,63.53-21.7,63.53l33.29-6.8,33.29-6.8S194.32,269.11,157.74,276.58Z"/><path class="g" d="M203.66,338.13l4.55-11.22c-.37-1.87-4.91-5.53-7.51-7.09-4.12-2.47-10-2.44-14.79-2.84a16.72,16.72,0,0,1-7.37-2.31c-2.68-1.64-5-3.83-5.73-6.76-5.32-20.73-12.71-17.32-12.71-17.32h0c-2.41.26-4.63,4-1.92,21,.8,5-3.17,9.31-6.87,12.12a16,16,0,0,1-3.84,2.12c-5.27,2.08-14.17,3.76-16.45,8.64-1.06,2.27-2.05,4.28-2,6.82l4.71,2.41s-9.45,27.65,16.65,44.49l1-3.17s5.29,6.87,9.88,8.94l.81-3.91s8,5.8,10.89,9.12c2.21,2.52,4.66,2.24,6.24-.72,2.08-3.9,8.52-11.36,8.52-11.36l1.68,3.62c4-3.06,7.59-11,7.59-11l1.73,2.85C213.9,361.11,203.66,338.13,203.66,338.13Z"/><ellipse class="m" cx="149.07" cy="311.29" rx="2.27" ry="3.49" transform="translate(-43.86 25.1) rotate(-8.4)"/><ellipse class="m" cx="181.14" cy="303.48" rx="2.27" ry="3.49" transform="translate(-77.01 62.09) rotate(-16.09)"/><path class="aq" d="M162.48,326c.41,2,3.85,4.8,7.26,4.11s5.51-4.55,5.1-6.6-3.51-3.15-6.93-2.46S162.07,324,162.48,326Z"/><path class="ar" d="M147.76,302.65a12.34,12.34,0,0,0-5,6.14"/><path class="ar" d="M176.51,295.53a12.34,12.34,0,0,1,7.59,2.19"/><path class="as" d="M169.82,330.28s2,5.64-3.84,7.35-6.85-3.4-6.85-3.4"/><path class="as" d="M169.92,330.24s.39,6,6.39,5.28,5-5.79,5-5.79"/><g class="at"><g class="au"><rect class="h" x="140.64" y="337.67" width="43.04" height="43.88" transform="translate(-55.54 30.64) rotate(-9.22)"/></g></g><g class="av"><g class="au"><rect class="h" x="164.56" y="333.79" width="43.04" height="43.88" transform="translate(-54.61 34.42) rotate(-9.22)"/></g></g><path class="aw" d="M178.29,364.18l-6.38,1a.78.78,0,0,1-.89-.64L169.63,356a.78.78,0,0,1,.64-.89l6.38-1a.78.78,0,0,1,.89.64l1.39,8.56a.78.78,0,0,1-.64.89"/></g></g></svg>