<svg xmlns="http://www.w3.org/2000/svg" xmlns:xlink="http://www.w3.org/1999/xlink" viewBox="0 0 518 518"><defs><style>.a{fill:none;}.b{isolation:isolate;}.c{clip-path:url(#a);}.d{fill:#27144c;}.e{fill:#f8d8c7;}.f,.p{fill:#fff;}.g{fill:#3bcfe3;}.h{fill:#302733;}.i{fill:#fec86b;}.j{opacity:0.25;}.j,.l,.m{mix-blend-mode:multiply;}.k{fill:#e2e2e2;}.l,.m{fill:#a67d52;}.l{opacity:0.1;}.m{opacity:0.17;}.n{fill:#5a3833;}.o{fill:#160e05;}.p{opacity:0.2;}.q{fill:#684994;}.r{fill:#5b3e87;}</style><clipPath id="a"><circle class="a" cx="257.42" cy="259.33" r="198.33"/></clipPath></defs><title>avatar</title><g class="b"><g class="c"><circle class="d" cx="257.42" cy="259.33" r="198.33"/><rect class="e" x="250.55" y="193" width="61.07" height="74.77"/><polygon class="e" points="221.07 248.63 255.46 233.16 301.11 233.16 342.72 247.47 330.01 292.19 265.86 321.2 220.78 254.57 221.07 248.63"/><path class="e" d="M148.13,319.27,126.08,418c-.9,4.24,16.27,96,19.24,115.27l35.64-.74-7.49-101.17,27.7-84.92Z"/><polygon class="f" points="362.89 514.24 198.89 514.24 198.89 498.11 363.79 498.11 362.89 514.24"/><path class="g" d="M409.17,294.63c-9-26.5-28.44-35-74.82-50.63-2.83-.95-9-3-9-3,0,28.44-88,28.44-88,0,0,0-5.73,2.55-8.56,3.5-46.39,15.6-62.4,18.18-75.28,50.11C146.08,313,135.08,338,125.08,377c15.55,3.54,45,16,60.45,21.94,8.24-23.06,9.38-27.41,12.42-36.82l1.8,148.47H362.91l4.36-150.73c2.68,14.64,2.09,9.06,8.59,38.31,15.46-6,45.2-14.95,61.23-20.17C425.08,327,413,306.05,409.17,294.63Z"/><polygon class="h" points="371.01 517.12 197.19 517.12 197.19 495.47 371.96 495.47 371.01 517.12"/><path class="i" d="M295,523.6H264.5a4.36,4.36,0,0,1-4.36-4.36v-25.9A4.36,4.36,0,0,1,264.5,489h30.68a4.36,4.36,0,0,1,4.36,4.39l-.16,25.9A4.36,4.36,0,0,1,295,523.6Z"/><path class="j" d="M401.47,279.94c-11.27-15.68-29.44-23.27-66.06-35.58L325.24,241c0,.07,0,.53,0,.53l-13.6-4.74v-25c-22.26-4-44.94-4.72-61.14-1.83l0,25.36-13.28,6c0-.3.13.05.13-.25,0,0-1.62.77-4,1.77,9.21,16.35,32.25,30.91,69,39S383.28,286.67,401.47,279.94Z"/><rect class="k" x="222.53" y="315.96" width="151.36" height="208.33" rx="7.23" ry="7.23"/><circle class="f" cx="298.45" cy="420.31" r="17.51"/><path class="e" d="M436.25,423.27,427.32,379c-14.21,4.83-30.77,11.08-48.76,18.09l5.49,20.25-47.36.08-60.41-.08-33.38-20.6a6,6,0,0,0-7.81,9l4.49,4.69c-14.85,2.28-23,13.86-23,27.8,0,15.57,10.25,25.61,28.57,25.61,8.26,0,15.78-2.07,21.57-5.75H410.47C426.32,456.84,439.22,438.89,436.25,423.27Z"/></g><path class="e" d="M203.9,105.67s-1,20.72-3.63,29-5.7,48.17-.52,62.15,12.28,34.7,14.87,40.92,20.61,14,33.56,10.36S283.4,237,283.4,237s44.13-12.17,49.31-47.91c0,0,2.22-10.36,8.44-42S323.54,56.47,281.59,54.4s-64,13-73,31.08C205.71,91.17,203.9,105.67,203.9,105.67Z"/><path class="l" d="M219.44,242.68c6.83,4.55,19.17,8.1,28.74,5.42C261.13,244.48,283.4,237,283.4,237s44.13-12.17,49.31-47.91c0,0,2.22-10.36,8.44-42S323.54,56.47,281.59,54.4c-1.61-.08-3.17-.12-4.72-.15l20.54,52.27s17.9,19.38,10.35,45.66a40.45,40.45,0,0,1,1.25,5.36c3.85,22.29-3.79,54.81-23.89,65.18,0,0-28.7,12.72-35.57,15.29S233.5,243.07,219.44,242.68Z"/><path class="m" d="M248.44,136s-5.51,22.69-17.5,34.18c-3.11,3-5.65,11.41,5.57,14.5a67.06,67.06,0,0,0,24.67-.45s-16.9-.06-23.11-2.78-4.79-9.84.26-16.31C245.72,155.61,248.44,136,248.44,136Z"/><path class="f" d="M268.38,147.11s22.79-24.86,39.88,4.66c0,0-6,8-21,6.22C272.91,156.25,268.38,147.11,268.38,147.11Z"/><ellipse class="n" cx="289.1" cy="146.07" rx="9.32" ry="9.06"/><ellipse class="o" cx="289.1" cy="146.07" rx="4.52" ry="4.39"/><ellipse class="p" cx="288.51" cy="142.77" rx="3.36" ry="3.27"/><path class="f" d="M205.06,132.35s21.47-23.27,36.67,7.27c0,0-6.45,7.64-21.33,4.88C206.17,141.86,205.06,132.35,205.06,132.35Z"/><ellipse class="n" cx="222.96" cy="132.72" rx="9.06" ry="9.32" transform="translate(76.47 346.89) rotate(-86.39)"/><ellipse class="o" cx="222.96" cy="132.72" rx="4.39" ry="4.52" transform="translate(76.47 346.89) rotate(-86.39)"/><ellipse class="p" cx="222.59" cy="129.39" rx="3.27" ry="3.36" transform="translate(79.45 343.39) rotate(-86.39)"/><path class="q" d="M271.1,125.55v.08a2.2,2.2,0,0,0,2.73,2.15l1-.24a2.27,2.27,0,0,0,.38-.13c1.86-.83,18.26-7.45,34,8.79a1.34,1.34,0,0,0,1.38.35h0a1.33,1.33,0,0,0,.73-1.94c-3.22-5.35-15.34-20.56-35.9-14.69A5.77,5.77,0,0,0,271.1,125.55Z"/><path class="q" d="M245.34,120.12l0,.08a2.17,2.17,0,0,1-3.29,1l-.78-.57a2.21,2.21,0,0,1-.3-.26c-1.4-1.45-13.94-13.55-34.32-4.15a1.3,1.3,0,0,1-1.39-.18h0a1.34,1.34,0,0,1,.05-2.07c4.91-3.81,21.6-13.55,38.22-.65A5.76,5.76,0,0,1,245.34,120.12Z"/><path class="f" d="M216.85,190.09s.88,15.69,15,23.79a30.34,30.34,0,0,0,18.69,3.57c8.17-1,20.54-4.31,25.87-15.46C276.41,202,235.15,195.66,216.85,190.09Z"/><path class="q" d="M243.91,22s-15.15-7.77-36.51,18.65c0,0-2.72,5-15.54.78a16.4,16.4,0,0,0,11.26,11.26S185.64,71,194.19,104.77l7.38,22.53s.39-21,8.16-25.25c0,0,26.41-8.55,42.73-32.24,0,0,19.42,30.3,65.65,44.67,0,0,3.5,8.93,9.71,12.82,0,0-2.72,15.54,10.1,33.79,0,0-.15-5,11.89-5.18,0,0,6.09-1.94,7.25,9.32s38.74-38.33,28.25-74.06c0,0,5.83,5,12,3.88,0,0-5.44-9.71-6.22-18.65s-8.93-14-14.76-13.21c0,0-1.55-26-22.92-28.36,0,0,5-.78,1.55-7.77a15.61,15.61,0,0,1-12.43,4.27c-7.77-.78-10.49-24.86-38.07-16.7C304.5,14.65,271.1-9.83,243.91,22Z"/><path class="r" d="M252.45,69.81s-6.7,9.07-9.45,11-16.24,3.69-25.35-3.18c0,0,13.54.27,19.68-4.9,4.9-4.12,5-10.65,5.5-16.5,0,0-7.22,5.33-14.09,3.27,0,0,7.39-1.72,10.48-7.48,1.42-2.65,3.35-12.29,3.35-12.29C243.24,52.93,246,63.61,252.45,69.81Z"/><path class="r" d="M294,104l-.08.5a144.37,144.37,0,0,0,24.21,10s3.5,8.93,9.71,12.82c0,0-2.72,15.54,10.1,33.79,0,0-.15-5,11.89-5.18,0,0,6.09-1.94,7.25,9.32s38.74-38.33,28.25-74.06c0,0,5.83,5,12,3.88,0,0-5.44-9.71-6.22-18.65s-8.93-14-14.76-13.21c0,0-1.55-26-22.92-28.36,0,0,5-.78,1.55-7.77a15.61,15.61,0,0,1-12.43,4.27c-7.77-.78-10.49-24.86-38.07-16.7a53.65,53.65,0,0,0-20.1-8.25c.36,8.09,2.06,17.52,8,18,10.49.78,15.93,21.44,20,27.89,6.94,10.9,27.82,5.87,27.82,5.87-3.09,13.15-28.47,10.44-28.47,10.44C318.79,95.76,294,104,294,104Z"/><path class="e" d="M324.72,162.08c-6.32,14-3,27.31,6.83,32s22.33-1,28.65-15,3.5-29.09-6.31-33.78S331,148.11,324.72,162.08Z"/><path class="l" d="M324.72,162.08c-6.32,14-3,27.31,6.83,32s22.33-1,28.65-15,3.5-29.09-6.31-33.78S331,148.11,324.72,162.08Z"/></g></svg>