<?xml version="1.0" encoding="UTF-8"?>
<svg width="22px" height="17px" viewBox="0 0 22 17" version="1.1" xmlns="http://www.w3.org/2000/svg" xmlns:xlink="http://www.w3.org/1999/xlink">
    <!-- Generator: Sketch 50.2 (55047) - http://www.bohemiancoding.com/sketch -->
    <title>Fill 1</title>
    <desc>Created with Sketch.</desc>
    <defs></defs>
    <g id="001_animal57_homepage" stroke="none" stroke-width="1" fill="none" fill-rule="evenodd">
        <g id="001_homepage" transform="translate(-358.000000, -1321.000000)" fill="#21EAF4" stroke="#21EAF4">
            <g id="Group-14" transform="translate(100.000000, 925.000000)">
                <g id="Group-11" transform="translate(150.000000, 377.000000)">
                    <path d="M128.774999,26.9573334 L122.374972,20.2468008 C122.076535,19.9414953 121.592169,19.9060321 121.243727,20.2159639 C120.93279,20.4919721 120.924974,21.0316489 121.212479,21.3323163 L126.350097,26.7106108 L109.800003,26.7106108 C109.357802,26.7106108 109,27.0637151 109,27.5000852 C109,27.9364554 109.357814,28.2895597 109.800003,28.2895597 L126.350097,28.2895597 L121.212479,33.6678542 C120.924978,33.9685334 120.94529,34.4943589 121.243727,34.7842105 C121.559353,35.089516 122.081251,35.0633015 122.374972,34.7533736 L128.774999,28.042841 C128.9625,27.8608908 128.996876,27.6851104 129,27.5000774 C129,27.3181469 128.8875,27.0745309 128.774999,26.9573334 Z" id="Fill-1"></path>
                </g>
            </g>
        </g>
    </g>
</svg>