<?xml version="1.0" encoding="UTF-8"?>
<svg width="28px" height="50px" viewBox="0 0 28 50" version="1.1" xmlns="http://www.w3.org/2000/svg" xmlns:xlink="http://www.w3.org/1999/xlink">
    <!-- Generator: Sketch 50.2 (55047) - http://www.bohemiancoding.com/sketch -->
    <title>Right Arrow</title>
    <desc>Created with Sketch.</desc>
    <defs></defs>
    <g id="001_animal57_homepage" stroke="none" stroke-width="1" fill="none" fill-rule="evenodd" opacity="0.500446429">
        <g id="002a_app_showcase" fill="#ffffff">
            <path d="M4.586274,1.582203 C3.74685,0.779626 2.433992,0.809916 1.634927,1.653911 C1.228686,2.048308 1,2.597136 1,3.168055 C1,3.738968 1.228679,4.287795 1.634927,4.6822 L22.786525,25.502479 L1.634927,46.322758 C1.228686,46.717156 1,47.265983 1,47.836902 C1,48.407815 1.228679,48.956642 1.634927,49.351047 C2.008887,49.778545 2.54963,50.015738 3.109223,49.999188 C3.652673,49.996435 4.177306,49.78958 4.586205,49.422754 L27.357008,27.087978 L27.354315,27.087978 C27.768628,26.668755 28,26.09787 28,25.502098 C28,24.906325 27.768628,24.335476 27.354315,23.916218 L4.586274,1.582203 Z" id="Fill-1"></path>
        </g>
    </g>
</svg>