<svg xmlns="http://www.w3.org/2000/svg" xmlns:xlink="http://www.w3.org/1999/xlink" viewBox="0 0 1680 1134.05"><defs><style>.a{isolation:isolate;}.b{fill:#230b48;}.c{fill:url(#a);}.d{fill:#231a32;}.ai,.e,.f,.g,.h,.i,.j,.k,.l,.q,.r,.s,.t,.u,.v,.w,.x,.y,.z{fill:#00eff8;}.e{opacity:0.34;}.f{opacity:0.29;}.g{opacity:0.17;}.h{opacity:0.28;}.i{opacity:0.2;}.j{opacity:0.15;}.k{opacity:0.1;}.l{opacity:0.09;}.m{fill:#20182c;}.ah,.n{fill:#482f5e;}.o{fill:#39264c;}.aa,.ac,.ad,.ae,.af,.ag,.p{fill:#1d172b;}.p,.u{opacity:0.4;}.q{opacity:0.05;}.r{opacity:0.55;}.ah,.s{opacity:0.5;}.t{opacity:0.45;}.v{opacity:0.35;}.w{opacity:0.32;}.x{opacity:0.25;}.ag,.y{opacity:0.16;}.z{opacity:0.12;}.aa{opacity:0.73;}.ab,.am{fill:#00e9f0;}.ac{opacity:0.65;}.ad{opacity:0.38;}.ae,.aj{opacity:0.8;}.af{opacity:0.81;}.ai{opacity:0.08;}.aj{mix-blend-mode:overlay;fill:url(#b);}.ak,.am{mix-blend-mode:screen;}.al{fill:#21103d;}.an{fill:url(#c);}</style><radialGradient id="a" cx="-207.29" cy="1411.53" r="2242.59" gradientUnits="userSpaceOnUse"><stop offset="0.24" stop-color="#482f5e"/><stop offset="0.68" stop-color="#302242"/><stop offset="1" stop-color="#1d172b"/></radialGradient><linearGradient id="b" x1="185.02" y1="890.74" x2="1645.02" y2="19.74" gradientUnits="userSpaceOnUse"><stop offset="0.1" stop-color="#a060df"/><stop offset="1" stop-color="#7112b9"/></linearGradient><linearGradient id="c" x1="840" y1="1134.05" x2="840" y2="324.97" gradientUnits="userSpaceOnUse"><stop offset="0.18" stop-color="#230b48"/><stop offset="0.38" stop-color="#230b48" stop-opacity="0.82"/><stop offset="0.75" stop-color="#230b48" stop-opacity="0.36"/><stop offset="1" stop-color="#230b48" stop-opacity="0"/></linearGradient></defs><title>octopus</title><g class="a"><rect class="b" y="902.45" width="1680" height="231.61"/><rect class="c" width="1680" height="1000"/><path class="d" d="M1116.35,446.88s-78.27-91.4-191.67-43.63c-99.24,41.8-32.7,181-14.53,215.07a62.6,62.6,0,0,1,7.58,29.57c-.05,14.08-4.61,31.72-23.91,42.66a49.77,49.77,0,0,1-37.71,4.32c-19.29-5.28-56.24-11.43-79.2,10a32.75,32.75,0,0,0-1,47.09c.17.17.35.32.51.51,14.23,16.22,2,23.66-5.2,29.87a1.82,1.82,0,0,0,1.65,3.14c9.89-2.7,25.34-10.68,11.57-39.44-19-39.62,33.88-46.27,55.62-33.16,23.56,14.21,117,15.87,114.54-73.09s-60.07-152-13.54-176.12,133.15,56.59,133.15,56.59Z"/><ellipse class="e" cx="1057.37" cy="416.09" rx="9.66" ry="14.5" transform="translate(160.98 1114.4) rotate(-59.4)"/><ellipse class="f" cx="1023.97" cy="402.43" rx="8.46" ry="12.69" transform="translate(411.55 1316.43) rotate(-77.63)"/><ellipse class="g" cx="990.63" cy="397.18" rx="10.79" ry="7.2" transform="translate(-23.41 64.29) rotate(-3.67)"/><ellipse class="g" cx="958.84" cy="398.86" rx="8.77" ry="5.84" transform="translate(-54.18 170.27) rotate(-9.87)"/><ellipse class="h" cx="937.31" cy="405.5" rx="8.66" ry="5.77" transform="translate(-79.97 315.36) rotate(-18.33)"/><ellipse class="i" cx="911.98" cy="417.01" rx="7.86" ry="5.24" transform="translate(-80.96 557.31) rotate(-32.61)"/><ellipse class="j" cx="895.45" cy="429.21" rx="5.68" ry="3.79" transform="translate(-44.54 749.31) rotate(-44.41)"/><ellipse class="k" cx="885.31" cy="442.98" rx="4.72" ry="3.15" transform="translate(42.64 962.52) rotate(-58.24)"/><path class="l" d="M875.49,457.36a2.78,2.78,0,0,1,2.2.1c1.48.91,1.56,3.45.19,5.67-1.17,1.9-3,2.93-4.47,2.62A62.43,62.43,0,0,1,875.49,457.36Z"/><path class="m" d="M864.42,696.44a64.89,64.89,0,0,1-39.49,6.47c-11-1.82-27.36-3.38-44.49-1,23.07-17.79,57.33-12,75.66-7A52.78,52.78,0,0,0,864.42,696.44Z"/><path class="m" d="M942.62,634.46c6.57-93.44-52-164.22,3.36-194.52,50.54-27.64,139.89,11.38,153.41,22.24l-25.2,58s-86.61-80.7-133.15-56.59,11.07,87.17,13.54,176.12c1.71,61.47-42.39,79.67-77.57,80.36C908.89,708.57,939.21,683.06,942.62,634.46Z"/><path class="m" d="M779.93,747.17c-4.75-9.93-5.58-16.35-3.1-21.94a11.12,11.12,0,0,1,3.59-4.54,5.88,5.88,0,0,1,3.19-1.26c-4.13,6.27-4.71,15,.82,26.57,13.77,28.76-1.68,36.73-11.57,39.44a1.76,1.76,0,0,1-.92,0C781.42,781.78,792.12,772.61,779.93,747.17Z"/><path class="d" d="M1025.91,472.43S960.44,543.87,908.71,489c-42.88-45.44-83.35-63.09-148.26-51.9-28.09,4.85-37.78,8.55-69,27.77-3.59,2.21-19.41,13.61-23.85,18-17.75,17.76-71.22,7.83-70.82-28.92.09-8.6,3.15-33.64,24.62-47.83a1.88,1.88,0,0,0-1.91-3.23c-15.39,8.16-35.1,25.2-32.87,58.53,1.73,25.86,17.69,38,33.84,43.72a74.27,74.27,0,0,0,52.3-1.53,401,401,0,0,0,38.65-18.14c32.81-17.51,98.9-23.46,137.39,12s71.59,111,183.93,66.28,70.52-28.93,70.52-28.93l-44.44-57.81Z"/><path class="n" d="M1034.41,535.47S969.79,574.35,926.6,537,853.54,468.57,801.3,463s-93.39,24.41-93.39,24.41,17.18-10,43.38-14c22.24-3.42,51-2.68,80.83,13.89a98.81,98.81,0,0,1,22.53,17.42c7.81,8,20.5,21,34,35.22,32.79,34.43,55.78,38.59,88.71,38.87s88.54-14.63,88.54-14.63Z"/><path class="o" d="M996.43,577.7c-15.54,1.56-33.38,1.79-41.36-.15,1.56-8.36,11.25-14.17,22.35-13.12C987.22,565.36,994.78,570.45,996.43,577.7Z"/><path class="d" d="M977.41,564.43a23.79,23.79,0,0,0-16.71,4.38c4.16-4.1,10.86-7.63,18.23-6.94,9.81.92,19.44,8.2,21.08,15.45-.63.06-3.26.23-3.89.29C994,571,986.68,565.3,977.41,564.43Z"/><path class="p" d="M976.32,505.45s-31.78,11.67-53-4.35S893.14,473,873.84,458.45s-45-21.32-50.7-21.89c0,0,59.15,38.27,99.06,89.18,39.71,50.66,116,45.52,116,45.52s.27,1.49,13.33-6.1-17.16-29.69-17.16-29.69Z"/><path class="m" d="M1213.83,439.13s3.5,111,112.69,142.17c36.2,10.33,63.36-3.14,83.5-25.77,33-37.1,47.13-98.81,51.25-120.58a57.77,57.77,0,0,1,11.64-25.66c8.18-10.1,21.65-20.15,41.86-16.88a45.93,45.93,0,0,1,29.63,18.68c10.83,14.95,33.86,40.72,62.74,38.61a30.22,30.22,0,0,0,27.94-33.3c0-.22-.07-.44-.08-.66-.86-19.89,12.23-18.18,21-18.49a1.68,1.68,0,0,0,.63-3.21c-8.67-3.77-24.4-7-31.12,21.69-9.25,39.47-51.12,13.71-59.18-8.28-8.74-23.84-75-79-124.65-13.61s-44,138.79-91.86,132.11c-55.05-7.68-57.83-75.25-57.83-75.25Z"/><ellipse class="l" cx="1321.26" cy="524.46" rx="6.52" ry="13.03" transform="translate(287.04 1499.74) rotate(-64.97)"/><ellipse class="l" cx="1350.98" cy="533.26" rx="6.18" ry="9.9" transform="translate(646.87 1803.59) rotate(-82.54)"/><ellipse class="l" cx="1374.95" cy="528.63" rx="8.17" ry="5.07" transform="translate(-97.92 553.07) rotate(-21.98)"/><ellipse class="l" cx="1390.16" cy="511.91" rx="7.12" ry="4.75" transform="translate(253.99 1462.54) rotate(-60.13)"/><ellipse class="l" cx="1398.16" cy="494.79" rx="5.11" ry="3.93" transform="translate(436.29 1623.71) rotate(-69.06)"/><ellipse class="l" cx="1405.02" cy="478.99" rx="4.75" ry="3.57" transform="translate(455.45 1619.97) rotate(-69.06)"/><ellipse class="l" cx="1410.68" cy="464.7" rx="3.35" ry="2.89" transform="translate(472.44 1616.08) rotate(-69.06)"/><ellipse class="l" cx="1415.06" cy="452.82" rx="2.81" ry="2.51" transform="matrix(0.36, -0.93, 0.93, 0.36, 486.34, 1612.52)"/><ellipse class="l" cx="1418.45" cy="442.62" rx="2.11" ry="1.69" transform="translate(571.76 1663.7) rotate(-72.59)"/><ellipse class="l" cx="1422.08" cy="432.56" rx="1.94" ry="1.55" transform="translate(509.77 1606.06) rotate(-69.06)"/><ellipse class="l" cx="1427.18" cy="422.58" rx="1.54" ry="1.23" transform="translate(522.38 1604.42) rotate(-69.06)"/><path class="d" d="M1254.58,492.66s41.84,100.6,153.42,65.4c0,0-30.69,44.39-95.45,20.43S1254.58,492.66,1254.58,492.66Z"/><path class="d" d="M1237.9,826.21c16,10.43,34.5,8.69,53.59,9.64,52.56,2.6,125.24,23.38,112.85,85.54a2,2,0,0,1-3.87-.27c-.78-16.29-8.45-39-41.06-53.23,0,0-32.14-16.93-92.78-8.74-5.65.76-33.07,1.68-40.92-5.74Z"/><path class="m" d="M1242.31,826.11c3-.05,11.18,7.8,21.51,7.76a310.72,310.72,0,0,1,75.89,9.48c-69-8.38-83.55,5.38-102.12-8.92Z"/><path class="m" d="M1253,499.53s125.58,179,235.8,182.55,88.27-78.12,56.52-88.22-54,21.77-43.39,43.19,32.88,11.6,35.25-1.36-5.71-31.23-28.25-31.77c-15.39-.36-27.75,6.15-36.51,13.24a1.78,1.78,0,0,1-2.48-2.54c8.74-10.49,22.46-21.61,40.72-20.3,35.88,2.57,43.56,26.69,40.45,44.9s-17.48,30-46.81,22.39-37-68.79,11.86-85.22,78.38,35.94,78.38,35.94,32.45,55-40.18,95.09-184.47-12.11-259.27-73.83-107.77-105.91-107.77-105.91Z"/><path class="m" d="M1253,499.53s125.58,179,235.8,182.55,88.27-78.12,56.52-88.22-54,21.77-43.39,43.19,32.88,11.6,35.25-1.36-5.71-31.23-28.25-31.77c-15.39-.36-27.75,6.15-36.51,13.24a1.78,1.78,0,0,1-2.48-2.54c8.74-10.49,22.46-21.61,40.72-20.3,35.88,2.57,43.56,26.69,40.45,44.9s-17.48,30-46.81,22.39-37-68.79,11.86-85.22,78.38,35.94,78.38,35.94,32.45,55-40.18,95.09-184.47-12.11-259.27-73.83-107.77-105.91-107.77-105.91Z"/><ellipse class="q" cx="1340.08" cy="611.81" rx="6.18" ry="12.27" transform="translate(-14.11 1191.72) rotate(-47.72)"/><ellipse class="q" cx="1366.11" cy="629.57" rx="5.33" ry="10.58" transform="translate(9.99 1280.37) rotate(-50.38)"/><ellipse class="q" cx="1387.04" cy="647.23" rx="5.33" ry="10.58" transform="matrix(0.6, -0.8, 0.8, 0.6, 41, 1375.89)"/><ellipse class="q" cx="1410.94" cy="662.27" rx="4.73" ry="9.4" transform="translate(126.7 1545.49) rotate(-59.66)"/><ellipse class="q" cx="1434.49" cy="674.03" rx="3.74" ry="7.42" transform="translate(193.51 1659.97) rotate(-63.63)"/><ellipse class="q" cx="1456.97" cy="681.28" rx="3.35" ry="6.65" transform="translate(356.31 1854.08) rotate(-71.88)"/><ellipse class="q" cx="1480.27" cy="685.82" rx="3.35" ry="6.65" transform="translate(592.93 2054.82) rotate(-81.91)"/><ellipse class="q" cx="1504.24" cy="687.74" rx="3.09" ry="6.14" transform="translate(792.42 2180.73) rotate(-89.08)"/><ellipse class="q" cx="1526.52" cy="683.96" rx="4.81" ry="2.42" transform="translate(-101.04 297.81) rotate(-10.79)"/><ellipse class="q" cx="1544.02" cy="677.95" rx="4.03" ry="2.03" transform="translate(-138.25 561.35) rotate(-19.74)"/><ellipse class="q" cx="1557.93" cy="668.57" rx="4.03" ry="2.03" transform="translate(-99.67 1024.23) rotate(-35.34)"/><path class="d" d="M1228.7,499s143.93,241,310.92,215.43c0,0-144.89,66.87-352.3-186.77Z"/><path class="d" d="M1234.38,545.64s13.86-54.1,57.89-89,108.51-25.26,123.37-88.53c7.62-32.43.26-86.14-39.34-108.42-29.84-16.79-75.4-14-100.14-2.76-20.37,9.24-46.57,32.35-73,74-41.56,65.34-74.41,80.53-113.56,77.1s-23.07,71.9-23.07,71.9l75.32,61.93Z"/><circle class="r" cx="1204.37" cy="356.78" r="6.45" transform="matrix(0.07, -1, 1, 0.07, 766.64, 1534.14)"/><circle class="r" cx="1236.75" cy="379.64" r="6.45" transform="translate(774.01 1587.75) rotate(-86.11)"/><circle class="r" cx="1283.98" cy="422.69" r="6.45" transform="translate(775.08 1675.01) rotate(-86.11)"/><circle class="s" cx="1216.47" cy="337.93" r="5.96" transform="translate(796.72 1528.64) rotate(-86.11)"/><circle class="s" cx="1254.43" cy="365.59" r="5.96" transform="translate(804.5 1592.3) rotate(-86.11)"/><circle class="s" cx="1304.2" cy="414.72" r="5.96" transform="translate(801.88 1687.75) rotate(-86.11)"/><circle class="t" cx="1229.42" cy="321.1" r="5.23" transform="translate(825.58 1525.88) rotate(-86.11)"/><circle class="t" cx="1273.05" cy="352.11" r="5.23" transform="translate(835.31 1598.31) rotate(-86.11)"/><circle class="t" cx="1325.36" cy="407.31" r="5.23" transform="translate(829 1701.95) rotate(-86.11)"/><circle class="u" cx="1242.17" cy="307.22" r="4" transform="translate(851.31 1525.66) rotate(-86.11)"/><circle class="u" cx="1287.07" cy="341.26" r="4" transform="translate(859.2 1602.18) rotate(-86.11)"/><circle class="u" cx="1340.75" cy="398.03" r="4" transform="translate(852.6 1708.65) rotate(-86.11)"/><circle class="v" cx="1253.25" cy="296.17" r="3.75" transform="translate(872.67 1526.41) rotate(-86.11)"/><circle class="v" cx="1299.52" cy="331.78" r="3.75" transform="translate(880.26 1605.76) rotate(-86.11)"/><circle class="v" cx="1353.1" cy="390.01" r="3.75" transform="translate(872.1 1713.5) rotate(-86.11)"/><circle class="w" cx="1264.23" cy="286.59" r="3.26" transform="matrix(0.07, -1, 1, 0.07, 892.46, 1528.44)"/><circle class="w" cx="1313.43" cy="322.39" r="3.26" transform="translate(902.6 1610.9) rotate(-86.11)"/><circle class="w" cx="1365.54" cy="380.53" r="3.26" transform="translate(893.16 1717.09) rotate(-86.11)"/><circle class="h" cx="1273.64" cy="278.37" r="2.77" transform="translate(909.43 1530.17) rotate(-86.11)"/><circle class="h" cx="1327.25" cy="314.48" r="2.77" transform="translate(923.37 1617.32) rotate(-86.11)"/><circle class="h" cx="1378.09" cy="369.58" r="2.77" transform="translate(915.78 1719.4) rotate(-86.11)"/><circle class="h" cx="1284.42" cy="271.73" r="2.77" transform="translate(926.1 1534.74) rotate(-86.11)"/><circle class="x" cx="1340.97" cy="308.04" r="2.77" transform="translate(942.58 1625) rotate(-86.11)"/><circle class="x" cx="1386.14" cy="359.8" r="2.77" transform="translate(933.04 1718.31) rotate(-86.11)"/><circle class="x" cx="1296.57" cy="266.65" r="2.28" transform="translate(942.49 1542.13) rotate(-86.11)"/><circle class="i" cx="1354.69" cy="301.59" r="2.28" transform="translate(961.8 1632.68) rotate(-86.11)"/><circle class="i" cx="1393.01" cy="345.52" r="2.28" transform="translate(953.7 1711.85) rotate(-86.11)"/><circle class="i" cx="1307.61" cy="262.55" r="1.85" transform="translate(956.87 1549.31) rotate(-86.11)"/><circle class="y" cx="1365.72" cy="297.49" r="1.85" transform="translate(976.18 1639.86) rotate(-86.11)"/><circle class="y" cx="1397.3" cy="332.1" r="1.85" transform="translate(971.09 1703.63) rotate(-86.11)"/><circle class="i" cx="1318.09" cy="260.31" r="1.48" transform="translate(968.88 1557.68) rotate(-86.11)"/><circle class="z" cx="1376.31" cy="293.78" r="1.48" transform="translate(989.74 1646.96) rotate(-86.11)"/><circle class="z" cx="1401.14" cy="319.08" r="1.48" transform="translate(987.65 1695.32) rotate(-86.11)"/><circle class="y" cx="1329.94" cy="259.64" r="1.24" transform="translate(980.59 1568.88) rotate(-86.11)"/><circle class="z" cx="1343.58" cy="261.55" r="0.93" transform="translate(991.39 1584.27) rotate(-86.11)"/><circle class="k" cx="1355.23" cy="263.82" r="0.81" transform="translate(999.99 1598.01) rotate(-86.11)"/><circle class="k" cx="1368.25" cy="267.66" r="0.81" transform="translate(1008.3 1614.57) rotate(-86.11)"/><circle class="k" cx="1388.35" cy="290.18" r="1.24" transform="translate(1004.57 1655.62) rotate(-86.11)"/><circle class="k" cx="1402.04" cy="305.86" r="1.24" transform="translate(1001.68 1683.9) rotate(-86.11)"/><path class="aa" d="M1223,409.12s73.9-1.86,61.3,13.52-40.3,24.8-40.3,24.8l-29.38-23.64Z"/><path class="d" d="M1259.78,414.95a3,3,0,0,1,2,4.66c-2,2.86-5.82,6.79-12.91,10.21-13,6.25-34.83,2.3-37.62-.1s-2.57-24.36,20.28-19.77c1,.2,5.09,1.37,6.09,1.53Z"/><path class="aa" d="M1188.11,354.61s30.79-4.3,28.72,15.23c-1.77,16.75-26.12,29.7-42.85,29.79-20.64.11,9.54-42.63,9.54-42.63Z"/><path class="d" d="M1191.29,355.13a1.92,1.92,0,0,0-2.87-1.15,95.8,95.8,0,0,1-16.38,8.26c-4.47,1.66-4.88,3.92-4.34,5.63a13.92,13.92,0,0,1,.5,7.32c-.34,1.49-.72,3-1.07,4-1.8,5.3-4.15,15.45,1.49,21.63,2.63,2.88,6.78,1.61,11.13-1.37,11.92-8.16,17.11-23.18,13.44-37.15Z"/><path class="ab" d="M1217.8,430.77c8.15,1.34,25.77,2.71,38.44-7.25a1.74,1.74,0,0,1,2.73,1.93c-4.42,13.19-17.36,40.14-42.8,8.15A1.75,1.75,0,0,1,1217.8,430.77Z"/><path class="ab" d="M1171.75,368.71c-2.24,5-6.94,16.58-6.07,24.73a1.33,1.33,0,0,1-2.31,1c-6.43-7.25-16.22-22.25,6.86-27.62A1.34,1.34,0,0,1,1171.75,368.71Z"/><path class="d" d="M1206,709.94c59.07-58.37,117-91.44,28.19-183-18.38-19-8-24.71-4.62-33.27,5.9-14.86,52.73-30.37,66.41-45.34-5.46,9.57-12.6,33.82,11,64.87,30.39,40,46,110.78-1.75,155.79s-114.48,83.21-73.65,149.91a63.19,63.19,0,0,0,7.89,7.64l-18.09,26.58C1180.71,829.56,1166.95,748.51,1206,709.94Z"/><path class="m" d="M1233,833.48c-5.92-5.09-7.11-4.64-7.11-4.64-37.18-42.61-5.57-87.92,16-101.41-22.39,25.68-33.28,54.1-10.41,91.46a63.18,63.18,0,0,0,7.89,7.64l-18.09,26.58c-.39-.23-.78-.47-1.17-.71Z"/><path class="n" d="M1239.35,516s60.51,59.45,36.5,108.72c0,0,14-58.81-46.38-93.53Z"/><path class="m" d="M1291.08,681.72l-26.59-31.51c23.37-31.9,29.11-78-26.2-135-18.38-19-12.14-12.94-8.74-21.5,5.9-14.86,52.73-30.37,66.41-45.34-5.46,9.57-12.6,33.82,11,64.87,30.39,40,46,110.78-1.75,155.79C1300.61,673.28,1295.88,677.52,1291.08,681.72Z"/><path class="d" d="M1234,497.41s-18.64,60.7,40.09,105.63c31.58,24.16,117.5,106.66,39.73,172.12s-85.72,113-43.76,142.75,125.93-29.66,98.09-97.1c-20.27-49.09-90.67-48-90.67-48s102.35-15.17,118.17,63.13c19.92,98.58-94.3,142.6-146.93,106.56-30.7-21-59.49-94.69,4.25-149.72s52-104.84-28.09-150.43-62.43-112.45-62.43-112.45Z"/><path class="n" d="M1323.61,780.9s51.73,11.45,58.64,61.33c3.14,22.69-3.8,48.35-19.07,65.43s-40.93,32.84-74.09,26.31c0,0-58.06-6.9-42.92-70.3,0,0-6.81,34.36,22.23,52.92,12.83,8.2,28.91,9.43,43.72,5.92,15.6-3.7,35.86-12.74,49.1-36.74,23.14-42,3.55-72.06,3.55-72.06S1357.41,795.62,1323.61,780.9Z"/><path class="n" d="M1152.75,566.15s16.73,45.6,70.21,76.71c50.5,29.38,68.31,64,68.31,64s-6.6-40.29-48.82-68.61c-18.74-12.58-40.58-29.76-51.91-49.28-7.54-13-13.45-27-12.15-37.33A146.81,146.81,0,0,0,1152.75,566.15Z"/><path class="d" d="M1162.85,485.32s-150,4.84-156.25-83.76C999.66,303.45,991.2,199.93,877,178c0,0-83.12-15.72-114.94,69.78-9.68,26-6.37,47.85-2.13,59.91,5.84,16.65,18,30.6,38.1,27.11,35.69-6.19,42.92-64.21,11.19-85-26-17-67.75-24.62-71.5-48.9-1-6.72.81-13.42,3.08-18.68a1.85,1.85,0,0,0-3.1-1.94c-5.22,6.05-10.83,15.2-11.09,26.76-.31,13.67,9.82,23.88,21.54,30.39,18.66,10.37,57.57,26.21,60.35,50.62,3.05,26.76-33.67,23.73-26.47-18.35,5.58-32.63,33.59-81.53,103.1-54.41s63.78,142,63.36,192c-.61,73.29,38.54,152.26,130.85,133.65Z"/><path class="ac" d="M1016.8,429.27c16,39,89,36.3,89,36.3L1096.94,500,1034,530s-53.57-34.72-49-179.41c3.81-121-75-162.49-75-162.49s68.81,22.39,86.23,120.46C1008,374.8,999.81,388,1016.8,429.27Z"/><path class="n" d="M1095.05,533.2s-114.15-21-130.9-107.27c-15-77,16.43-149.26-64.48-203.45,0,0,55.72,32.19,47.43,170.32-9.33,155.3,130.48,169.46,130.48,169.46Z"/><path class="n" d="M785.34,256.28s36,14.51,29.68,42.13a20,20,0,0,1-15.5,15c-4.71.93-10.35.23-16-4.8-16.62-14.79-.61-43.94-.61-43.94s-6.43,36.22,10.89,39.1c17,2.83,18.12-20.47,5.23-34.78-5.4-6-14.44-10.11-14.44-10.11Z"/><path class="n" d="M763.6,243.71s-28-12.85-34.35-24.59c0,0,2.55,11.24,32.9,27.81Z"/><path class="n" d="M1114.55,595.28s-48.57,14.86-73.74-16.59c-45.78-57.22,33.53-182.34,33.53-182.34s51.61-99.66,59.18-149.31,7.94-104.8-43-120.76c-34.78-10.9-47.94,10.87-52.78,25.77a38.48,38.48,0,0,0,2.15,29.73c3.58,6.85,9.79,13.48,20.53,15.11a28.81,28.81,0,0,0,23.48-6.56,24,24,0,0,0,7.39-16.08c.26-16.19-17.44-19.24-23.3-15.95s-12.23,12.46-5.51,21.58c0,0,5.62,5.15,10.24.49,3.35-3.38,2.18-7.31,1.28-9.22a.54.54,0,0,1,.74-.71c3.9,1.95,4.51,8.74-.13,13.3-5.14,5.05-25.61,2.41-21.79-17a22.33,22.33,0,0,1,13.65-16.52c4.3-1.76,11.14-1.42,15.54.08,19.2,6.54,18.78,23.54,16.72,31.22-3.48,13-15.54,23.51-28.89,24.94-33.21,3.56-53.67-27.31-44.54-57.78,5.76-19.21,41.56-73.67,106.78-21s22.48,187.17,22.48,187.17-63.21,169.88-35.91,207.27S1114.55,595.28,1114.55,595.28Z"/><path class="d" d="M1172.38,501.11s-25.15,55.7-52.45,18.32c-24.18-33.1,18.24-150.67,30.78-187.22,1.82-5.3,5.1-17.76,6.48-23.19,8.36-32.94,29.64-137.87-25-182-65.22-52.67-105.83,4.54-106.9,21.63a59.43,59.43,0,0,1,19-26.3c21.5-16.74,59.65-12.19,85.53,13.59,59.1,58.86,11.1,180.55-13.72,250.91-7.81,22.14-21.3,68.27-23.71,84.21-6.92,45.87-8.39,60.22-2.81,89.82,4.75,25.22,18.36,44.44,38.27,25.32,42.32-40.65,56.22-24,56.22-24Z"/><path class="ac" d="M1416.44,323.92c5.73,38.63,1.17,78.53-52.2,99.42-15.61,6.11-41.24,14.94-49.65,19.49-18.77,10.16-23.91,15.22-26.09,17.47,0,0-12.87-40.64,50.88-75.47,55.09-30.11,62-54.31,61.78-80.39-.08-10.72-1.13-15.94-4-26.83C1405.82,286.68,1413.61,306,1416.44,323.92Z"/><path class="ad" d="M1203.12,330.91c-6.82,8.6,32.55-42.78,32.55-42.78q1.05-1.31,2.11-2.57c21.1-25,52.86-38.52,85.57-37.41a175.57,175.57,0,0,1,20.41,2c32,4.79,44.16,17.76,44.16,17.76S1297.08,212.45,1203.12,330.91Z"/><path class="ae" d="M818.21,314.23a59.1,59.1,0,0,1-21.27.78c-6.09-.91-9.33-2.36-15.15-8-8.65-8.34-6.69-31.81-6.69-31.81,9.44-62.8,63.23-67.26,63.23-67.26s-33.06,2.62-48.58,38.15c-.44,1-.88,2-1.37,3a64.9,64.9,0,0,0-5.53,16.59c-1.23,7.66-1.84,17,.14,25.38,1.88,7.94,5.66,10.77,7.81,11.75a15,15,0,0,0,9,.74,9.6,9.6,0,0,0,5.87-4.6,14.41,14.41,0,0,0,1.82-5l21.91-5.84s.65,13.88-4.7,24.76Z"/><path class="af" d="M737.24,197.4C738,209,744.83,215,750.36,219.17a103.81,103.81,0,0,0,19.49,11.26L766.61,236s-20.86-9.86-25.75-21.39C737.66,207.05,737.24,197.4,737.24,197.4Z"/><path class="ac" d="M812,251.88c-7.75-3.37-14.85-6.23-21.1-8.4l1.51-2.87A119.62,119.62,0,0,1,812,251.88Z"/><path class="m" d="M608.93,417s-26.43,27.87-12.81,54.46c16.39,32,65.48,20.69,67,16.85,0,0-29.41,7.59-48.07-3.76s-21.44-30-15.9-46.45S608.93,417,608.93,417Z"/><path class="m" d="M1157.09,310.08C1156,314.93,1146.56,333.6,1138,350c-10.8,20.7-18.83,35.07-27,56.94-29.37,78.76-31,108.18-30.42,132.57.88,38.69,23.22,76.09,50.41,45.11s47.74-24,47.74-24,71.14,17,60.09-10.3,11-55.68,11-55.68l-8-11.24s-29.18.6-84.88,6-24.88-100.55-24.88-100.55Z"/><path class="m" d="M1185.92,558.45s17.34,36.53,75.2,58.33a141.27,141.27,0,0,1,31.38,16.29c13.48,9.44,30.76,24.13,43.58,44,0,0-14.4-37.74-63.05-76.22-37.43-29.6-34.69-54-34.69-54Z"/><path class="d" d="M1233.45,483.36l31.64-.27a20.83,20.83,0,0,0,21.48-19.37l.72-7.2,2.77-19L1246.81,457Z"/><path class="m" d="M1111,450.68s132.06,7.14,81.41,17.84-79.83,16.7-79.83,16.7Z"/><path class="ag" d="M1028.93,507.55s-3.31,21.54-1.18,39c0,0-8.17-10-20.88-53.62Z"/><path class="ah" d="M1616.82,447.24s-37,8.92-61.4-22.81C1555.42,424.43,1573.19,462.34,1616.82,447.24Z"/><ellipse class="g" cx="1226.53" cy="545.35" rx="8.34" ry="12.51" transform="translate(-19.42 45.95) rotate(-2.13)"/><ellipse class="ai" cx="1299.72" cy="510.49" rx="8.34" ry="12.51" transform="translate(-89.47 368.94) rotate(-15.63)"/><ellipse class="y" cx="1015.12" cy="448.07" rx="6.4" ry="9.6" transform="translate(-82.37 611.59) rotate(-32.29)"/><ellipse class="y" cx="1003.95" cy="422.64" rx="5.32" ry="8.11" transform="translate(-65.65 216.47) rotate(-11.92)"/><ellipse class="y" cx="1000.83" cy="401.46" rx="4.35" ry="6.62" transform="translate(-41.94 126.77) rotate(-7.1)"/><ellipse class="y" cx="1000.33" cy="384.6" rx="3.33" ry="5.42" transform="translate(-30.34 90.83) rotate(-5.12)"/><ellipse class="y" cx="999.22" cy="369.23" rx="2.69" ry="4.38" transform="translate(-5.06 14) rotate(-0.8)"/><ellipse class="y" cx="999.45" cy="355.54" rx="2.01" ry="3.27" transform="translate(-4.87 14) rotate(-0.8)"/><ellipse class="y" cx="999.21" cy="344.37" rx="1.59" ry="2.59" transform="translate(-4.71 13.99) rotate(-0.8)"/><ellipse class="y" cx="998.62" cy="334.27" rx="1.42" ry="2.3" transform="translate(-4.57 13.98) rotate(-0.8)"/><ellipse class="ai" cx="1312.17" cy="535.83" rx="6.32" ry="9.48" transform="translate(-95.83 373.23) rotate(-15.63)"/><ellipse class="ai" cx="1321.64" cy="557.2" rx="4.89" ry="7.34" transform="translate(-101.23 376.56) rotate(-15.63)"/><ellipse class="ai" cx="1326.81" cy="577.08" rx="4.18" ry="6.26" transform="translate(-57.86 157.39) rotate(-6.64)"/><ellipse class="ai" cx="1329.04" cy="597.24" rx="3.59" ry="5.39" transform="translate(-6.87 15.54) rotate(-0.67)"/><ellipse class="ai" cx="1328.63" cy="614.39" rx="4.38" ry="2.92" transform="translate(447.43 1783.24) rotate(-77.8)"/><ellipse class="ai" cx="1327.05" cy="628.12" rx="3.35" ry="2.24" transform="translate(432.77 1792.52) rotate(-77.8)"/><ellipse class="ai" cx="1323.65" cy="638.62" rx="2.96" ry="1.97" transform="translate(265.18 1658.19) rotate(-69.68)"/><ellipse class="g" cx="1236.29" cy="572.92" rx="6.61" ry="12.51" transform="translate(-96.81 854.86) rotate(-36.81)"/><ellipse class="g" cx="1256.32" cy="595.33" rx="5.39" ry="10.2" transform="translate(-57.75 1049.18) rotate(-44.41)"/><ellipse class="g" cx="1276.69" cy="612.91" rx="4.64" ry="8.77" transform="translate(-27.78 1164.22) rotate(-48.56)"/><ellipse class="g" cx="1295.82" cy="629.59" rx="4.2" ry="7.95" transform="translate(-33.82 1184.2) rotate(-48.56)"/><ellipse class="g" cx="1310.64" cy="645.47" rx="3.55" ry="6.72" transform="translate(-121.21 935.7) rotate(-37.68)"/><ellipse class="g" cx="1322.72" cy="660.03" rx="3.08" ry="5.82" transform="translate(-127.58 946.13) rotate(-37.68)"/><ellipse class="g" cx="1331.5" cy="675.04" rx="2.65" ry="5.48" transform="translate(-160.93 710.12) rotate(-28.23)"/><ellipse class="g" cx="1338.36" cy="689.43" rx="2.28" ry="4.72" transform="translate(-158.42 527.62) rotate(-21.08)"/><ellipse class="g" cx="1342.22" cy="703.41" rx="2.03" ry="4.2" transform="translate(-115.22 288.41) rotate(-11.76)"/><ellipse class="g" cx="1343.65" cy="716.25" rx="3.07" ry="1.49" transform="translate(571.61 2028.64) rotate(-87.59)"/><path class="ai" d="M1320.32,650.11l-2.38-2.6c.09-.32.14-.53.21-.75.49-1.53,1.72-2.51,2.74-2.18s1.45,1.83,1,3.37A3.16,3.16,0,0,1,1320.32,650.11Z"/><path class="y" d="M1028.61,461.26c3.39-2.14,8.48-.34,12.17,4-1.16,3-4,10.46-5.87,17.15a16.18,16.18,0,0,1-6.67-6.12C1024.55,470.45,1024.72,463.72,1028.61,461.26Z"/><ellipse class="g" cx="1343.63" cy="725.57" rx="2.08" ry="1.01" transform="translate(385.65 1914.71) rotate(-79.51)"/><path class="i" d="M972.86,506.63c2.88,1,6.73,5,6.57,7.33-.35,5.17-7,8.93-15,8.39s-14-5.17-13.68-10.34a6.39,6.39,0,0,1,.69-2.43C957.78,509.8,964.92,508.67,972.86,506.63Z"/><path class="i" d="M919.11,497.88c8.48,7.37,19.15,10,22.08,10.61a2.77,2.77,0,0,1-.09,1.79c-1.21,2.83-7.72,2.77-14.54-.15s-11.37-7.58-10.16-10.41A3.59,3.59,0,0,1,919.11,497.88Z"/><path class="i" d="M893,474.7c6.88,6.65,17.56,15.48,17.22,15.88-1.78,2.09-7.32.36-12.35-3.92s-8.26-8.65-6.48-10.73A3,3,0,0,1,893,474.7Z"/><path class="i" d="M873.62,458.13c1.32.92,3,2.15,4.4,3.16,2.07,1.55,5.93,5.25,7.53,6.76-1.53,2-5.56,1.57-9-1s-5-6.35-3.47-8.38A3.63,3.63,0,0,1,873.62,458.13Z"/><path class="i" d="M859.46,449.36c1.77,1,5.09,2.84,7.4,4.25-1.4,1.12-4.46,1-7.33-.58s-4.8-4.1-4.48-5.9C856.34,447.78,858.19,448.65,859.46,449.36Z"/><path class="m" d="M1337.71,745.46a308.61,308.61,0,0,1-53.07,48c-32.17,22.89-57.69,67.26-40,105,0,0-11.68-32.33,20.79-74,5.1-6.54,12.64-13.44,14-14.78C1305.14,784.93,1327.74,761.84,1337.71,745.46Z"/><path class="d" d="M1047.73,191.61s-26.78-14.86-9.58-47.13c0,0,5.66-10.93,14-14.54,0,0-13.88,8.89-16.25,32.83A34.24,34.24,0,0,0,1047.73,191.61Z"/><path class="d" d="M1075.41,157.25s-10.54-3.22-16.15,7,4,16.39,4,16.39-7.72-9.31-.36-17.35C1068.8,156.8,1075.41,157.25,1075.41,157.25Z"/><ellipse class="o" cx="1079.53" cy="426.99" rx="15.46" ry="11.71" transform="translate(275.36 1264.26) rotate(-67.74)"/><path class="d" d="M1090.37,431.43c3.23-7.9,1-16.29-5-18.74-3.51-1.44-7.54-.5-10.92,2.12,3.65-3.63,9.19-6.17,13.27-4.5,6,2.45,8.15,12,4.92,19.88-1.34,3.26-4.12,5.79-6.5,7.62A19.35,19.35,0,0,0,1090.37,431.43Z"/><ellipse class="o" cx="1097.49" cy="384.21" rx="13.75" ry="10.42" transform="translate(326.11 1254.31) rotate(-67.74)"/><path class="d" d="M1107.13,388.16c2.88-7,.89-14.49-4.43-16.67-3.1-1.27-6.65-.46-9.64,1.82,3.26-3.3,7.54-4.69,11.21-3.19,5.32,2.18,7.31,9.64,4.43,16.67a16.66,16.66,0,0,1-5.21,7A17.26,17.26,0,0,0,1107.13,388.16Z"/><ellipse class="o" cx="1113.58" cy="347.2" rx="12.05" ry="9.13" transform="translate(456.25 1310.81) rotate(-73.02)"/><path class="d" d="M1122.31,349.87c1.94-6.36-.39-12.71-5.21-14.19a8.18,8.18,0,0,0-7.23,1.51c2.51-2.59,5.78-3.8,8.8-2.88,4.82,1.47,7.15,7.82,5.21,14.19a14.18,14.18,0,0,1-5,7.34A14.83,14.83,0,0,0,1122.31,349.87Z"/><ellipse class="o" cx="1126.26" cy="312.66" rx="9.92" ry="7.52" transform="translate(498.27 1298.48) rotate(-73.02)"/><path class="d" d="M1133.45,314.85c1.6-5.24-.32-10.47-4.29-11.68a6.68,6.68,0,0,0-5.8,1.14c2.08-2.23,4.83-3.28,7.37-2.51,4,1.21,5.89,6.44,4.29,11.68a11.6,11.6,0,0,1-4.29,6.15A12.25,12.25,0,0,0,1133.45,314.85Z"/><ellipse class="o" cx="1135.81" cy="280.85" rx="8.87" ry="6.25" transform="translate(607.4 1324.74) rotate(-77.04)"/><path class="d" d="M1141.89,282.25c1.1-4.77-.74-9.27-4.1-10a5.13,5.13,0,0,0-4,.86c1.58-1.77,3.61-2.68,5.57-2.23,3.36.77,5.2,5.27,4.1,10a10.41,10.41,0,0,1-4.08,6.38A11.37,11.37,0,0,0,1141.89,282.25Z"/><ellipse class="o" cx="1143.48" cy="253.33" rx="7.49" ry="5.27" transform="translate(500.5 1232.26) rotate(-69.19)"/><path class="d" d="M1146.14,246.33c-2.72-1-6.12,1.26-7.59,5.13-.11.3-.18.59-.27.89a10.24,10.24,0,0,1,.57-2.33c1.47-3.87,4.87-6.16,7.59-5.13,2.51,1,3.55,4.41,2.54,8C1149.37,249.85,1148.31,247.15,1146.14,246.33Z"/><ellipse class="o" cx="1146.75" cy="228.47" rx="7.49" ry="5.27" transform="translate(803.27 1346.17) rotate(-84.19)"/><path class="d" d="M1147.39,221.32c-2.63-.25-5,2.55-5.7,5.52a7.33,7.33,0,0,1,0-1.54c.37-3.45,3-6,5.93-5.74s4.95,3.3,4.57,6.75a7.41,7.41,0,0,1-.18.92C1151.72,224.47,1149.84,221.56,1147.39,221.32Z"/><ellipse class="o" cx="1147.75" cy="204.78" rx="4.37" ry="6.2" transform="translate(-5.61 34.43) rotate(-1.71)"/><path class="d" d="M1152.11,204.65c-.1-3.42-2.14-6.14-4.55-6.07-2,.06-3.68,2.11-4.08,4.8-.08-3.4,1.78-6.2,4.18-6.27s4.45,2.64,4.55,6.07a8.59,8.59,0,0,1-.1,1.52S1152.11,204.67,1152.11,204.65Z"/><ellipse class="d" cx="1145.66" cy="181.14" rx="3.89" ry="5.52" transform="translate(-12.29 248.22) rotate(-12.3)"/><ellipse class="o" cx="1145.56" cy="182.61" rx="3.89" ry="5.52" transform="translate(-12.61 248.23) rotate(-12.3)"/><ellipse class="o" cx="1145.56" cy="182.61" rx="3.89" ry="5.52" transform="translate(-12.61 248.23) rotate(-12.3)"/><ellipse class="o" cx="1140.17" cy="163.62" rx="3.38" ry="4.8" transform="translate(23.13 444.63) rotate(-22.29)"/><ellipse class="o" cx="1131.51" cy="148.63" rx="2.96" ry="4.2" transform="translate(101.54 640.12) rotate(-32.99)"/><ellipse class="o" cx="1119.75" cy="134.73" rx="2.61" ry="3.71" transform="translate(231.25 829.39) rotate(-44.88)"/><ellipse class="o" cx="1107.03" cy="126.49" rx="2.61" ry="3.71" transform="translate(405.35 992.03) rotate(-57.49)"/><ellipse class="o" cx="1061.81" cy="473.36" rx="19.05" ry="14.43" transform="translate(252.45 1307.89) rotate(-69.9)"/><path class="d" d="M1075.36,478.32c3.61-9.88.48-20.11-7-22.85a11.06,11.06,0,0,0-1.63-.45,11.26,11.26,0,0,1,4.56.65c7.48,2.74,10.62,13,7,22.85-3.36,9.17-11.35,14.81-18.47,13.38C1066.09,491.52,1072.46,486.24,1075.36,478.32Z"/><ellipse class="o" cx="1058.25" cy="575.99" rx="16.32" ry="21.22" transform="translate(-145.93 616.2) rotate(-30.47)"/><path class="d" d="M1072.31,567.72c-5.94-10.1-17.06-14.58-24.83-10l-.21.15a12.82,12.82,0,0,1,3.35-2.88c7.77-4.57,18.89-.09,24.83,10s4.48,21.75-3.1,26.42C1077,585.76,1077.26,576.13,1072.31,567.72Z"/><path class="o" d="M1015.92,540.35c-6.11-3.79-19.67-12.85-30.8-25a12.31,12.31,0,0,1,2.41-3.55c6-6.14,17.35-4.81,25.29,3s9.49,19.09,3.46,25.23C1016.17,540.14,1016,540.24,1015.92,540.35Z"/><path class="d" d="M1012.82,514.8c-7.94-7.79-19.26-9.12-25.29-3a21.32,21.32,0,0,0-2.4,3.47c-.14-.15-.15-.45.09-1.39.59-1.3,1.13-3.15,2.16-4.2,6-6.14,19.08-5,27,2.76,5.23,5.13,6.19,12.63,5.54,18.32C1020,525.45,1017.6,519.49,1012.82,514.8Z"/><path class="o" d="M1171.74,598.1a117.14,117.14,0,0,1-16.45-25.26,9.36,9.36,0,0,1,2.57-2c5.8-3,13.68.57,17.6,8.06s2.41,16-3.39,19.06Z"/><path class="d" d="M1175.47,578.89c-3.92-7.49-11.8-11.1-17.6-8.06a8.77,8.77,0,0,0-1,.65h0a9.36,9.36,0,0,1,2.57-2c5.8-3,13.68.57,17.6,8.06,3.7,7.06,2.56,15.05-2.45,18.49C1178.22,592.1,1178.75,585.14,1175.47,578.89Z"/><path class="o" d="M1199.36,626.53a118.09,118.09,0,0,1-18.53-17.59,10.1,10.1,0,0,1,2-2.42c4.24-3.59,11.43-2.07,16.07,3.41s5,12.82.73,16.41Z"/><path class="d" d="M1198.88,609.93c-4.36-5.15-11-6.8-15.28-4a8,8,0,0,1,.77-.78c4.24-3.59,11.43-2.07,16.07,3.41s5,12.82.73,16.41l-.25.19-.13-.1C1203.72,621.2,1203,614.82,1198.88,609.93Z"/><path class="o" d="M1251.77,662.66c-3.7-3.18-7.08-5.42-12.19-9.18.2-.51,3.9-2.5,9.52,1.66C1250.51,656.19,1254.08,660.2,1251.77,662.66Z"/><path class="d" d="M1249.1,655.15a12.9,12.9,0,0,0-5-2.4,10.29,10.29,0,0,1,6.16,2.57c2.14,1.81,4.7,5.6,2.39,8.06-.27-.23-.63-.5-.9-.72C1253.24,660.19,1250.42,656.12,1249.1,655.15Z"/><path class="o" d="M1228.3,646a76.59,76.59,0,0,1-17-10.56c.22-.69,4.3-4.05,12.08.93,1.11.71,7.77,6,5.12,9.45Z"/><path class="d" d="M1223.35,636.41c-5.87-3.76-10.49-1.94-12.08-.93-.26-.21-.59-.52-.84-.73.22-.69,5.24-4.79,13,.2,1,.65,6.67,5.15,5.57,8.55C1228.53,640.38,1224.22,637,1223.35,636.41Z"/><path class="o" d="M971.77,504.4c-4-4.84-12.78-16.14-18.67-29.32a10.79,10.79,0,0,1,3-2.29c6.72-3.43,15.76.82,20.2,9.5s2.59,18.5-4.13,21.94C972,504.3,971.9,504.34,971.77,504.4Z"/><path class="d" d="M976.29,482.29c-4.44-8.68-12.18-11.77-18.32-10.25-.53.13-.38.2.74-.37,6.72-3.43,15.43.17,19.87,8.85,4.14,8.09,2.09,17.57-3.55,21.55C979.3,497.62,980,489.56,976.29,482.29Z"/><path class="o" d="M953.83,460.88c-.86-3.52-5.08-21.07-5.76-28.29,5.91-.24,11.35,5.42,12.37,13.1C961.34,452.47,958.49,458.64,953.83,460.88Z"/><path class="d" d="M960.44,445.68c-1-7.29-6.77-12.83-12.32-13.16-.07-.52-.16-1-.21-1.43,6.28-.22,13,5.53,14.08,13.22.82,5.63-1.11,10.81-4.61,13.69A16.27,16.27,0,0,0,960.44,445.68Z"/><path class="o" d="M946.9,397.41c4.15,1.83,6.69,7.23,5.84,13.18a13.75,13.75,0,0,1-5.78,9.73C946.32,400.89,946.65,400.88,946.9,397.41Z"/><path class="d" d="M946.84,397.37c0-.56.1-1.08.1-1.51,4,1.78,6.59,7,5.95,12.79C953,403.54,950.48,399,946.84,397.37Z"/><path class="o" d="M947.83,366.69c3,1.93,4.55,6.26,3.64,10.84a12,12,0,0,1-4,6.93Z"/><path class="o" d="M946.92,339.93c2.23,1.74,3.57,5,3.23,8.69a10.87,10.87,0,0,1-2.45,6Z"/><path class="o" d="M906,556.1c3.85-5.14,12.66-5.45,20.76-.93s12.21,12.4,10,18.34C930.67,571.29,917.15,566,906,556.1Z"/><path class="d" d="M926.71,555.18c-6.84-3.82-14.37-3.95-18.87-.79,4.12-4.5,13.63-5,21.35-.64,8,4.47,11.82,14.39,9.64,20.34-.35-.13-1.68-.5-2.08-.65C937.49,564.54,933.93,559.21,926.71,555.18Z"/><path class="o" d="M867.23,517.71c4.75-3.34,13-1.61,18.67,4.55s7,14.07,3.45,18.57C882.55,533.8,875.84,528.49,867.23,517.71Z"/><path class="d" d="M885.9,522.26c-5.35-5.8-13.84-7.13-18.67-4.55-.26-.31-.57-.61-.83-.93,5.14-3.65,14.7-2.56,20.38,3.6a18.18,18.18,0,0,1,4.51,14.35C891.31,530.72,889.45,526.11,885.9,522.26Z"/><path class="o" d="M837.76,490.74c3.81-1.47,9.33-.33,13.68,3.43s6.45,9.09,5.31,13C854.55,505,844.07,494.75,837.76,490.74Z"/><ellipse class="o" cx="1049.1" cy="526.18" rx="15.59" ry="20.14" transform="translate(-5.02 10.13) rotate(-0.55)"/><path class="d" d="M1063.22,525.93c-.1-10.07-5.9-18.33-13.38-19.75.18,0,.35,0,.53,0,8.61-.08,17.43,7,17.3,20.09-.13,12.72-8.3,20.1-16.91,20.19a12.19,12.19,0,0,1-2.4-.24C1056.72,545.74,1063.33,536.82,1063.22,525.93Z"/><path class="d" d="M1143.29,162.33c-1-2.45-3.22-3.87-4.95-3.16a3,3,0,0,0-1.68,2.2c-.1-1.69.54-3.16,1.78-3.67,1.73-.71,3.94.71,4.95,3.16a5.93,5.93,0,0,1,.37,3.52A6.43,6.43,0,0,0,1143.29,162.33Z"/><path class="d" d="M947.84,364.82v1.88a8.79,8.79,0,0,1,3.61,5.87s0-4.86-3.58-7.87"/><path class="d" d="M950,345.29s.13-4.6-3.1-6.79l.06,1.43S949,341,950,345.29Z"/><path class="d" d="M852,494.65s-6.36-5.9-14.12-4l-1.31-.64A14.57,14.57,0,0,1,852,494.65Z"/><rect class="aj" width="1680" height="1000"/><g class="ak"><ellipse class="f" cx="1023.97" cy="402.43" rx="8.46" ry="12.69" transform="translate(411.55 1316.43) rotate(-77.63)"/><ellipse class="h" cx="937.31" cy="405.5" rx="8.66" ry="5.77" transform="translate(-79.97 315.36) rotate(-18.33)"/><ellipse class="i" cx="911.98" cy="417.01" rx="7.86" ry="5.24" transform="translate(-80.96 557.31) rotate(-32.61)"/><ellipse class="j" cx="895.45" cy="429.21" rx="5.68" ry="3.79" transform="translate(-44.54 749.31) rotate(-44.41)"/><ellipse class="k" cx="885.31" cy="442.98" rx="4.72" ry="3.15" transform="translate(42.64 962.52) rotate(-58.24)"/><path class="l" d="M875.49,457.36a2.78,2.78,0,0,1,2.2.1c1.48.91,1.56,3.45.19,5.67-1.17,1.9-3,2.93-4.47,2.62A62.43,62.43,0,0,1,875.49,457.36Z"/><ellipse class="l" cx="1321.26" cy="524.46" rx="6.52" ry="13.03" transform="translate(287.04 1499.74) rotate(-64.97)"/><ellipse class="l" cx="1350.98" cy="533.26" rx="6.18" ry="9.9" transform="translate(646.87 1803.59) rotate(-82.54)"/><ellipse class="l" cx="1374.95" cy="528.63" rx="8.17" ry="5.07" transform="translate(-97.92 553.07) rotate(-21.98)"/><ellipse class="l" cx="1390.16" cy="511.91" rx="7.12" ry="4.75" transform="translate(253.99 1462.54) rotate(-60.13)"/><ellipse class="l" cx="1398.16" cy="494.79" rx="5.11" ry="3.93" transform="translate(436.29 1623.71) rotate(-69.06)"/><ellipse class="l" cx="1405.02" cy="478.99" rx="4.75" ry="3.57" transform="translate(455.45 1619.97) rotate(-69.06)"/><ellipse class="l" cx="1410.68" cy="464.7" rx="3.35" ry="2.89" transform="translate(472.44 1616.08) rotate(-69.06)"/><ellipse class="l" cx="1415.06" cy="452.82" rx="2.81" ry="2.51" transform="matrix(0.36, -0.93, 0.93, 0.36, 486.34, 1612.52)"/><ellipse class="l" cx="1418.45" cy="442.62" rx="2.11" ry="1.69" transform="translate(571.76 1663.7) rotate(-72.59)"/><ellipse class="l" cx="1422.08" cy="432.56" rx="1.94" ry="1.55" transform="translate(509.77 1606.06) rotate(-69.06)"/><ellipse class="l" cx="1427.18" cy="422.58" rx="1.54" ry="1.23" transform="translate(522.38 1604.42) rotate(-69.06)"/><ellipse class="q" cx="1340.08" cy="611.81" rx="6.18" ry="12.27" transform="translate(-14.11 1191.72) rotate(-47.72)"/><ellipse class="q" cx="1366.11" cy="629.57" rx="5.33" ry="10.58" transform="translate(9.99 1280.37) rotate(-50.38)"/><ellipse class="q" cx="1387.04" cy="647.23" rx="5.33" ry="10.58" transform="matrix(0.6, -0.8, 0.8, 0.6, 41, 1375.89)"/><ellipse class="q" cx="1410.94" cy="662.27" rx="4.73" ry="9.4" transform="translate(126.7 1545.49) rotate(-59.66)"/><ellipse class="q" cx="1434.49" cy="674.03" rx="3.74" ry="7.42" transform="translate(193.51 1659.97) rotate(-63.63)"/><ellipse class="q" cx="1456.97" cy="681.28" rx="3.35" ry="6.65" transform="translate(356.31 1854.08) rotate(-71.88)"/><ellipse class="q" cx="1480.27" cy="685.82" rx="3.35" ry="6.65" transform="translate(592.93 2054.82) rotate(-81.91)"/><ellipse class="q" cx="1504.24" cy="687.74" rx="3.09" ry="6.14" transform="translate(792.42 2180.73) rotate(-89.08)"/><ellipse class="q" cx="1526.52" cy="683.96" rx="4.81" ry="2.42" transform="translate(-101.04 297.81) rotate(-10.79)"/><ellipse class="q" cx="1544.02" cy="677.95" rx="4.03" ry="2.03" transform="translate(-138.25 561.35) rotate(-19.74)"/><ellipse class="q" cx="1557.93" cy="668.57" rx="4.03" ry="2.03" transform="translate(-99.67 1024.23) rotate(-35.34)"/><ellipse class="g" cx="1226.53" cy="545.35" rx="8.34" ry="12.51" transform="translate(-19.42 45.95) rotate(-2.13)"/><ellipse class="ai" cx="1299.72" cy="510.49" rx="8.34" ry="12.51" transform="translate(-89.47 368.94) rotate(-15.63)"/><ellipse class="y" cx="1015.12" cy="448.07" rx="6.4" ry="9.6" transform="translate(-82.37 611.59) rotate(-32.29)"/><ellipse class="y" cx="1003.95" cy="422.64" rx="5.32" ry="8.11" transform="translate(-65.65 216.47) rotate(-11.92)"/><ellipse class="y" cx="1000.83" cy="401.46" rx="4.35" ry="6.62" transform="translate(-41.94 126.77) rotate(-7.1)"/><ellipse class="y" cx="1000.33" cy="384.6" rx="3.33" ry="5.42" transform="translate(-30.34 90.83) rotate(-5.12)"/><ellipse class="y" cx="999.22" cy="369.23" rx="2.69" ry="4.38" transform="translate(-5.06 14) rotate(-0.8)"/><ellipse class="y" cx="999.45" cy="355.54" rx="2.01" ry="3.27" transform="translate(-4.87 14) rotate(-0.8)"/><ellipse class="y" cx="999.21" cy="344.37" rx="1.59" ry="2.59" transform="translate(-4.71 13.99) rotate(-0.8)"/><ellipse class="y" cx="998.62" cy="334.27" rx="1.42" ry="2.3" transform="translate(-4.57 13.98) rotate(-0.8)"/><ellipse class="ai" cx="1312.17" cy="535.83" rx="6.32" ry="9.48" transform="translate(-95.83 373.23) rotate(-15.63)"/><ellipse class="ai" cx="1321.64" cy="557.2" rx="4.89" ry="7.34" transform="translate(-101.23 376.56) rotate(-15.63)"/><ellipse class="ai" cx="1326.81" cy="577.08" rx="4.18" ry="6.26" transform="translate(-57.86 157.39) rotate(-6.64)"/><ellipse class="ai" cx="1329.04" cy="597.24" rx="3.59" ry="5.39" transform="translate(-6.87 15.54) rotate(-0.67)"/><ellipse class="ai" cx="1328.63" cy="614.39" rx="4.38" ry="2.92" transform="translate(447.43 1783.24) rotate(-77.8)"/><ellipse class="ai" cx="1327.05" cy="628.12" rx="3.35" ry="2.24" transform="translate(432.77 1792.52) rotate(-77.8)"/><ellipse class="ai" cx="1323.65" cy="638.62" rx="2.96" ry="1.97" transform="translate(265.18 1658.19) rotate(-69.68)"/><ellipse class="g" cx="1236.29" cy="572.92" rx="6.61" ry="12.51" transform="translate(-96.81 854.86) rotate(-36.81)"/><ellipse class="g" cx="1256.32" cy="595.33" rx="5.39" ry="10.2" transform="translate(-57.75 1049.18) rotate(-44.41)"/><ellipse class="g" cx="1276.69" cy="612.91" rx="4.64" ry="8.77" transform="translate(-27.78 1164.22) rotate(-48.56)"/><ellipse class="g" cx="1295.82" cy="629.59" rx="4.2" ry="7.95" transform="translate(-33.82 1184.2) rotate(-48.56)"/><ellipse class="g" cx="1310.64" cy="645.47" rx="3.55" ry="6.72" transform="translate(-121.21 935.7) rotate(-37.68)"/><ellipse class="g" cx="1322.72" cy="660.03" rx="3.08" ry="5.82" transform="translate(-127.58 946.13) rotate(-37.68)"/><ellipse class="g" cx="1331.5" cy="675.04" rx="2.65" ry="5.48" transform="translate(-160.93 710.12) rotate(-28.23)"/><ellipse class="g" cx="1338.36" cy="689.43" rx="2.28" ry="4.72" transform="translate(-158.42 527.62) rotate(-21.08)"/><ellipse class="g" cx="1342.22" cy="703.41" rx="2.03" ry="4.2" transform="translate(-115.22 288.41) rotate(-11.76)"/><ellipse class="g" cx="1343.65" cy="716.25" rx="3.07" ry="1.49" transform="translate(571.61 2028.64) rotate(-87.59)"/><path class="ai" d="M1320.32,650.11l-2.38-2.6c.09-.32.14-.53.21-.75.49-1.53,1.72-2.51,2.74-2.18s1.45,1.83,1,3.37A3.16,3.16,0,0,1,1320.32,650.11Z"/><path class="y" d="M1028.61,461.26c3.39-2.14,8.48-.34,12.17,4-1.16,3-4,10.46-5.87,17.15a16.18,16.18,0,0,1-6.67-6.12C1024.55,470.45,1024.72,463.72,1028.61,461.26Z"/><ellipse class="g" cx="1343.63" cy="725.57" rx="2.08" ry="1.01" transform="translate(385.65 1914.71) rotate(-79.51)"/><path class="i" d="M972.86,506.63c2.88,1,6.73,5,6.57,7.33-.35,5.17-7,8.93-15,8.39s-14-5.17-13.68-10.34a6.39,6.39,0,0,1,.69-2.43C957.78,509.8,964.92,508.67,972.86,506.63Z"/><path class="i" d="M919.11,497.88c8.48,7.37,19.15,10,22.08,10.61a2.77,2.77,0,0,1-.09,1.79c-1.21,2.83-7.72,2.77-14.54-.15s-11.37-7.58-10.16-10.41A3.59,3.59,0,0,1,919.11,497.88Z"/><path class="i" d="M893,474.7c6.88,6.65,17.56,15.48,17.22,15.88-1.78,2.09-7.32.36-12.35-3.92s-8.26-8.65-6.48-10.73A3,3,0,0,1,893,474.7Z"/><path class="i" d="M873.62,458.13c1.32.92,3,2.15,4.4,3.16,2.07,1.55,5.93,5.25,7.53,6.76-1.53,2-5.56,1.57-9-1s-5-6.35-3.47-8.38A3.63,3.63,0,0,1,873.62,458.13Z"/><path class="i" d="M859.46,449.36c1.77,1,5.09,2.84,7.4,4.25-1.4,1.12-4.46,1-7.33-.58s-4.8-4.1-4.48-5.9C856.34,447.78,858.19,448.65,859.46,449.36Z"/><path class="e" d="M1066.16,410.7a21,21,0,0,0-3.86-2.93c-6.89-4.08-14.68-3.65-17.4.94s.67,11.62,7.56,15.7a20.89,20.89,0,0,0,5,2.15Z"/></g><g class="ak"><ellipse class="f" cx="1023.97" cy="402.43" rx="8.46" ry="12.69" transform="translate(411.55 1316.43) rotate(-77.63)"/><ellipse class="h" cx="937.31" cy="405.5" rx="8.66" ry="5.77" transform="translate(-79.97 315.36) rotate(-18.33)"/><ellipse class="i" cx="911.98" cy="417.01" rx="7.86" ry="5.24" transform="translate(-80.96 557.31) rotate(-32.61)"/><ellipse class="j" cx="895.45" cy="429.21" rx="5.68" ry="3.79" transform="translate(-44.54 749.31) rotate(-44.41)"/><ellipse class="k" cx="885.31" cy="442.98" rx="4.72" ry="3.15" transform="translate(42.64 962.52) rotate(-58.24)"/><path class="l" d="M875.49,457.36a2.78,2.78,0,0,1,2.2.1c1.48.91,1.56,3.45.19,5.67-1.17,1.9-3,2.93-4.47,2.62A62.43,62.43,0,0,1,875.49,457.36Z"/><ellipse class="l" cx="1321.26" cy="524.46" rx="6.52" ry="13.03" transform="translate(287.04 1499.74) rotate(-64.97)"/><ellipse class="l" cx="1350.98" cy="533.26" rx="6.18" ry="9.9" transform="translate(646.87 1803.59) rotate(-82.54)"/><ellipse class="l" cx="1374.95" cy="528.63" rx="8.17" ry="5.07" transform="translate(-97.92 553.07) rotate(-21.98)"/><ellipse class="l" cx="1390.16" cy="511.91" rx="7.12" ry="4.75" transform="translate(253.99 1462.54) rotate(-60.13)"/><ellipse class="l" cx="1398.16" cy="494.79" rx="5.11" ry="3.93" transform="translate(436.29 1623.71) rotate(-69.06)"/><ellipse class="l" cx="1405.02" cy="478.99" rx="4.75" ry="3.57" transform="translate(455.45 1619.97) rotate(-69.06)"/><ellipse class="l" cx="1410.68" cy="464.7" rx="3.35" ry="2.89" transform="translate(472.44 1616.08) rotate(-69.06)"/><ellipse class="l" cx="1415.06" cy="452.82" rx="2.81" ry="2.51" transform="matrix(0.36, -0.93, 0.93, 0.36, 486.34, 1612.52)"/><ellipse class="l" cx="1418.45" cy="442.62" rx="2.11" ry="1.69" transform="translate(571.76 1663.7) rotate(-72.59)"/><ellipse class="l" cx="1422.08" cy="432.56" rx="1.94" ry="1.55" transform="translate(509.77 1606.06) rotate(-69.06)"/><ellipse class="l" cx="1427.18" cy="422.58" rx="1.54" ry="1.23" transform="translate(522.38 1604.42) rotate(-69.06)"/><ellipse class="q" cx="1340.08" cy="611.81" rx="6.18" ry="12.27" transform="translate(-14.11 1191.72) rotate(-47.72)"/><ellipse class="q" cx="1366.11" cy="629.57" rx="5.33" ry="10.58" transform="translate(9.99 1280.37) rotate(-50.38)"/><ellipse class="q" cx="1387.04" cy="647.23" rx="5.33" ry="10.58" transform="matrix(0.6, -0.8, 0.8, 0.6, 41, 1375.89)"/><ellipse class="q" cx="1410.94" cy="662.27" rx="4.73" ry="9.4" transform="translate(126.7 1545.49) rotate(-59.66)"/><ellipse class="q" cx="1434.49" cy="674.03" rx="3.74" ry="7.42" transform="translate(193.51 1659.97) rotate(-63.63)"/><ellipse class="q" cx="1456.97" cy="681.28" rx="3.35" ry="6.65" transform="translate(356.31 1854.08) rotate(-71.88)"/><ellipse class="q" cx="1480.27" cy="685.82" rx="3.35" ry="6.65" transform="translate(592.93 2054.82) rotate(-81.91)"/><ellipse class="q" cx="1504.24" cy="687.74" rx="3.09" ry="6.14" transform="translate(792.42 2180.73) rotate(-89.08)"/><ellipse class="q" cx="1526.52" cy="683.96" rx="4.81" ry="2.42" transform="translate(-101.04 297.81) rotate(-10.79)"/><ellipse class="q" cx="1544.02" cy="677.95" rx="4.03" ry="2.03" transform="translate(-138.25 561.35) rotate(-19.74)"/><ellipse class="q" cx="1557.93" cy="668.57" rx="4.03" ry="2.03" transform="translate(-99.67 1024.23) rotate(-35.34)"/><ellipse class="g" cx="1226.53" cy="545.35" rx="8.34" ry="12.51" transform="translate(-19.42 45.95) rotate(-2.13)"/><ellipse class="ai" cx="1299.72" cy="510.49" rx="8.34" ry="12.51" transform="translate(-89.47 368.94) rotate(-15.63)"/><ellipse class="y" cx="1015.12" cy="448.07" rx="6.4" ry="9.6" transform="translate(-82.37 611.59) rotate(-32.29)"/><ellipse class="y" cx="1003.95" cy="422.64" rx="5.32" ry="8.11" transform="translate(-65.65 216.47) rotate(-11.92)"/><ellipse class="y" cx="1000.83" cy="401.46" rx="4.35" ry="6.62" transform="translate(-41.94 126.77) rotate(-7.1)"/><ellipse class="y" cx="1000.33" cy="384.6" rx="3.33" ry="5.42" transform="translate(-30.34 90.83) rotate(-5.12)"/><ellipse class="y" cx="999.22" cy="369.23" rx="2.69" ry="4.38" transform="translate(-5.06 14) rotate(-0.8)"/><ellipse class="y" cx="999.45" cy="355.54" rx="2.01" ry="3.27" transform="translate(-4.87 14) rotate(-0.8)"/><ellipse class="y" cx="999.21" cy="344.37" rx="1.59" ry="2.59" transform="translate(-4.71 13.99) rotate(-0.8)"/><ellipse class="y" cx="998.62" cy="334.27" rx="1.42" ry="2.3" transform="translate(-4.57 13.98) rotate(-0.8)"/><ellipse class="ai" cx="1312.17" cy="535.83" rx="6.32" ry="9.48" transform="translate(-95.83 373.23) rotate(-15.63)"/><ellipse class="ai" cx="1321.64" cy="557.2" rx="4.89" ry="7.34" transform="translate(-101.23 376.56) rotate(-15.63)"/><ellipse class="ai" cx="1326.81" cy="577.08" rx="4.18" ry="6.26" transform="translate(-57.86 157.39) rotate(-6.64)"/><ellipse class="ai" cx="1329.04" cy="597.24" rx="3.59" ry="5.39" transform="translate(-6.87 15.54) rotate(-0.67)"/><ellipse class="ai" cx="1328.63" cy="614.39" rx="4.38" ry="2.92" transform="translate(447.43 1783.24) rotate(-77.8)"/><ellipse class="ai" cx="1327.05" cy="628.12" rx="3.35" ry="2.24" transform="translate(432.77 1792.52) rotate(-77.8)"/><ellipse class="ai" cx="1323.65" cy="638.62" rx="2.96" ry="1.97" transform="translate(265.18 1658.19) rotate(-69.68)"/><ellipse class="g" cx="1236.29" cy="572.92" rx="6.61" ry="12.51" transform="translate(-96.81 854.86) rotate(-36.81)"/><ellipse class="g" cx="1256.32" cy="595.33" rx="5.39" ry="10.2" transform="translate(-57.75 1049.18) rotate(-44.41)"/><ellipse class="g" cx="1276.69" cy="612.91" rx="4.64" ry="8.77" transform="translate(-27.78 1164.22) rotate(-48.56)"/><ellipse class="g" cx="1295.82" cy="629.59" rx="4.2" ry="7.95" transform="translate(-33.82 1184.2) rotate(-48.56)"/><ellipse class="g" cx="1310.64" cy="645.47" rx="3.55" ry="6.72" transform="translate(-121.21 935.7) rotate(-37.68)"/><ellipse class="g" cx="1322.72" cy="660.03" rx="3.08" ry="5.82" transform="translate(-127.58 946.13) rotate(-37.68)"/><ellipse class="g" cx="1331.5" cy="675.04" rx="2.65" ry="5.48" transform="translate(-160.93 710.12) rotate(-28.23)"/><ellipse class="g" cx="1338.36" cy="689.43" rx="2.28" ry="4.72" transform="translate(-158.42 527.62) rotate(-21.08)"/><ellipse class="g" cx="1342.22" cy="703.41" rx="2.03" ry="4.2" transform="translate(-115.22 288.41) rotate(-11.76)"/><ellipse class="g" cx="1343.65" cy="716.25" rx="3.07" ry="1.49" transform="translate(571.61 2028.64) rotate(-87.59)"/><path class="ai" d="M1320.32,650.11l-2.38-2.6c.09-.32.14-.53.21-.75.49-1.53,1.72-2.51,2.74-2.18s1.45,1.83,1,3.37A3.16,3.16,0,0,1,1320.32,650.11Z"/><path class="y" d="M1028.61,461.26c3.39-2.14,8.48-.34,12.17,4-1.16,3-4,10.46-5.87,17.15a16.18,16.18,0,0,1-6.67-6.12C1024.55,470.45,1024.72,463.72,1028.61,461.26Z"/><ellipse class="g" cx="1343.63" cy="725.57" rx="2.08" ry="1.01" transform="translate(385.65 1914.71) rotate(-79.51)"/><path class="i" d="M972.86,506.63c2.88,1,6.73,5,6.57,7.33-.35,5.17-7,8.93-15,8.39s-14-5.17-13.68-10.34a6.39,6.39,0,0,1,.69-2.43C957.78,509.8,964.92,508.67,972.86,506.63Z"/><path class="i" d="M919.11,497.88c8.48,7.37,19.15,10,22.08,10.61a2.77,2.77,0,0,1-.09,1.79c-1.21,2.83-7.72,2.77-14.54-.15s-11.37-7.58-10.16-10.41A3.59,3.59,0,0,1,919.11,497.88Z"/><path class="i" d="M893,474.7c6.88,6.65,17.56,15.48,17.22,15.88-1.78,2.09-7.32.36-12.35-3.92s-8.26-8.65-6.48-10.73A3,3,0,0,1,893,474.7Z"/><path class="i" d="M873.62,458.13c1.32.92,3,2.15,4.4,3.16,2.07,1.55,5.93,5.25,7.53,6.76-1.53,2-5.56,1.57-9-1s-5-6.35-3.47-8.38A3.63,3.63,0,0,1,873.62,458.13Z"/><path class="i" d="M859.46,449.36c1.77,1,5.09,2.84,7.4,4.25-1.4,1.12-4.46,1-7.33-.58s-4.8-4.1-4.48-5.9C856.34,447.78,858.19,448.65,859.46,449.36Z"/><path class="e" d="M1066.16,410.7a21,21,0,0,0-3.86-2.93c-6.89-4.08-14.68-3.65-17.4.94s.67,11.62,7.56,15.7a20.89,20.89,0,0,0,5,2.15Z"/></g><g class="ak"><circle class="r" cx="1204.37" cy="356.78" r="6.45" transform="matrix(0.07, -1, 1, 0.07, 766.64, 1534.14)"/><circle class="r" cx="1236.75" cy="379.64" r="6.45" transform="translate(774.01 1587.75) rotate(-86.11)"/><circle class="r" cx="1283.98" cy="422.69" r="6.45" transform="translate(775.08 1675.01) rotate(-86.11)"/><circle class="s" cx="1216.47" cy="337.93" r="5.96" transform="translate(796.72 1528.64) rotate(-86.11)"/><circle class="s" cx="1254.43" cy="365.59" r="5.96" transform="translate(804.5 1592.3) rotate(-86.11)"/><circle class="s" cx="1304.2" cy="414.72" r="5.96" transform="translate(801.88 1687.75) rotate(-86.11)"/><circle class="t" cx="1229.42" cy="321.1" r="5.23" transform="translate(825.58 1525.88) rotate(-86.11)"/><circle class="t" cx="1273.05" cy="352.11" r="5.23" transform="translate(835.31 1598.31) rotate(-86.11)"/><circle class="t" cx="1325.36" cy="407.31" r="5.23" transform="translate(829 1701.95) rotate(-86.11)"/><circle class="u" cx="1242.17" cy="307.22" r="4" transform="translate(851.31 1525.66) rotate(-86.11)"/><circle class="u" cx="1287.07" cy="341.26" r="4" transform="translate(859.2 1602.18) rotate(-86.11)"/><circle class="u" cx="1340.75" cy="398.03" r="4" transform="translate(852.6 1708.65) rotate(-86.11)"/><circle class="v" cx="1253.25" cy="296.17" r="3.75" transform="translate(872.67 1526.41) rotate(-86.11)"/><circle class="v" cx="1299.52" cy="331.78" r="3.75" transform="translate(880.26 1605.76) rotate(-86.11)"/><circle class="v" cx="1353.1" cy="390.01" r="3.75" transform="translate(872.1 1713.5) rotate(-86.11)"/><circle class="w" cx="1264.23" cy="286.59" r="3.26" transform="matrix(0.07, -1, 1, 0.07, 892.46, 1528.44)"/><circle class="w" cx="1313.43" cy="322.39" r="3.26" transform="translate(902.6 1610.9) rotate(-86.11)"/><circle class="w" cx="1365.54" cy="380.53" r="3.26" transform="translate(893.16 1717.09) rotate(-86.11)"/><circle class="h" cx="1273.64" cy="278.37" r="2.77" transform="translate(909.43 1530.17) rotate(-86.11)"/><circle class="h" cx="1327.25" cy="314.48" r="2.77" transform="translate(923.37 1617.32) rotate(-86.11)"/><circle class="h" cx="1378.09" cy="369.58" r="2.77" transform="translate(915.78 1719.4) rotate(-86.11)"/><circle class="h" cx="1284.42" cy="271.73" r="2.77" transform="translate(926.1 1534.74) rotate(-86.11)"/><circle class="x" cx="1340.97" cy="308.04" r="2.77" transform="translate(942.58 1625) rotate(-86.11)"/><circle class="x" cx="1386.14" cy="359.8" r="2.77" transform="translate(933.04 1718.31) rotate(-86.11)"/><circle class="x" cx="1296.57" cy="266.65" r="2.28" transform="translate(942.49 1542.13) rotate(-86.11)"/><circle class="i" cx="1354.69" cy="301.59" r="2.28" transform="translate(961.8 1632.68) rotate(-86.11)"/><circle class="i" cx="1393.01" cy="345.52" r="2.28" transform="translate(953.7 1711.85) rotate(-86.11)"/><circle class="i" cx="1307.61" cy="262.55" r="1.85" transform="translate(956.87 1549.31) rotate(-86.11)"/><circle class="y" cx="1365.72" cy="297.49" r="1.85" transform="translate(976.18 1639.86) rotate(-86.11)"/><circle class="y" cx="1397.3" cy="332.1" r="1.85" transform="translate(971.09 1703.63) rotate(-86.11)"/><circle class="i" cx="1318.09" cy="260.31" r="1.48" transform="translate(968.88 1557.68) rotate(-86.11)"/><circle class="z" cx="1376.31" cy="293.78" r="1.48" transform="translate(989.74 1646.96) rotate(-86.11)"/><circle class="z" cx="1401.14" cy="319.08" r="1.48" transform="translate(987.65 1695.32) rotate(-86.11)"/><circle class="y" cx="1329.94" cy="259.64" r="1.24" transform="translate(980.59 1568.88) rotate(-86.11)"/><circle class="z" cx="1343.58" cy="261.55" r="0.93" transform="translate(991.39 1584.27) rotate(-86.11)"/><circle class="k" cx="1355.23" cy="263.82" r="0.81" transform="translate(999.99 1598.01) rotate(-86.11)"/><circle class="k" cx="1368.25" cy="267.66" r="0.81" transform="translate(1008.3 1614.57) rotate(-86.11)"/><circle class="k" cx="1388.35" cy="290.18" r="1.24" transform="translate(1004.57 1655.62) rotate(-86.11)"/><circle class="k" cx="1402.04" cy="305.86" r="1.24" transform="translate(1001.68 1683.9) rotate(-86.11)"/></g><path class="al" d="M1223,409.12s73.9-1.86,61.3,13.52-40.3,24.8-40.3,24.8l-29.38-23.64Z"/><path class="al" d="M1259.78,414.95a3,3,0,0,1,2,4.66c-2,2.86-5.82,6.79-12.91,10.21-13,6.25-34.83,2.3-37.62-.1s-2.57-24.36,20.28-19.77c1,.2,5.09,1.37,6.09,1.53Z"/><path class="al" d="M1188.11,354.61s30.79-4.3,28.72,15.23c-1.77,16.75-26.12,29.7-42.85,29.79-20.64.11,9.54-42.63,9.54-42.63Z"/><path class="al" d="M1191.29,355.13a1.92,1.92,0,0,0-2.87-1.15,95.8,95.8,0,0,1-16.38,8.26c-4.47,1.66-4.88,3.92-4.34,5.63a13.92,13.92,0,0,1,.5,7.32c-.34,1.49-.72,3-1.07,4-1.8,5.3-4.15,15.45,1.49,21.63,2.63,2.88,6.78,1.61,11.13-1.37,11.92-8.16,17.11-23.18,13.44-37.15Z"/><path class="am" d="M1217.8,430.77c8.15,1.34,25.77,2.71,38.44-7.25a1.74,1.74,0,0,1,2.73,1.93c-4.42,13.19-17.36,40.14-42.8,8.15A1.75,1.75,0,0,1,1217.8,430.77Z"/><path class="am" d="M1171.75,368.71c-2.24,5-6.94,16.58-6.07,24.73a1.33,1.33,0,0,1-2.31,1c-6.43-7.25-16.22-22.25,6.86-27.62A1.34,1.34,0,0,1,1171.75,368.71Z"/><rect class="an" y="324.97" width="1680" height="809.08"/></g></svg>