<svg width="33" height="25" xmlns="http://www.w3.org/2000/svg">

 <g>
  <title>background</title>
  <rect fill="none" id="canvas_background" height="402" width="582" y="-1" x="-1"/>
 </g>
 <g>
  <title>Layer 1</title>
  <path id="svg_2" fill="#2b174e" d="m18.006001,6.538c0,-1.973 0.661999,-3.554 1.987999,-4.743c1.326,-1.19 2.977001,-1.785 4.947001,-1.785c2.517,0 4.488001,0.799 5.916,2.397c1.427999,1.597 2.143,3.723 2.143,6.375c0,2.719001 -0.424,5.032001 -1.275,6.936001c-0.85,1.903 -1.868999,3.483 -3.061001,4.743c-1.188,1.257999 -2.43,2.243999 -3.723,2.958c-1.291,0.713999 -2.413,1.239 -3.365,1.580999l-3.264999,-5.507999c1.359999,-0.545 2.516998,-1.412001 3.467999,-2.602001c0.953001,-1.19 1.496,-2.464999 1.633001,-3.823999c-1.359001,0 -2.602001,-0.597 -3.724001,-1.786c-1.122,-1.19 -1.681999,-2.771 -1.681999,-4.742zm-17.647001,0c0,-1.973 0.663,-3.554 1.989,-4.743c1.326,-1.191 2.976,-1.785 4.947,-1.785c2.518,0 4.488,0.799 5.916,2.397c1.429,1.597 2.143,3.723 2.143,6.375c0,2.719001 -0.424,5.032001 -1.275,6.936001c-0.85,1.903 -1.869,3.483 -3.06,4.743c-1.188,1.257999 -2.431,2.243999 -3.724,2.958c-1.291,0.713999 -2.412,1.239 -3.365,1.580999l-3.264,-5.507999c1.36,-0.545 2.516,-1.412001 3.467,-2.602001c0.953,-1.19 1.497,-2.464999 1.633,-3.823999c-1.359,0 -2.602,-0.597 -3.723,-1.786c-1.123,-1.19 -1.684,-2.771 -1.684,-4.742z"/>
 </g>
</svg>