<?xml version="1.0" encoding="UTF-8"?>
<svg width="102px" height="94px" viewBox="0 0 102 84" version="1.1" xmlns="http://www.w3.org/2000/svg" xmlns:xlink="http://www.w3.org/1999/xlink">
    <!-- Generator: Sketch 50.2 (55047) - http://www.bohemiancoding.com/sketch -->
    <title>ico_interactive</title>
    <desc>Created with Sketch.</desc>
    <defs></defs>
    <g id="001_animal57_homepage" stroke="none" stroke-width="1" fill="none" fill-rule="evenodd">
        <g id="001_homepage" transform="translate(-955.000000, -1934.000000)">
            <g id="ico_interactive" transform="translate(955.000000, 1935.000000)">
                <circle id="Oval-Copy-2" fill="#2b174e" cx="71" cy="52" r="31"></circle>
                <circle id="Oval-Copy-3" fill="#2b174e" cx="23" cy="29" r="23"></circle>
                <path d="M44.000999,0 C40.700199,0 38.000999,2.6992 38.000999,6 C38.000999,8.9648 40.165099,11.4297 43.000999,11.9062 L43.000999,25.3752 L24.562999,34.594 C24.215339,34.76197 23.996589,35.11353 24.000499,35.50025 L24.000499,57.84425 L12.062499,64.81305 C10.996099,63.13335 9.128899,62.00055 6.999999,62.00055 C3.699199,62.00055 1,64.69975 1,68.00055 C1,71.30135 3.699199,74.00055 6.999999,74.00055 C10.300799,74.00055 12.999999,71.30135 12.999999,68.00055 C12.999999,67.55133 12.937499,67.10993 12.843749,66.68805 L24.937749,59.62555 L43.468749,70.84455 C43.792969,71.04767 44.207029,71.04767 44.531249,70.84455 L63.062249,59.62555 L75.156249,66.68805 C75.062499,67.10993 74.999999,67.55133 74.999999,68.00055 C74.999999,71.30135 77.699199,74.00055 80.999999,74.00055 C84.300799,74.00055 86.999999,71.30135 86.999999,68.00055 C86.999999,64.69975 84.300799,62.00055 80.999999,62.00055 C78.871099,62.00055 77.003899,63.13335 75.937499,64.81305 L63.999499,57.84425 L63.999499,35.50025 C64.003409,35.11353 63.784659,34.76197 63.436999,34.594 L50.436999,28.094 C50.194809,27.97681 49.921379,27.96119 49.667469,28.05103 C49.417469,28.13697 49.210439,28.32056 49.093249,28.56275 C48.851059,29.06275 49.061999,29.66435 49.561999,29.90655 L60.780999,35.53155 L43.999999,44.84405 L27.218999,35.53155 L44.437999,26.90655 C44.785659,26.73858 45.004409,26.38702 45.000499,26.0003 L45.000499,11.9063 C47.836399,11.42974 50.000499,8.9649 50.000499,6.0001 C50.000499,2.6993 47.301299,0.0001 44.000499,0.0001 L44.000999,0 Z M44.000999,2 C46.223699,2 48.000999,3.7773 48.000999,6 C48.000999,8.2227 46.223699,10 44.000999,10 C41.778299,10 40.000999,8.2227 40.000999,6 C40.000999,3.7773 41.778299,2 44.000999,2 Z M26.000999,37.156 L43.000999,46.5935 L43.000999,68.2495 L26.000999,57.9375 L26.000999,37.156 Z M62.000999,37.156 L62.000999,57.937 L45.000999,68.249 L45.000999,46.593 L62.000999,37.156 Z M7.000999,64 C9.223699,64 11.000999,65.7773 11.000999,68 C11.000999,70.2227 9.223699,72 7.000999,72 C4.778299,72 3.000999,70.2227 3.000999,68 C3.000999,65.7773 4.778299,64 7.000999,64 Z M81.000999,64 C83.223699,64 85.000999,65.7773 85.000999,68 C85.000999,70.2227 83.223699,72 81.000999,72 C78.778299,72 77.000999,70.2227 77.000999,68 C77.000999,65.7773 78.778299,64 81.000999,64 Z" id="Fill-1" stroke="#21EAF4" stroke-width="1.2" fill="#21EAF4" stroke-linecap="round" stroke-linejoin="round"></path>
            </g>
        </g>
    </g>
</svg>