<?xml version="1.0" encoding="UTF-8"?>
<svg width="107px" height="94px" viewBox="0 0 107 70" version="1.1" xmlns="http://www.w3.org/2000/svg" xmlns:xlink="http://www.w3.org/1999/xlink">
    <!-- Generator: Sketch 50.2 (55047) - http://www.bohemiancoding.com/sketch -->
    <title>ico_product_development</title>
    <desc>Created with Sketch.</desc>
    <defs></defs>
    <g id="001_animal57_homepage" stroke="none" stroke-width="1" fill="none" fill-rule="evenodd">
        <g id="001_homepage" transform="translate(-1263.000000, -1948.000000)">
            <g id="ico_product_development" transform="translate(1263.000000, 1948.000000)">
                <g id="Group" transform="translate(0.000000, 4.000000)" fill="#2b174e">
                    <circle id="Oval-Copy-2" cx="31" cy="35" r="31"></circle>
                    <circle id="Oval-Copy-3" cx="84" cy="23" r="23"></circle>
                </g>
                <g id="Group-14" transform="translate(22.000000, 0.000000)" fill="#21EAF4">
                    <path d="M63.8683978,0.000421978022 L4.86236059,0.000421978022 C2.17515559,0.00317186813 0,2.22298022 0,4.96196923 L0,48.2147165 C0.00269583,50.9509626 2.17777828,53.1680352 4.86236059,53.170778 L24.8295778,53.170778 L23.1315568,60.9893268 L20.0804458,60.9893268 C19.3365568,60.9893268 18.7328068,61.6047114 18.7328068,62.3629356 C18.7328068,63.1211597 19.3365568,63.7365444 20.0804458,63.7365444 L48.6505858,63.7365444 C49.3944748,63.7365444 49.9982248,63.1211597 49.9982248,62.3629356 C49.9982248,61.6047114 49.3944748,60.9893268 48.6505858,60.9893268 L45.5994748,60.9893268 L43.9014538,53.1813275 L63.8686738,53.1813275 C66.5558788,53.1785776 68.7337258,50.9532835 68.7310348,48.2142945 L68.7310348,4.96154725 C68.7310348,2.22255824 66.5559478,0.00274285714 63.8686738,0 L63.8683978,0.000421978022 Z M4.86236059,2.74763956 L63.8683978,2.74763956 C64.4451964,2.74763956 64.9950298,2.98115516 65.4020608,3.39599473 C65.8090504,3.81357714 66.0354601,4.37399912 66.0354601,4.96195516 L66.0354601,41.1212519 L2.69553427,41.1212519 L2.69553427,4.96195516 C2.69553427,4.37404132 2.92194397,3.81361231 3.32893357,3.39599473 C3.73592317,2.9811622 4.28575657,2.74763956 4.86259657,2.74763956 L4.86236059,2.74763956 Z M42.8392747,60.9890433 L25.8914947,60.9890433 L27.5895157,53.1810462 L41.1390388,53.1810462 L42.8392747,60.9890433 Z M63.8704747,50.4339692 L4.86167404,50.4339692 C4.28487544,50.4339692 3.73235104,50.1977037 3.32532004,49.7828712 C2.92102144,49.3652888 2.69192074,48.802124 2.69461864,48.2141679 L2.69459507,43.8680053 L66.0345493,43.8680053 L66.0345493,48.2141679 C66.0345493,48.7993319 65.8081396,49.3625108 65.40115,49.7801284 C64.9941604,50.1949609 64.441636,50.4284835 63.867487,50.4284835 L63.8704747,50.4339692 Z" id="Fill-1"></path>
                    <path d="M22.1312118,23.3036311 L23.9101008,24.2046948 C24.6216288,24.5645858 25.0690938,25.3035959 25.0664028,26.1112619 L25.0664028,30.0096355 C25.0637049,32.355763 26.6350488,34.3997542 28.8721668,34.9546553 C28.9772814,34.982126 29.0850939,34.9958614 29.1956043,34.9958614 L29.1929064,34.9958614 C29.8748196,34.9931186 30.4489134,34.4738816 30.5297814,33.7842922 C30.6133335,33.0974808 30.1766946,32.4518966 29.5163094,32.2870438 C28.4840004,32.0315502 27.7589484,31.0892592 27.7643304,30.0095581 L27.7643304,26.1111845 C27.7697262,24.4902966 26.9826984,22.9711054 25.6619694,22.0672284 C26.9800074,21.1633515 27.7697124,19.6469032 27.7643304,18.0287581 L27.7643304,14.1331273 C27.7616394,13.0534262 28.4840004,12.1111493 29.5163094,11.8556416 C29.8666983,11.7732223 30.1712712,11.5506992 30.3626634,11.2375071 C30.551337,10.9243221 30.6106356,10.5451959 30.5243856,10.1880478 C30.4381356,9.83090669 30.2144238,9.52321438 29.904462,9.33642581 C29.5945002,9.14686625 29.2225488,9.09466757 28.872153,9.1880724 C26.635035,9.7430157 25.063698,11.7869647 25.066389,14.1330922 L25.066389,18.0314658 C25.0690869,18.8391317 24.6216633,19.5808988 23.910087,19.9407757 L22.13658,20.8446526 L22.13658,20.8419098 C21.6783786,21.0754254 21.39,21.5506922 21.39,22.072679 C21.39,22.5919089 21.6783993,23.0672109 22.13658,23.3007054 L22.1312118,23.3036311 Z" id="Fill-2"></path>
                    <path d="M40.7283655,26.0997596 L40.7283655,29.9981333 C40.7310565,31.0805772 40.0060045,32.0228541 38.9763865,32.275619 C38.3133379,32.4432005 37.8766645,33.0860278 37.9602235,33.7756102 C38.0410846,34.4651715 38.6151853,34.9844366 39.2944075,34.9844366 C39.4049179,34.9844366 39.5127304,34.9707012 39.617845,34.9432304 C41.854963,34.3882871 43.4263,32.3443381 43.423609,29.9982106 L43.423609,26.099837 C43.4209111,25.2949139 43.8683347,24.5531469 44.57722,24.19327 L46.353418,23.2922062 C46.8089284,23.0586906 47.097307,22.5834238 47.097307,22.0641799 C47.097307,21.5422001 46.8089077,21.0669051 46.353418,20.8361535 L44.57722,19.9295337 C43.865692,19.5696427 43.418227,18.8306326 43.420918,18.0229667 L43.420918,14.1218502 C43.4236159,11.7784656 41.852272,9.73447436 39.615154,9.1768304 C38.898175,9.01199876 38.181265,9.46254469 38.006074,10.1905623 C37.8308761,10.918615 38.2621261,11.654826 38.97097,11.8471777 L38.973661,11.8471777 C40.003279,12.1026713 40.72564,13.0449623 40.72564,14.1246634 L40.72564,18.023037 C40.7202511,19.6411821 41.509963,21.1521447 42.82531,22.0560216 C41.507272,22.9626414 40.717567,24.4790897 40.728331,26.0999777 L40.7283655,26.0997596 Z" id="Fill-3"></path>
                </g>
            </g>
        </g>
    </g>
</svg>