<?xml version="1.0" encoding="UTF-8"?>
<svg width="107px" height="94px" viewBox="0 0 107 89" version="1.1" xmlns="http://www.w3.org/2000/svg" xmlns:xlink="http://www.w3.org/1999/xlink">
    <!-- Generator: Sketch 50.2 (55047) - http://www.bohemiancoding.com/sketch -->
    <title>ico_branding</title>
    <desc>Created with Sketch.</desc>
    <defs></defs>
    <g id="001_animal57_homepage" stroke="none" stroke-width="1" fill="none" fill-rule="evenodd">
        <g id="001_homepage" transform="translate(-628.000000, -1931.000000)">
            <g id="ico_branding" transform="translate(628.000000, 1931.000000)">
                <circle id="Oval" fill="#2b174e" cx="31" cy="31" r="31"></circle>
                <circle id="Oval-Copy" fill="#2b174e" cx="90.5" cy="72.5" r="16.5"></circle>
                <path d="M57.003181,14 C45.0188626,14 35.2212487,23.5748096 34.805226,35.5081904 C27.2453053,39.0699206 22,46.782864 22,55.7029585 C22,67.9972311 31.9646577,78 44.2138626,78 C48.9710786,78 53.3830673,76.4904832 56.9999992,73.9267146 C60.6168516,76.4904034 65.0293176,78 69.7861359,78 C82.0345452,78 92,67.9980295 92,55.7029585 C92,46.782864 86.7581135,39.0731942 79.2011361,35.5113842 C78.7878736,23.5788017 68.9906813,14.0007984 57.003181,14.0007984 L57.003181,14 Z M57.003181,17.1937323 C66.8532949,17.1937323 74.9255678,24.6603592 75.9294315,34.2730145 C73.9781019,33.7084983 71.9179541,33.405996 69.7863745,33.405996 C65.0291585,33.405996 60.6171697,34.9155136 57.0002378,37.4792822 C53.3833855,34.9155934 48.9709195,33.405996 44.2141012,33.405996 C42.0856239,33.405996 40.0286579,33.7085303 38.0804306,34.2730145 C39.0840556,24.6574848 47.1565672,17.1937323 57.0034992,17.1937323 L57.003181,17.1937323 Z M44.2138626,36.5996485 C47.9860672,36.5996485 51.4972036,37.6943801 54.4521582,39.5875448 C50.8291013,43.0620062 48.3744081,47.7499262 47.7374081,52.9956316 C42.2717602,49.936036 38.4719533,44.2535877 38.0177488,37.6321821 C39.9597715,36.96474 42.0416352,36.5998082 44.2136239,36.5998082 L44.2138626,36.5996485 Z M69.7861359,36.5996485 C71.9581245,36.5996485 74.0461928,36.9645563 75.9882155,37.6320225 C75.5345599,44.2565419 71.7312609,49.9422638 66.2621926,52.9954719 C65.6283108,47.749527 63.1704993,43.0589721 59.5474424,39.5841913 C62.5023971,37.6941405 66.013613,36.5962951 69.7857381,36.5962951 L69.7861359,36.5996485 Z M34.953976,39.0011755 C35.8923737,46.7546794 40.8080443,53.2915309 47.5881808,56.4884569 C47.7963672,62.5048099 50.3908854,67.9252124 54.4489764,71.8175737 C51.4940218,73.7076245 47.9828058,74.80547 44.2106807,74.80547 C33.6804532,74.80547 25.178634,66.2718172 25.178634,55.70216 C25.178634,48.5100345 29.1154986,42.2597406 34.9507942,39.0005368 L34.953976,39.0011755 Z M79.0523861,39.0042974 C84.8815567,42.2635012 88.8181817,48.5104417 88.8181817,55.7027269 C88.8181817,66.2723841 80.3163634,74.8060369 69.7861359,74.8060369 C66.0139312,74.8060369 62.5027948,73.7113053 59.5478402,71.8181406 C63.6059312,67.9257793 66.2004653,62.5084109 66.4086358,56.4922176 C73.1917155,53.2953713 78.1105679,46.7609151 79.0523861,39.0049361 L79.0523861,39.0042974 Z M56.9999992,41.5399612 C60.5329311,44.7523768 62.8509652,49.2841233 63.1989766,54.3675871 C61.2569538,55.0350293 59.1750902,55.3999611 57.0031015,55.3999611 C54.8311128,55.3999611 52.7430446,55.0350532 50.8010218,54.3675871 C51.1490332,49.283804 53.4670673,44.7552512 56.9999992,41.5399612 Z M50.859965,57.7265951 C52.8113741,58.2911112 54.8746242,58.5936136 57.0031015,58.5936136 C59.1315788,58.5936136 61.1885448,58.2910793 63.1398743,57.729709 C62.6365027,62.5327631 60.3712947,66.7991104 56.9999197,69.8682872 C53.6285446,66.7992701 51.3603059,62.5326832 50.859965,57.729709 L50.859965,57.7265951 Z" id="Fill-1" fill="#21EAF4"></path>
            </g>
        </g>
    </g>
</svg>