<svg xmlns="http://www.w3.org/2000/svg" xmlns:xlink="http://www.w3.org/1999/xlink" viewBox="0 0 1080 265"><defs><style>.a,.aa,.ab,.ac,.b{fill:none;}.b,.c,.d,.e,.f{clip-rule:evenodd;}.c,.x,.y{fill:#1c1b1b;}.aa,.ak,.au,.cd,.d,.f,.k{mix-blend-mode:multiply;}.aq,.e{fill:#21e0ed;}.aa,.au,.f,.k{opacity:0.2;}.g{fill:#150630;}.h{isolation:isolate;}.i{clip-path:url(#a);}.j{clip-path:url(#b);}.l{opacity:0.67;}.m{clip-path:url(#c);}.n{fill:#f8f7f7;}.o{clip-path:url(#d);}.p{clip-path:url(#e);}.q{fill:#c6c6c4;opacity:0.4;}.r{clip-path:url(#f);}.bz,.ca,.s{fill:#fff;}.t{clip-path:url(#h);}.u{clip-path:url(#j);}.v{fill:#2a2929;}.w{clip-path:url(#l);}.ak,.aq,.au,.y{fill-rule:evenodd;}.z{clip-path:url(#n);}.aa{stroke:#000;stroke-width:1.58px;}.aa,.ab,.ac,.bz,.ca{stroke-miterlimit:10;}.ab,.ac{stroke:#fff;}.ab{stroke-width:1.1px;}.ac{stroke-width:0.91px;}.ad{fill:#f2f2f2;}.ae{fill:#311858;}.af{fill:#434a54;}.ag{fill:#13052d;}.ah{fill:#3bcfe3;}.ai{fill:#261349;}.aj{fill:#e6e6e6;}.al{clip-path:url(#p);}.am{clip-path:url(#q);}.an{clip-path:url(#r);}.ao{clip-path:url(#s);}.ap{clip-path:url(#t);}.ar{clip-path:url(#v);}.as{fill:#22b6ce;}.at{clip-path:url(#x);}.av{clip-path:url(#z);}.aw{clip-path:url(#aa);}.ax{clip-path:url(#ab);}.ay{clip-path:url(#ac);}.az{clip-path:url(#ae);}.ba{clip-path:url(#ag);}.bb{clip-path:url(#ai);}.bc{clip-path:url(#aj);}.bd{clip-path:url(#ak);}.be{clip-path:url(#al);}.bf{clip-path:url(#an);}.bg{clip-path:url(#ap);}.bh{clip-path:url(#ar);}.bi{clip-path:url(#as);}.bj{clip-path:url(#at);}.bk{fill:#ddd;}.bl{clip-path:url(#au);}.bm{fill:#18073a;}.bn{clip-path:url(#aw);}.bo{clip-path:url(#ay);}.bp{clip-path:url(#ba);}.bq{clip-path:url(#bc);}.br{clip-path:url(#be);}.bs{clip-path:url(#bg);}.bt{clip-path:url(#bi);}.bu{clip-path:url(#bk);}.bv{clip-path:url(#bm);}.bw{clip-path:url(#bo);}.bx{clip-path:url(#bq);}.by{clip-path:url(#bs);}.bz{stroke:#e6e6e6;}.bz,.ca{stroke-width:2.52px;}.ca{stroke:#e3e6ea;}.cb{clip-path:url(#bu);}.cc{fill:#351d63;}.cd{opacity:0.16;}</style><clipPath id="a"><rect class="a" width="1080" height="265"/></clipPath><clipPath id="b"><path class="b" d="M1026.43,134.29a39.52,39.52,0,1,0-14.86,2c1,1.53,3.23,4.35,7.27,3.88,5-.58,5.93-3.3,7.59-5.86"/></clipPath><clipPath id="c"><path class="b" d="M1029.07,124.46a39.17,39.17,0,1,1,12.66-53.92,39.17,39.17,0,0,1-12.66,53.92"/></clipPath><clipPath id="d"><path class="b" d="M983.36,96.91s-.86,15,16.68,25.17c0,0-.08,7.24,4,8a30.65,30.65,0,0,0,7,.22,36.63,36.63,0,0,0,9.34-1.79l-.75-3.41a28.49,28.49,0,0,0,23.83-33.67c-4.39-24.69-27.92-25.23-27.92-25.23L1010,102Z"/></clipPath><clipPath id="e"><rect class="a" x="239.12" y="-205.35" width="807.13" height="1563.32"/></clipPath><clipPath id="f"><path class="b" d="M1000.38,115.78l-1.75,11.51c-.84,3.57,6.21,5.22,7,1.65L1007.9,117Z"/></clipPath><clipPath id="h"><path class="b" d="M1022,113.09a25.78,25.78,0,1,1,8.34-35.5,25.78,25.78,0,0,1-8.34,35.5"/></clipPath><clipPath id="j"><path class="b" d="M1020,109.85a22,22,0,1,1,7.1-30.26,22,22,0,0,1-7.1,30.26"/></clipPath><clipPath id="l"><path class="b" d="M1010.64,69.31a20.68,20.68,0,1,1-22.75,14.1,22,22,0,1,0,22.75-14.1"/></clipPath><clipPath id="n"><path class="c" d="M1001.12,79.35a25,25,0,0,1,25.51-.52A22,22,0,0,0,989.3,102a25,25,0,0,1,11.82-22.61"/></clipPath><clipPath id="p"><path class="d" d="M1068.61,193.23l-.27-.14L993.67,346.15l9.48,5,74.67-153.07-.15-.08a.23.23,0,0,0,.16-.19l1.77-14.24a.31.31,0,0,0-.49-.27l-2.07,1.9-2.13,1.95-6.26,5.74a.25.25,0,0,0,0,.3"/></clipPath><clipPath id="q"><rect x="296.62" y="-918.05" width="2348.06" height="1212.27" transform="translate(864.74 1063.94) rotate(-54.26)"/></clipPath><clipPath id="r"><path class="b" d="M1074.84,177.6l-10.46,9.58a.28.28,0,0,0,.07.43l4.4,2.69,0,0,4.29,2a.26.26,0,0,0,.38-.18l1.77-14.24a.31.31,0,0,0-.49-.27"/></clipPath><clipPath id="s"><rect class="a" x="289.64" y="-926.19" width="2348.06" height="1212.27" transform="translate(868.45 1054.89) rotate(-54.26)"/></clipPath><clipPath id="t"><path class="b" d="M1074.62,183.56l.71-5.69a.31.31,0,0,0-.49-.27l-4.19,3.84"/></clipPath><clipPath id="v"><polygon class="e" points="989.41 340.41 1064.07 187.34 1073.56 192.38 998.89 345.45 989.41 340.41"/></clipPath><clipPath id="x"><polyline class="b" points="994.07 342.89 989.41 340.41 1064.07 187.34 1068.74 189.82"/></clipPath><clipPath id="z"><path class="f" d="M130.56,201.5l-.31,0,25.58,168.38,10.67-1.24L140.92,200.29l-.17,0a.23.23,0,0,0,0-.25l-6.64-12.72a.31.31,0,0,0-.56.06l-.62,2.74-.64,2.81-1.89,8.28a.25.25,0,0,0,.14.27"/></clipPath><clipPath id="aa"><path class="b" d="M126.81,185.1l-3.16,13.83a.28.28,0,0,0,.31.31l5.15-.28h0l4.65-.82a.26.26,0,0,0,.21-.37L127.36,185a.31.31,0,0,0-.56.06"/></clipPath><clipPath id="ab"><rect class="a" x="-1010.22" y="-1051.49" width="2348.06" height="1212.27" transform="translate(605.94 -273.02) rotate(-88.9)"/></clipPath><clipPath id="ac"><path class="b" d="M130,190.13,127.36,185a.31.31,0,0,0-.56.06l-1.27,5.55"/></clipPath><clipPath id="ae"><polygon class="e" points="149.06 367.61 123.48 199.24 134.15 197.99 159.73 366.37 149.06 367.61"/></clipPath><clipPath id="ag"><polyline class="b" points="154.31 367 149.06 367.61 123.48 199.24 128.73 198.63"/></clipPath><clipPath id="ai"><path class="f" d="M32.22,203.1l-.19.24L168.5,305.21l6.72-8.38L38.74,195l-.11.13a.23.23,0,0,0-.16-.19l-13.66-4.39a.31.31,0,0,0-.36.43l1.48,2.39,1.52,2.45L31.92,203a.25.25,0,0,0,.29.1"/></clipPath><clipPath id="aj"><path class="b" d="M18,194.06l7.47,12.06a.28.28,0,0,0,.44,0l3.46-3.82,0,0,2.73-3.85A.26.26,0,0,0,32,198l-13.66-4.39a.31.31,0,0,0-.36.43"/></clipPath><clipPath id="ak"><rect class="a" x="-1004.64" y="-1454.67" width="1212.27" height="2348.06" transform="translate(83.72 -351.58) rotate(-43.52)"/></clipPath><clipPath id="al"><path class="b" d="M23.83,195.39l-5.45-1.76a.31.31,0,0,0-.36.43l3,4.84"/></clipPath><clipPath id="an"><polygon class="e" points="162.07 308.33 25.59 206.46 32.31 198.08 168.79 299.95 162.07 308.33"/></clipPath><clipPath id="ap"><polyline class="b" points="165.38 304.21 162.07 308.33 25.59 206.46 28.89 202.34"/></clipPath><clipPath id="ar"><path class="b" d="M187.33,59.26a1.77,1.77,0,0,0-.41,0h0c1.12,0,1.61,0,1.55-.59a2.87,2.87,0,0,0-1.59-1.88c0-.92-.91-1.56-2.13-.87-1.26-.51-2.75.7-2.78,2.23l1.29,3.32a2.64,2.64,0,0,1,.44.14,4.06,4.06,0,0,1,3.61-2.3"/></clipPath><clipPath id="as"><path class="b" d="M186.13,93.06A34.73,34.73,0,1,1,173.86,45.5a34.73,34.73,0,0,1,12.27,47.56"/></clipPath><clipPath id="at"><rect class="a" x="38.69" y="-108.07" width="671.26" height="1300.17"/></clipPath><clipPath id="au"><path class="b" d="M180.73,89.88a28.46,28.46,0,1,1-10.05-39,28.46,28.46,0,0,1,10.05,39"/></clipPath><clipPath id="aw"><path class="b" d="M148.78,121.14S131.23,95,157.39,77.42c0,0,19.7,24.73-8.61,43.72"/></clipPath><clipPath id="ay"><path class="b" d="M148.78,121.14S131.23,95,157.39,77.42Z"/></clipPath><clipPath id="ba"><path class="b" d="M113.62,81.8s19.64-24.65,44.28-5c0,0-17.6,26.26-44.28,5"/></clipPath><clipPath id="bc"><path class="b" d="M113.62,81.8s19.64-24.65,44.28-5Z"/></clipPath><clipPath id="be"><path class="b" d="M127.76,42.44S159.21,44.53,157.13,76c0,0-31.61.5-29.37-33.52"/></clipPath><clipPath id="bg"><path class="b" d="M127.76,42.44S159.21,44.53,157.13,76Z"/></clipPath><clipPath id="bi"><path class="b" d="M196.18,96.67s-29.94,9.84-39.78-20.08c0,0,29.12-12.31,39.78,20.08"/></clipPath><clipPath id="bk"><path class="b" d="M196.18,96.67s-29.94,9.84-39.78-20.08Z"/></clipPath><clipPath id="bm"><path class="b" d="M199.38,66.22s-16,27.13-43.15,11.13c0,0,13.79-28.45,43.15-11.13"/></clipPath><clipPath id="bo"><path class="b" d="M199.38,66.22s-16,27.13-43.15,11.13Z"/></clipPath><clipPath id="bq"><path class="b" d="M160.67,33s20,24.34-4.3,44.36c0,0-22-22.68,4.3-44.36"/></clipPath><clipPath id="bs"><path class="b" d="M160.67,33s20,24.34-4.3,44.36Z"/></clipPath><clipPath id="bu"><path class="g" d="M245.89,144.7H369.24a12.49,12.49,0,0,1,12.49,12.49V338.82a12.49,12.49,0,0,1-12.49,12.49H245.89a.58.58,0,0,1-.58-.58V145.29a.58.58,0,0,1,.58-.58Z" transform="translate(-84.41 209.85) rotate(-32.87)"/></clipPath></defs><title>our_work_illustration</title><g class="h"><g class="i"><g class="j"><g class="k"><rect class="l" x="971.98" y="54.93" width="83.8" height="87.67"/></g></g><g class="m"><rect class="n" x="966.87" y="49.6" width="83.15" height="83.15"/></g><g class="o"><g class="p"><rect class="q" x="980.95" y="63.75" width="65.39" height="69"/></g></g><g class="r"><g class="p"><rect class="s" x="996.16" y="113.38" width="14.15" height="19.96"/></g></g><g class="t"><g class="p"><rect class="n" x="980.25" y="62.98" width="56.38" height="56.38"/></g></g><g class="u"><g class="p"><rect class="v" x="984.06" y="66.79" width="48.77" height="48.77"/></g></g><g class="w"><g class="p"><rect class="x" x="984.06" y="66.91" width="48.76" height="48.65"/></g></g><path class="y" d="M1001.12,79.35a25,25,0,0,1,25.51-.52A22,22,0,0,0,989.3,102a25,25,0,0,1,11.82-22.61"/><g class="z"><g class="p"><rect class="x" x="984.06" y="66.79" width="44.96" height="37.57"/></g></g><path class="aa" d="M780.77,115.49C832.68,55.11,895,42.37,922.07,67.76c38.37,36-21.39,60.32,17.88,131.39"/><path class="ab" d="M780.77,115.49c51.91-60.38,109.28-71.71,136.35-46.31,38.37,36-16.45,58.91,22.82,130"/><path class="s" d="M629.45,208.9H636a0,0,0,0,1,0,0v6.57a0,0,0,0,1,0,0h-6.5a.8.8,0,0,1-.8-.8v-5a.8.8,0,0,1,.8-.8Z" transform="translate(-30.15 134.81) rotate(-11.89)"/><path class="aa" d="M633.05,211.9s-43,14.85-41.87-28.9c0,0-.83-41,67.09-35.68"/><path class="ac" d="M637.77,209.9S591.28,230.07,588.42,183c0,0-3.68-42.15,66.79-36.44"/><rect class="k" x="631.18" y="162.46" width="278.6" height="173.76" rx="7.8" ry="7.8" transform="translate(-34.84 164.07) rotate(-11.89)"/><rect class="s" x="627.04" y="158.84" width="278.6" height="173.76" rx="7.8" ry="7.8" transform="translate(-34.18 163.14) rotate(-11.89)"/><rect class="ad" x="635.5" y="171.74" width="254.08" height="96.13" rx="2.02" ry="2.02" transform="translate(-28.93 161.8) rotate(-11.89)"/><rect class="v" x="636.41" y="201.86" width="15.12" height="14.02" rx="1.21" ry="1.21" transform="translate(-29.22 137.14) rotate(-11.89)"/><rect class="v" x="653" y="198.36" width="15.12" height="14.02" rx="1.21" ry="1.21" transform="translate(-28.14 140.49) rotate(-11.89)"/><rect class="v" x="669.59" y="194.87" width="15.12" height="14.02" rx="1.21" ry="1.21" transform="translate(-27.06 143.83) rotate(-11.89)"/><rect class="v" x="686.18" y="191.38" width="15.12" height="14.02" rx="1.21" ry="1.21" transform="translate(-25.99 147.17) rotate(-11.89)"/><rect class="v" x="702.77" y="187.89" width="15.12" height="14.02" rx="1.21" ry="1.21" transform="translate(-24.91 150.51) rotate(-11.89)"/><rect class="v" x="719.36" y="184.39" width="15.12" height="14.02" rx="1.21" ry="1.21" transform="translate(-23.84 153.86) rotate(-11.89)"/><rect class="v" x="735.96" y="180.9" width="15.12" height="14.02" rx="1.21" ry="1.21" transform="translate(-22.76 157.2) rotate(-11.89)"/><rect class="v" x="752.55" y="177.41" width="15.12" height="14.02" rx="1.21" ry="1.21" transform="translate(-21.69 160.54) rotate(-11.89)"/><rect class="v" x="769.14" y="173.92" width="15.12" height="14.02" rx="1.21" ry="1.21" transform="matrix(0.98, -0.21, 0.21, 0.98, -20.61, 163.89)"/><rect class="v" x="785.73" y="170.42" width="15.12" height="14.02" rx="1.21" ry="1.21" transform="translate(-19.54 167.23) rotate(-11.89)"/><rect class="v" x="802.32" y="166.93" width="15.12" height="14.02" rx="1.21" ry="1.21" transform="matrix(0.98, -0.21, 0.21, 0.98, -18.46, 170.57)"/><rect class="v" x="818.91" y="163.44" width="15.12" height="14.02" rx="1.21" ry="1.21" transform="translate(-17.39 173.91) rotate(-11.89)"/><rect class="v" x="835.5" y="159.95" width="15.12" height="14.02" rx="1.21" ry="1.21" transform="translate(-16.31 177.26) rotate(-11.89)"/><rect class="v" x="853.83" y="155.43" width="21.38" height="14.02" rx="1.44" ry="1.44" transform="translate(-14.92 181.58) rotate(-11.89)"/><rect class="v" x="863.56" y="171.6" width="15.12" height="14.02" rx="1.21" ry="1.21" transform="translate(1760.36 173.93) rotate(168.11)"/><rect class="v" x="847.02" y="175.08" width="15.12" height="14.02" rx="1.21" ry="1.21" transform="translate(1728.34 184.23) rotate(168.11)"/><rect class="v" x="830.47" y="178.56" width="15.12" height="14.02" rx="1.21" ry="1.21" transform="translate(1696.32 194.53) rotate(168.11)"/><rect class="v" x="813.93" y="182.05" width="15.12" height="14.02" rx="1.21" ry="1.21" transform="translate(1664.3 204.83) rotate(168.11)"/><rect class="v" x="797.38" y="185.53" width="15.12" height="14.02" rx="1.21" ry="1.21" transform="translate(1632.29 215.13) rotate(168.11)"/><rect class="v" x="780.84" y="189.01" width="15.12" height="14.02" rx="1.21" ry="1.21" transform="translate(1600.27 225.43) rotate(168.11)"/><rect class="v" x="764.29" y="192.5" width="15.12" height="14.02" rx="1.21" ry="1.21" transform="translate(1568.25 235.73) rotate(168.11)"/><rect class="v" x="747.75" y="195.98" width="15.12" height="14.02" rx="1.21" ry="1.21" transform="translate(1536.23 246.03) rotate(168.11)"/><rect class="v" x="731.2" y="199.46" width="15.12" height="14.02" rx="1.21" ry="1.21" transform="translate(1504.21 256.33) rotate(168.11)"/><rect class="v" x="714.66" y="202.95" width="15.12" height="14.02" rx="1.21" ry="1.21" transform="translate(1472.2 266.63) rotate(168.11)"/><rect class="v" x="698.11" y="206.43" width="15.12" height="14.02" rx="1.21" ry="1.21" transform="translate(1440.18 276.93) rotate(168.11)"/><rect class="v" x="681.57" y="209.91" width="15.12" height="14.02" rx="1.21" ry="1.21" transform="translate(1408.16 287.23) rotate(168.11)"/><rect class="v" x="665.02" y="213.4" width="15.12" height="14.02" rx="1.21" ry="1.21" transform="translate(1376.14 297.53) rotate(168.11)"/><rect class="v" x="639.87" y="217.88" width="22.83" height="14.02" rx="1.49" ry="1.49" transform="translate(1334.93 310.79) rotate(168.11)"/><rect class="v" x="856.08" y="189.56" width="26.26" height="14.02" rx="1.6" ry="1.6" transform="translate(1760.28 209.86) rotate(168.11)"/><rect class="v" x="643.37" y="234.25" width="27.15" height="14.02" rx="1.63" ry="1.63" transform="translate(1349.49 342.01) rotate(168.11)"/><rect class="v" x="838.4" y="194.45" width="15.12" height="14.02" rx="1.21" ry="1.21" transform="translate(1715.29 224.34) rotate(168.11)"/><rect class="v" x="821.86" y="197.94" width="15.12" height="14.02" rx="1.21" ry="1.21" transform="translate(1683.27 234.64) rotate(168.11)"/><rect class="v" x="805.31" y="201.42" width="15.12" height="14.02" rx="1.21" ry="1.21" transform="translate(1651.25 244.94) rotate(168.11)"/><rect class="v" x="788.77" y="204.9" width="15.12" height="14.02" rx="1.21" ry="1.21" transform="translate(1619.24 255.24) rotate(168.11)"/><rect class="v" x="772.22" y="208.39" width="15.12" height="14.02" rx="1.21" ry="1.21" transform="translate(1587.22 265.54) rotate(168.11)"/><rect class="v" x="755.68" y="211.87" width="15.12" height="14.02" rx="1.21" ry="1.21" transform="translate(1555.2 275.84) rotate(168.11)"/><rect class="v" x="739.13" y="215.35" width="15.12" height="14.02" rx="1.21" ry="1.21" transform="translate(1523.18 286.14) rotate(168.11)"/><rect class="v" x="722.59" y="218.84" width="15.12" height="14.02" rx="1.21" ry="1.21" transform="translate(1491.16 296.44) rotate(168.11)"/><rect class="v" x="706.04" y="222.32" width="15.12" height="14.02" rx="1.21" ry="1.21" transform="translate(1459.14 306.74) rotate(168.11)"/><rect class="v" x="689.5" y="225.8" width="15.12" height="14.02" rx="1.21" ry="1.21" transform="translate(1427.13 317.04) rotate(168.11)"/><rect class="v" x="672.95" y="229.29" width="15.12" height="14.02" rx="1.21" ry="1.21" transform="translate(1395.11 327.34) rotate(168.11)"/><rect class="v" x="867.31" y="222.76" width="22.07" height="14.02" rx="1.47" ry="1.47" transform="translate(1785.18 273.67) rotate(168.11)"/><rect class="v" x="846.57" y="227.53" width="18.2" height="14.02" rx="1.33" ry="1.33" transform="translate(1741.3 287.79) rotate(168.11)"/><rect class="v" x="821.39" y="232.37" width="22.62" height="14.02" rx="1.48" ry="1.48" transform="translate(1696.85 302.09) rotate(168.11)"/><rect class="v" x="696.91" y="258.63" width="22.07" height="14.02" rx="1.47" ry="1.47" transform="translate(1455.43 379.75) rotate(168.11)"/><rect class="v" x="676.17" y="263.41" width="18.2" height="14.02" rx="1.33" ry="1.33" transform="translate(1411.55 393.86) rotate(168.11)"/><rect class="v" x="721.02" y="245.45" width="99.05" height="14.02" rx="1.18" ry="1.18" transform="translate(1576.58 340.78) rotate(168.11)"/><rect class="ad" x="737.43" y="272.49" width="85.52" height="51.57" rx="1.95" ry="1.95" transform="translate(1605.1 429.43) rotate(168.11)"/><rect class="v" x="851.29" y="207.24" width="34.69" height="14.02" rx="1.84" ry="1.84" transform="translate(1762.77 244.97) rotate(168.11)"/><rect class="v" x="646.81" y="250.17" width="35.86" height="14.02" rx="0.95" ry="0.95" transform="translate(1368.21 371.9) rotate(168.11)"/><rect class="v" x="834.01" y="212.94" width="15.12" height="14.02" rx="1.21" ry="1.21" transform="translate(1710.4 261.82) rotate(168.11)"/><rect class="v" x="817.46" y="216.42" width="15.12" height="14.02" rx="1.21" ry="1.21" transform="translate(1678.38 272.12) rotate(168.11)"/><rect class="v" x="800.92" y="219.91" width="15.12" height="14.02" rx="1.21" ry="1.21" transform="translate(1646.36 282.42) rotate(168.11)"/><rect class="v" x="784.37" y="223.39" width="15.12" height="14.02" rx="1.21" ry="1.21" transform="translate(1614.35 292.72) rotate(168.11)"/><rect class="v" x="767.83" y="226.87" width="15.12" height="14.02" rx="1.21" ry="1.21" transform="translate(1582.33 303.02) rotate(168.11)"/><rect class="v" x="751.28" y="230.36" width="15.12" height="14.02" rx="1.21" ry="1.21" transform="translate(1550.31 313.32) rotate(168.11)"/><rect class="v" x="734.74" y="233.84" width="15.12" height="14.02" rx="1.21" ry="1.21" transform="translate(1518.29 323.62) rotate(168.11)"/><rect class="v" x="718.19" y="237.32" width="15.12" height="14.02" rx="1.21" ry="1.21" transform="translate(1486.27 333.92) rotate(168.11)"/><rect class="v" x="701.65" y="240.81" width="15.12" height="14.02" rx="1.21" ry="1.21" transform="translate(1454.26 344.22) rotate(168.11)"/><rect class="v" x="685.1" y="244.29" width="15.12" height="14.02" rx="1.21" ry="1.21" transform="translate(1422.24 354.52) rotate(168.11)"/><path class="ae" d="M881.07,134l-262,55.16a4.28,4.28,0,0,1-4.76-2.48L568.22,85a4.35,4.35,0,0,1,3-6.09L880.46,13.77a4.35,4.35,0,0,1,5.16,4.39l-1.19,111.61A4.28,4.28,0,0,1,881.07,134Z"/><polygon class="af" points="568.42 86.41 568 84.24 885.51 17.22 885.89 19.19 568.42 86.41"/><path class="ag" d="M880.85,132.88,618.84,188a4.25,4.25,0,0,1-4.74-2.38L568.67,87.13a4.25,4.25,0,0,1,3-5.94L880.94,16.07a4.25,4.25,0,0,1,5.13,4.23l-1.85,108.48A4.25,4.25,0,0,1,880.85,132.88Z"/><path class="ah" d="M873.88,127l-251,52.85a3.85,3.85,0,0,1-4.39-2L580.71,93.48c-1.46-3.22-.58-4.35,3.06-5.07l289-60.84c3.79-.84,4.91-.87,4.85,3.4l-.54,92.39A3.85,3.85,0,0,1,873.88,127Z"/><rect class="ai" x="648.02" y="156.97" width="203.8" height="7.82" rx="3.91" ry="3.91" transform="translate(-17.06 157.94) rotate(-11.89)"/><rect class="ae" x="652.51" y="158.49" width="194.95" height="2.22" rx="1.11" ry="1.11" transform="translate(-16.79 157.93) rotate(-11.89)"/><rect class="k" x="926.39" y="176.34" width="38.74" height="62.84" rx="19.21" ry="19.21" transform="translate(-3.94 396.7) rotate(-23.64)"/><rect class="s" x="924.57" y="175.9" width="37.39" height="61.59" rx="18.7" ry="18.7" transform="translate(-3.72 395.62) rotate(-23.64)"/><rect class="aj" x="932.36" y="181.36" width="4.85" height="11.93" rx="2.09" ry="2.09" transform="translate(3.34 390.59) rotate(-23.64)"/><g class="k"><path class="ak" d="M1068.61,193.23l-.27-.14L993.67,346.15l9.48,5,74.67-153.07-.15-.08a.23.23,0,0,0,.16-.19l1.77-14.24a.31.31,0,0,0-.49-.27l-2.07,1.9-2.13,1.95-6.26,5.74a.25.25,0,0,0,0,.3"/><g class="al"><rect x="296.62" y="-918.05" width="2348.06" height="1212.27" transform="translate(864.74 1063.94) rotate(-54.26)"/><g class="am"><rect class="k" x="944.79" y="243.54" width="189.48" height="46.67" transform="translate(215.69 954.72) rotate(-54.26)"/></g></g></g><g class="an"><g class="ao"><rect class="s" x="1061.8" y="175.82" width="21.62" height="17.58" transform="translate(296.21 947.36) rotate(-54.26)"/></g></g><g class="ap"><g class="ao"><rect class="v" x="1067.65" y="174.56" width="13" height="11.67" transform="translate(300.27 946.85) rotate(-54.26)"/></g></g><polygon class="aq" points="989.41 340.41 1064.07 187.34 1073.56 192.38 998.89 345.45 989.41 340.41"/><g class="ar"><g class="ao"><rect class="as" x="943.22" y="243.06" width="176.52" height="46.67" transform="translate(212.73 947.99) rotate(-54.26)"/></g></g><g class="at"><g class="ao"><rect class="ah" x="940.9" y="243.13" width="175.78" height="41.26" transform="translate(213.74 944.7) rotate(-54.26)"/></g></g><path class="au" d="M130.56,201.5l-.31,0,25.58,168.38,10.67-1.24L140.92,200.29l-.17,0a.23.23,0,0,0,0-.25l-6.64-12.72a.31.31,0,0,0-.56.06l-.62,2.74-.64,2.81-1.89,8.28a.25.25,0,0,0,.14.27"/><g class="aw"><g class="ax"><rect class="s" x="118.15" y="183.34" width="21.62" height="17.58" transform="translate(-65.62 317.38) rotate(-88.9)"/></g></g><g class="ay"><g class="ax"><rect class="v" x="121.33" y="181.96" width="13" height="11.67" transform="translate(-62.4 311.99) rotate(-88.9)"/></g></g><polygon class="aq" points="149.06 367.61 123.48 199.24 134.15 197.99 159.73 366.37 149.06 367.61"/><g class="az"><g class="ax"><rect class="as" x="53.35" y="259.47" width="176.52" height="46.67" transform="translate(-143.87 418.95) rotate(-88.9)"/></g></g><g class="ba"><g class="ax"><rect class="ah" x="50" y="261.54" width="175.78" height="41.26" transform="translate(-146.87 414.61) rotate(-88.9)"/></g></g><path class="au" d="M32.22,203.1l-.19.24L168.5,305.21l6.72-8.38L38.74,195l-.11.13a.23.23,0,0,0-.16-.19l-13.66-4.39a.31.31,0,0,0-.36.43l1.48,2.39,1.52,2.45L31.92,203a.25.25,0,0,0,.29.1"/><g class="bc"><g class="bd"><rect class="s" x="15.7" y="186.74" width="17.58" height="21.62" transform="translate(-129.31 71.18) rotate(-43.52)"/></g></g><g class="be"><g class="bd"><rect class="v" x="14.81" y="188.77" width="11.67" height="13" transform="translate(-128.8 67.9) rotate(-43.52)"/></g></g><polygon class="aq" points="162.07 308.33 25.59 206.46 32.31 198.08 168.79 299.95 162.07 308.33"/><g class="bf"><g class="bd"><rect class="as" x="73.86" y="164.94" width="46.67" height="176.52" transform="translate(-147.65 136.54) rotate(-43.52)"/></g></g><g class="bg"><g class="bd"><rect class="ah" x="73.47" y="167.47" width="41.26" height="175.78" transform="translate(-149.99 135) rotate(-43.52)"/></g></g><circle class="k" cx="161.35" cy="79.1" r="35.12"/><g class="bi"><g class="bj"><rect class="bk" x="119.48" y="38.68" width="73.47" height="73.47"/></g></g><g class="bl"><g class="bj"><rect class="bm" x="125.75" y="44.95" width="60.93" height="60.93"/></g></g><g class="bn"><g class="bj"><rect class="as" x="141.02" y="75.42" width="25.04" height="47.72"/></g></g><g class="bo"><g class="bj"><rect class="ah" x="141.02" y="75.42" width="18.37" height="47.72"/></g></g><g class="bp"><g class="bj"><rect class="as" x="111.62" y="67.2" width="48.28" height="24.9"/></g></g><g class="bq"><g class="bj"><rect class="ah" x="111.62" y="67.2" width="48.28" height="16.61"/></g></g><g class="br"><g class="bj"><rect class="as" x="125.65" y="40.44" width="33.57" height="37.52"/></g></g><g class="bs"><g class="bj"><rect class="ah" x="125.77" y="40.44" width="33.46" height="37.52"/></g></g><g class="bt"><g class="bj"><rect class="as" x="154.4" y="72.29" width="43.78" height="27.92"/></g></g><g class="bu"><g class="bj"><rect class="ah" x="154.4" y="74.59" width="43.78" height="25.63"/></g></g><g class="bv"><g class="bj"><rect class="as" x="154.23" y="58.63" width="47.15" height="25.77"/></g></g><g class="bw"><g class="bj"><rect class="ah" x="154.23" y="64.22" width="47.15" height="20.18"/></g></g><g class="bx"><g class="bj"><rect class="as" x="145.74" y="31" width="24.67" height="48.35"/></g></g><g class="by"><g class="bj"><rect class="ah" x="154.37" y="31" width="16.04" height="48.35"/></g></g><rect class="k" x="317.23" y="145.89" width="221.96" height="159.31" transform="translate(57.11 536.23) rotate(-67.71)"/><rect class="s" x="343.21" y="106.44" width="159.31" height="221.96" transform="translate(114.04 -144.13) rotate(22.29)"/><line class="bz" x1="400.1" y1="112.61" x2="513.75" y2="159.19"/><line class="bz" x1="395.64" y1="123.51" x2="509.28" y2="170.09"/><line class="bz" x1="391.49" y1="133.63" x2="505.13" y2="180.2"/><line class="bz" x1="387.02" y1="144.52" x2="500.67" y2="191.1"/><line class="bz" x1="382.24" y1="156.2" x2="495.88" y2="202.78"/><line class="bz" x1="377.77" y1="167.1" x2="491.42" y2="213.68"/><line class="bz" x1="373.3" y1="177.99" x2="486.95" y2="224.57"/><line class="bz" x1="368.84" y1="188.89" x2="482.48" y2="235.47"/><line class="bz" x1="364.37" y1="199.79" x2="478.02" y2="246.37"/><line class="bz" x1="359.91" y1="210.69" x2="473.55" y2="257.27"/><line class="bz" x1="355.44" y1="221.58" x2="469.08" y2="268.16"/><line class="bz" x1="350.97" y1="232.48" x2="464.62" y2="279.06"/><line class="bz" x1="346.19" y1="244.16" x2="459.83" y2="290.74"/><line class="bz" x1="342.04" y1="254.28" x2="455.68" y2="300.85"/><line class="ca" x1="337.57" y1="265.17" x2="451.22" y2="311.75"/><path class="g" d="M245.89,144.7H369.24a12.49,12.49,0,0,1,12.49,12.49V338.82a12.49,12.49,0,0,1-12.49,12.49H245.89a.58.58,0,0,1-.58-.58V145.29a.58.58,0,0,1,.58-.58Z" transform="translate(-84.41 209.85) rotate(-32.87)"/><g class="cb"><rect class="cc" x="240.76" y="205.13" width="137.14" height="74.12" transform="translate(-81.92 206.65) rotate(-32.87)"/><rect class="cd" x="350.8" y="118.59" width="3.27" height="209.82" transform="translate(-64.88 227.05) rotate(-32.87)"/><rect class="ah" x="345.39" y="122.49" width="1.99" height="209.82" transform="translate(760.74 230.41) rotate(147.13)"/><rect class="as" x="347.06" y="121.41" width="1.99" height="209.82" transform="translate(-67.11 225.13) rotate(-32.87)"/><rect class="ah" x="348.73" y="120.33" width="1.99" height="209.82" transform="translate(765.71 224.63) rotate(147.13)"/><rect class="as" x="350.4" y="119.25" width="1.99" height="209.82" transform="translate(-65.41 226.6) rotate(-32.87)"/></g></g></g></svg>