<?xml version="1.0" encoding="UTF-8"?>
<svg width="113px" height="94px" viewBox="0 0 113 94" version="1.1" xmlns="http://www.w3.org/2000/svg" xmlns:xlink="http://www.w3.org/1999/xlink">
    <!-- Generator: Sketch 50.2 (55047) - http://www.bohemiancoding.com/sketch -->
    <title>ico_design_services</title>
    <desc>Created with Sketch.</desc>
    <defs></defs>
    <g id="001_animal57_homepage" stroke="none" stroke-width="1" fill="none" fill-rule="evenodd">
        <g id="001_homepage" transform="translate(-321.000000, -1924.000000)">
            <g id="ico_design_services" transform="translate(321.000000, 1924.000000)">
                <circle id="Oval" fill="#2b174e" cx="31" cy="63" r="31"></circle>
                <circle id="Oval-Copy" fill="#2b174e" cx="90" cy="23" r="23"></circle>
                <path d="M70.97433,44.3315483 L85.0210443,30.2864857 C85.2707062,30.0338238 85.4193224,29.7038785 85.4520177,29.3530906 C85.7878803,29.3203921 86.1177929,29.1806872 86.3763419,28.9220745 C90.0470076,25.2510451 90.0470076,19.279173 86.3763419,15.6113396 C84.5989885,13.8308424 82.2360574,12.8528549 79.7215579,12.8528549 C77.2070583,12.8528549 74.8441272,13.8338101 73.0667738,15.6113396 C72.8022442,15.8758954 72.6625532,16.2117837 72.632833,16.5566057 C72.2880604,16.5893042 71.9551728,16.723066 71.7054653,16.9727602 L57.6617946,31.0178228 L38.0720266,11.4291572 C37.5013622,10.8554609 36.4908297,10.8584362 35.9201652,11.4291572 L21.4458316,25.9110116 C20.8513895,26.5055126 20.8513895,27.4686232 21.4458316,28.0630862 L41.0295139,47.6547956 L28.3318503,60.3537177 C28.1772992,60.5082841 28.0554357,60.6955567 27.9811276,60.903634 L23.2909502,73.6375602 C22.3398428,76.2117401 23.2017819,77.5998842 23.7991991,78.197391 C24.2034197,78.604627 24.973246,79.1307861 26.2304585,79.1307861 C26.8249006,79.1307861 27.5292907,79.0118859 28.3556128,78.7057207 L41.0586026,74.0270278 C41.2696267,73.9556877 41.4687658,73.8338122 41.6352095,73.6673519 L41.638177,73.6643765 L54.3381233,60.9654545 L73.9248553,80.5541223 C74.2101875,80.8394828 74.5965729,81 75.000824,81 C75.4050751,81 75.7914605,80.8394828 76.0767927,80.5541223 L90.5541684,66.0722657 C91.1486105,65.4777647 91.1486105,64.514654 90.5541684,63.9201911 L70.97433,44.3315483 Z M79.7214742,15.8967077 C81.4215976,15.8967077 83.0205993,16.5595735 84.2243968,17.7634218 C86.7061783,20.248417 86.7061783,24.2880562 84.2243968,26.7701597 C84.126311,26.8682552 84.0490354,26.9812047 83.9836449,27.0971372 L74.8918195,18.0044107 C75.0077329,17.9390137 75.1206788,17.8617304 75.2187646,17.7636349 C76.4195186,16.5597941 78.0185963,15.8969208 79.7216872,15.8969208 L79.7214742,15.8967077 Z M39.7749653,42.0935611 L43.6893427,38.175828 C44.2837848,37.581327 44.2837848,36.6182164 43.6893427,36.0237534 C43.0949006,35.4292904 42.1318854,35.4292524 41.5374814,36.0237534 L37.6231039,39.9414865 L32.3474256,34.6652853 L36.261803,30.7505199 C36.8562451,30.1560189 36.8562451,29.1929083 36.261803,28.5984453 C35.6673609,28.0039823 34.7043457,28.0039443 34.1099416,28.5984453 L30.1955642,32.5132107 L24.6732074,26.9903058 L36.9957535,14.6574061 L55.5065853,33.1731163 L43.1809949,45.4999283 L39.7749653,42.0935611 Z M40.5626344,70.4363254 L35.5574509,65.4276782 C34.9630088,64.8331772 33.9999936,64.8331772 33.4055896,65.4276782 C32.8111855,66.0221792 32.8111475,66.9852899 33.4055896,67.5797528 L37.8074666,71.9820661 L27.3064805,75.8522392 C26.4356466,76.1732659 26.0106158,76.0811211 25.9600929,76.0543657 C25.9184801,75.9889687 25.8233694,75.5639033 26.1473394,74.6899621 L26.1473394,74.6869867 L30.721557,62.2680984 L44.230325,48.7579917 C44.2392426,48.7490732 44.2511276,48.7431301 44.2600452,48.7342116 C44.2689628,48.7252932 44.2749053,48.7134069 44.2838229,48.7044885 L58.6752185,34.3086227 C58.6960287,34.2878104 58.7227738,34.2729489 58.7435841,34.2521442 C58.7643867,34.2313395 58.7792468,34.2045841 58.800057,34.1837794 L72.7813351,20.1980718 L81.790224,29.2108974 L53.3163448,57.684547 C53.2985173,57.7023763 53.2777071,57.7142702 53.2598795,57.7321071 C53.2420443,57.7499364 53.2301517,57.7707487 53.2123241,57.788578 L40.5626344,70.4363254 Z M75.0018512,77.3236316 L69.4765262,71.7977613 L73.3909036,67.8829959 C73.9853457,67.2884949 73.9853457,66.3253843 73.3909036,65.7309213 C72.7964615,65.1364583 71.8334463,65.1364203 71.2390422,65.7309213 L67.3246648,69.6456867 L62.0519539,64.3694854 L65.9692988,60.4517523 C66.5637409,59.8572513 66.5637409,58.8941407 65.9692988,58.2996777 C65.3748567,57.7052147 64.4118415,57.7051767 63.8174374,58.2996777 L59.9000926,62.2174108 L56.4939108,58.8108915 L68.8225448,46.4840795 L87.3272894,64.993702 L75.0018512,77.3236316 Z" id="Fill-1" fill="#21EAF4"></path>
            </g>
        </g>
    </g>
</svg>