<svg xmlns="http://www.w3.org/2000/svg" xmlns:xlink="http://www.w3.org/1999/xlink" viewBox="0 0 438.23 198.89"><defs><style>.a,.p{fill:none;}.b{isolation:isolate;}.c{opacity:0.09;}.c,.e,.g{mix-blend-mode:multiply;}.d{fill:#38b8d0;}.e{fill:#137399;opacity:0.29;}.f{fill:#58407f;}.g{fill:#035372;opacity:0.12;}.h{fill:#684b92;}.i,.l{fill:#8465c1;}.j{fill:#311858;}.k{fill:#9579d8;}.l{opacity:0.7;}.m{fill:#7659a5;}.n{clip-path:url(#a);}.o{fill:#45cfe1;}.p{stroke:#2a8aa0;stroke-miterlimit:10;opacity:0.3;}.q{fill:#2a8aa0;}.r{fill:#3ca4b5;}</style><clipPath id="a"><polygon class="a" points="153.04 18.1 259.22 44.85 330.2 117.52 228.81 105.12 153.04 18.1"/></clipPath></defs><title>house</title><g class="b"><path class="c" d="M100,156.4s-126.64,4.07-94.88,8,39,6,15.64,10.33S-8.45,196,120.85,198.09c327.81,5.19,360.12-16.61,281.37-17.62-27-.35-97.67-5-67.61-5.88s83.2-6.32,45-11.1-150.75-5.35-150.75-5.35Z"/><ellipse class="c" cx="334.91" cy="159.91" rx="17.44" ry="2.39"/><path class="d" d="M313,119.57a11.47,11.47,0,0,1,3.71-8.3,7.89,7.89,0,0,1-.53-2.85,8,8,0,0,1,1-3.9,8.48,8.48,0,0,1-.63-3.2c0-5.41,5.15-9.79,11.5-9.79a13.49,13.49,0,0,1,2.19.18,12.1,12.1,0,0,1,10.3-5.25c5.67,0,10.4,3.44,11.47,8,4.07,1.29,7,4.63,7,8.55a7.9,7.9,0,0,1-.62,3.07,7.33,7.33,0,0,1,3.79,6.22,6.61,6.61,0,0,1-.64,2.82,7.82,7.82,0,0,1,3.41,6.3,8,8,0,0,1-4,6.72,6.74,6.74,0,0,1,2.46,5.1c0,4-3.82,7.26-8.52,7.26h-.38a9.58,9.58,0,0,1-8.34,4.4,10.62,10.62,0,0,1-4.08-.8,8.13,8.13,0,0,1-5.63,2.15c-3.66,0-6.71-2.23-7.39-5.18a11.9,11.9,0,0,1-5.1,1.12c-5.8,0-10.51-4-10.51-9a8.23,8.23,0,0,1,2.71-6A11.33,11.33,0,0,1,313,119.57Z"/><path class="e" d="M313,119.57a11.41,11.41,0,0,1,3.44-8,15.93,15.93,0,0,0,3.09,3.17,9.47,9.47,0,0,0-1.81,7.59c1.16,5.88,7.7,9.84,14.59,8.85a13.74,13.74,0,0,0,5.79-2.21c1.5,3.39,5.65,5.52,10,4.89a9.24,9.24,0,0,0,6.18-3.52,13.06,13.06,0,0,0,5,.26,12.67,12.67,0,0,0,3-.79,6.4,6.4,0,0,1,1,3.49c0,4-3.82,7.26-8.52,7.26h-.38a9.58,9.58,0,0,1-8.34,4.4,10.62,10.62,0,0,1-4.08-.8,8.13,8.13,0,0,1-5.63,2.15c-3.66,0-6.71-2.23-7.39-5.18a11.9,11.9,0,0,1-5.1,1.12c-5.8,0-10.51-4-10.51-9a8.23,8.23,0,0,1,2.71-6A11.33,11.33,0,0,1,313,119.57Z"/><path class="f" d="M332.8,133a32,32,0,0,0,3.14,2.7l.31-5.65a16.24,16.24,0,0,0,2-1.08,10.91,10.91,0,0,0,2.52,3.33l.34,7.86a41.47,41.47,0,0,0,5.78-4.75.41.41,0,0,1,.64.47c-1.16,2.26-2,3.38-6.32,6.89l.71,16.73h-7.21l1.18-22a11.18,11.18,0,0,1-3.52-4.12C332.16,133.13,332.56,132.76,332.8,133Z"/><path class="g" d="M332.8,133a32,32,0,0,0,3.14,2.7l.31-5.65a13.37,13.37,0,0,0,1.4-1.07l.38,30.52h-3.36l1.18-22.44c-2.22-1.86-2.78-2.43-3.52-3.88C332.16,132.89,332.56,132.76,332.8,133Z"/><polygon class="h" points="90.24 111.95 90.24 168.14 225.21 170.25 225.21 104.35 152.97 21.33 90.24 111.95"/><polygon class="i" points="324.92 165.18 324.92 118.29 225.21 104.35 225.21 170.25 324.92 165.18"/><polygon class="f" points="176 165.61 225.21 165.82 225.21 170.25 90.24 168.14 90.24 164.49 176 165.61"/><polygon class="h" points="324.92 161.8 225.21 165.82 225.21 170.25 324.92 165.18 324.92 161.8"/><polygon class="j" points="313.86 125.26 302.17 124.42 302.17 166.38 313.86 165.82 313.86 125.26"/><path class="k" d="M293.77,123.71l8.4.71v19.15h-8.53a1.47,1.47,0,0,1-1.47-1.47V125.17A1.47,1.47,0,0,1,293.77,123.71Z"/><polygon class="h" points="313.86 144.13 302.17 143.57 302.17 166.38 313.86 165.82 313.86 144.13"/><polygon class="j" points="288.23 122.72 275.82 121.5 275.82 166.5 288.23 165.78 288.23 122.72"/><path class="k" d="M266.57,120.61l9.12.77.12,20.66-9.39-.11a1.47,1.47,0,0,1-1.46-1.47V122.08A1.47,1.47,0,0,1,266.57,120.61Z"/><polygon class="h" points="288.23 142.3 275.82 142.04 275.7 167.55 288.23 166.94 288.23 142.3"/><polygon class="j" points="258.66 119.72 245.4 118.76 245.4 166.38 258.66 165.74 258.66 119.72"/><path class="k" d="M232.2,117.9l13.19.86v21.73H232.11a1.47,1.47,0,0,1-1.47-1.47V119.37A1.47,1.47,0,0,1,232.2,117.9Z"/><polygon class="h" points="258.66 140.61 245.4 140.49 245.4 169.13 258.66 168.49 258.66 140.61"/><polygon class="l" points="258.66 140.61 258.66 144.38 247.29 166.24 245.4 166.24 245.4 162.23 256.9 140.68 258.66 140.61"/><polygon class="l" points="288.23 142.3 288.23 145.54 277.92 166.34 275.82 166.5 275.82 163.18 286.89 142.05 288.23 142.3"/><polygon class="l" points="313.86 144.13 313.86 146.7 304.95 162.54 302.21 162.54 302.21 160.11 312.14 143.85 313.86 144.13"/><polygon class="h" points="313.62 161.91 302.21 162.54 302.17 166.38 313.86 165.82 313.62 161.91"/><polygon class="h" points="275.82 163.18 288.37 162.65 288.23 166.94 275.7 167.55 275.82 163.18"/><polygon class="h" points="245.49 164.87 258.59 164.13 258.66 168.49 245.4 169.13 245.49 164.87"/><polygon class="m" points="109.86 143.84 94.7 143.88 94.7 126.95 109.86 126.39 109.86 143.84"/><polygon class="j" points="99.16 134.47 95.98 134.54 95.98 128.56 99.16 128.45 99.16 134.47"/><polygon class="j" points="99.16 142.04 95.98 142.06 95.98 136.08 99.16 136.02 99.16 142.04"/><polygon class="j" points="103.79 134.37 100.55 134.44 100.55 128.4 103.79 128.29 103.79 134.37"/><polygon class="j" points="103.79 142.02 100.55 142.04 100.55 136 103.79 135.94 103.79 142.02"/><polygon class="j" points="108.51 134.27 105.21 134.34 105.21 128.25 108.51 128.13 108.51 134.27"/><polygon class="j" points="108.51 141.99 105.21 142.01 105.21 135.91 108.51 135.85 108.51 141.99"/><polygon class="m" points="110.66 142.9 93.96 142.97 93.96 145.05 110.66 145.05 110.66 142.9"/><polygon class="m" points="210.53 141.96 191.31 142.2 191.31 122.06 210.53 121.49 210.53 141.96"/><polygon class="j" points="197.03 131 192.96 131.09 192.96 123.97 197.03 123.86 197.03 131"/><polygon class="j" points="197.03 139.97 192.96 140.03 192.96 132.92 197.03 132.83 197.03 139.97"/><polygon class="j" points="202.9 130.87 198.79 130.96 198.79 123.81 202.9 123.69 202.9 130.87"/><polygon class="j" points="202.9 139.88 198.79 139.94 198.79 132.8 202.9 132.71 202.9 139.88"/><polygon class="j" points="208.83 130.73 204.68 130.82 204.68 123.64 208.83 123.53 208.83 130.73"/><polygon class="j" points="208.83 139.8 204.68 139.86 204.68 132.68 208.83 132.59 208.83 139.8"/><polygon class="m" points="211.51 140.84 190.36 141.13 190.36 143.61 211.51 143.36 211.51 140.84"/><path class="j" d="M152.21,36h0A5.89,5.89,0,0,0,147,42V55.84l10.69-1-.27-13.57A5,5,0,0,0,152.21,36Z"/><polygon class="m" points="176 112.87 176 169.38 151.36 168.9 151.35 114.28 176 112.87"/><path class="f" d="M151.35,142.72,176,142.3v4.51l-24.64.56S151.21,142.86,151.35,142.72Z"/><polygon class="f" points="176 116.25 151.35 117.52 151.35 114.28 176 112.87 176 116.25"/><polygon class="f" points="153 146.85 172.14 167.19 174.33 164.46 157.05 146.63 153 146.85"/><polygon class="f" points="172.47 145.86 151.35 164.27 154.86 165.77 175.53 147.28 172.47 145.86"/><polygon class="f" points="172.76 113.15 172.76 166.78 176 166.64 176 112.87 172.76 113.15"/><polygon class="f" points="155.19 166.86 155.01 114.14 151.35 114.28 151.35 168.28 155.19 166.86"/><polygon class="f" points="179.98 165.66 151.35 165 151.35 169.06 225.05 170.18 179.98 165.66"/><polygon class="m" points="135.28 115.34 135.61 168.5 116.34 168.1 116.34 116.45 135.28 115.34"/><path class="f" d="M116.34,143.78l19.67-.44v3.78l-19.67.53S116.23,143.92,116.34,143.78Z"/><polygon class="f" points="136 118.31 116.34 119.5 116.34 116.45 136 115.12 136 118.31"/><polygon class="f" points="117.67 147.72 131.56 165.55 134.57 163.65 120.73 146.63 117.67 147.72"/><polygon class="f" points="132.55 146.41 116.34 163.59 119.2 165.66 136 147.25 132.55 146.41"/><polygon class="f" points="132.88 115.39 132.88 166.12 136 165.99 136 115.12 132.88 115.39"/><polygon class="f" points="119.03 167.43 119.26 116.32 116.34 116.45 116.34 167.3 119.03 167.43"/><polygon class="f" points="135.94 164.57 116.34 164.24 116.34 168.39 136.16 168.83 135.94 164.57"/><polygon class="m" points="225.14 105.69 90.38 114.7 90.38 118.36 225.28 109.21 225.14 105.69"/><polygon class="m" points="140.65 102.73 140.65 69.64 160.93 67.95 160.93 101.46 140.65 102.73"/><path class="f" d="M163.44,68l-25.56,2.61a.81.81,0,0,1-.89-.81V65.09a.81.81,0,0,1,.72-.8l25.56-2.81a.81.81,0,0,1,.9.8v4.93A.81.81,0,0,1,163.44,68Z"/><polygon class="f" points="160.93 65.61 160.93 69.55 143.19 102.59 140.65 102.73 140.65 99.77 159.1 65.89 160.93 65.61"/><g class="n"><polygon class="o" points="153.04 18.1 259.22 44.85 330.2 117.52 228.81 105.12 153.04 18.1"/><line class="p" x1="269.39" y1="51.12" x2="154.56" y2="22.78"/><line class="p" x1="275.73" y1="57.45" x2="161.39" y2="31.28"/><line class="p" x1="282.39" y1="64.28" x2="168.73" y2="39.12"/><line class="p" x1="285.56" y1="69.62" x2="173.73" y2="46.78"/><line class="p" x1="290.23" y1="75.78" x2="183.56" y2="55.28"/><line class="p" x1="190.56" y1="63.62" x2="296.73" y2="81.78"/><line class="p" x1="302.06" y1="88.12" x2="197.56" y2="71.78"/><line class="p" x1="308.23" y1="94.28" x2="204.06" y2="79.12"/><line class="p" x1="314.73" y1="101.12" x2="210.89" y2="86.28"/><line class="p" x1="320.89" y1="107.28" x2="216.23" y2="93.62"/><line class="p" x1="327.73" y1="113.95" x2="223.06" y2="101.62"/></g><polygon class="q" points="84.6 115.54 153.04 18.1 156.21 21.57 87.59 117.54 84.6 115.54"/><polygon class="q" points="228.81 105.12 228.81 109.22 151.69 21.13 153.04 18.1 228.81 105.12"/><polygon class="r" points="330.2 116.95 228.19 104.43 228.81 109.22 330.2 120.05 330.2 116.95"/><polygon class="i" points="220.57 41.4 220.57 20.07 207.68 16.48 207.68 39.5 220.57 41.4"/><polygon class="h" points="197.97 19.64 207.68 16.48 207.68 39.5 201.41 30.28 197.97 29.36 197.97 19.64"/><polygon class="q" points="208.71 0 207.75 17.46 194.8 21.41 208.71 0"/><polygon class="o" points="223.81 21.62 208.71 0 207.75 17.46 223.81 21.62"/><path class="j" d="M214.31,23.21h0a2.88,2.88,0,0,0-3.49,2.92v8.62l7,1.37V27.28A4.29,4.29,0,0,0,214.31,23.21Z"/><polygon class="f" points="141.63 68.97 159.72 96.39 159.86 102.8 140.51 73.34 140.65 69.64 141.63 68.97"/><path class="f" d="M126.31,110.86v-7.11a.93.93,0,0,1,.87-.93l49.51-3.37a.93.93,0,0,1,1,.93V108a.93.93,0,0,1-.88.93l-49.51,2.81A.93.93,0,0,1,126.31,110.86Z"/><polygon class="f" points="139.44 69.41 139.44 103.39 141.77 103.39 141.77 68.68 139.44 69.41"/><polygon class="f" points="161.31 67.36 161.75 102.22 159.13 102.51 158.98 67.66 161.31 67.36"/><polygon class="j" points="135.83 116.33 135.61 168.96 151.58 169.16 151.69 115.13 135.83 116.33"/><path class="m" d="M112.77,111.82v4.56a1.34,1.34,0,0,0,1.42,1.33l78-4.63a1.34,1.34,0,0,0,1.26-1.33v-5.47a1.34,1.34,0,0,0-1.43-1.33l-78,5.54A1.34,1.34,0,0,0,112.77,111.82Z"/><ellipse class="c" cx="52.52" cy="180.1" rx="24.89" ry="3.4"/><path class="d" d="M26.82,123.15a16.37,16.37,0,0,1,5.29-11.84,11.25,11.25,0,0,1-.76-4.06,11.39,11.39,0,0,1,1.46-5.56,12.1,12.1,0,0,1-.9-4.56c0-7.72,7.35-14,16.41-14a19.25,19.25,0,0,1,3.12.26c2.82-4.46,8.34-7.49,14.7-7.49,8.09,0,14.84,4.91,16.37,11.42,5.81,1.84,9.94,6.61,9.94,12.2a11.28,11.28,0,0,1-.89,4.38A10.47,10.47,0,0,1,97,112.78a9.43,9.43,0,0,1-.91,4,11.16,11.16,0,0,1,4.87,9,11.37,11.37,0,0,1-5.77,9.59,9.62,9.62,0,0,1,3.51,7.28c0,5.72-5.45,10.36-12.16,10.36H86a13.67,13.67,0,0,1-11.9,6.28,15.16,15.16,0,0,1-5.83-1.15,11.61,11.61,0,0,1-8,3.07c-5.23,0-9.58-3.18-10.55-7.39a17,17,0,0,1-7.27,1.6c-8.28,0-15-5.72-15-12.77a11.74,11.74,0,0,1,3.86-8.56A16.17,16.17,0,0,1,26.82,123.15Z"/><path class="e" d="M26.82,123.15a16.28,16.28,0,0,1,4.91-11.47,22.74,22.74,0,0,0,4.4,4.52A13.52,13.52,0,0,0,33.56,127c1.66,8.39,11,14,20.83,12.62a19.6,19.6,0,0,0,8.27-3.15c2.14,4.84,8.06,7.87,14.28,7a13.18,13.18,0,0,0,8.82-5,18.64,18.64,0,0,0,7.2.37,18.08,18.08,0,0,0,4.22-1.13,9.14,9.14,0,0,1,1.5,5c0,5.72-5.45,10.36-12.16,10.36H86a13.67,13.67,0,0,1-11.9,6.28,15.16,15.16,0,0,1-5.83-1.15,11.61,11.61,0,0,1-8,3.07c-5.23,0-9.58-3.18-10.55-7.39a17,17,0,0,1-7.27,1.6c-8.28,0-15-5.72-15-12.77a11.74,11.74,0,0,1,3.86-8.56A16.17,16.17,0,0,1,26.82,123.15Z"/><path class="f" d="M55.13,142.32a45.7,45.7,0,0,0,4.48,3.86l.44-8.06a23.17,23.17,0,0,0,2.79-1.54,15.57,15.57,0,0,0,3.6,4.75l.48,11.21a59.19,59.19,0,0,0,8.26-6.78.58.58,0,0,1,.92.68c-1.65,3.23-2.82,4.83-9,9.83l1,23.88H57.79l1.68-31.34c-3.17-2.65-4-3.81-5-5.88C54.22,142.5,54.78,142,55.13,142.32Z"/><path class="g" d="M55.13,142.32a45.7,45.7,0,0,0,4.48,3.86l.44-8.06a19.08,19.08,0,0,0,2-1.53l.54,43.56H57.79l1.68-32c-3.17-2.65-4-3.47-5-5.54C54.22,142.15,54.78,142,55.13,142.32Z"/></g></svg>