<svg xmlns="http://www.w3.org/2000/svg" xmlns:xlink="http://www.w3.org/1999/xlink" viewBox="0 0 1160.94 275"><defs><style>.a{fill:none;}.b{clip-path:url(#a);}.c{fill:#684994;}.d,.j{fill:#311858;}.e{fill:#fff;}.f{fill:#ccc;}.g{fill:#3bcfe3;}.h,.i{fill:#26a8c6;}.i{opacity:0.6;}.j{opacity:0.48;}.k{fill:#230b48;}.l{fill:#ebebe8;}.m{fill:#485c7e;}.n{opacity:0.4;}.o{fill:#7c9cb3;}.p{fill:#525252;}.q{fill:#3a3a3a;}</style><clipPath id="a"><rect class="a" width="1160.94" height="275"/></clipPath></defs><title>our_work_illustrations</title><g class="b"><path class="c" d="M404.38,356.71l86.53-113.2L385,162.55Zm16.75-46.89-10-100,50.29,37.27Z"/><rect class="d" x="477.89" y="237.57" width="4.65" height="1.38" transform="translate(-0.7 475.11) rotate(-52.61)"/><rect class="d" x="467.47" y="229.6" width="4.65" height="1.38" transform="translate(1.54 463.7) rotate(-52.61)"/><rect class="d" x="457.04" y="221.63" width="4.65" height="1.38" transform="translate(3.76 452.27) rotate(-52.61)"/><rect class="d" x="446.61" y="213.66" width="4.65" height="1.38" transform="translate(6 440.85) rotate(-52.61)"/><rect class="d" x="436.19" y="205.69" width="4.65" height="1.38" transform="matrix(0.61, -0.79, 0.79, 0.61, 8.25, 429.45)"/><rect class="d" x="425.76" y="197.72" width="4.65" height="1.38" transform="translate(10.48 418.04) rotate(-52.61)"/><rect class="d" x="415.33" y="189.75" width="4.65" height="1.38" transform="translate(12.71 406.61) rotate(-52.61)"/><rect class="d" x="404.91" y="181.78" width="4.65" height="1.38" transform="translate(14.96 395.21) rotate(-52.61)"/><rect class="d" x="394.48" y="173.81" width="4.65" height="1.38" transform="translate(17.2 383.8) rotate(-52.61)"/><path class="e" d="M802.57,264.68a3.27,3.27,0,0,0-3.27-3.27H468.11a3.27,3.27,0,0,0-3.27,3.27v6.25H802.57Z"/><path class="f" d="M464.84,270.93v.18s2.76,5.09,34.93,5.09H767c31.94,0,33.94-.84,35.56-5.09v-.18Z"/><path class="f" d="M608.43,264c0,1.07.61,1.94,1.36,1.94h47.83c.75,0,1.36-.87,1.36-1.94V262c0-1.07-.61-1.94-1.36-1.94H609.79c-.75,0-1.36.87-1.36,1.94Z"/><path class="c" d="M782.08,261.38H493.81V75.46A9.19,9.19,0,0,1,503,66.27H776c3.36,0,6.08,2.72,6.08,9.12Z"/><path class="g" d="M503.79,251.51V79.57a2.93,2.93,0,0,1,2.93-2.93H769.17a2.93,2.93,0,0,1,2.93,2.93V251.51Z"/><rect class="h" x="520.73" y="93.88" width="50.35" height="15.59" rx="1.43" ry="1.43"/><rect class="h" x="731.44" y="98.61" width="20.98" height="6.12" rx="0.49" ry="0.49"/><rect class="h" x="705.14" y="98.61" width="20.98" height="6.12" rx="0.49" ry="0.49"/><rect class="h" x="671.54" y="98.61" width="28.27" height="6.12" rx="0.49" ry="0.49"/><rect class="h" x="644.75" y="98.61" width="22.25" height="6.12" rx="0.49" ry="0.49"/><rect class="i" x="521.33" y="131.15" width="231.38" height="59.64" rx="3.17" ry="3.17"/><path class="h" d="M522.83,223h228.4a1.49,1.49,0,0,1,1.49,1.49v27.19a0,0,0,0,1,0,0H521.33a0,0,0,0,1,0,0V224.52A1.49,1.49,0,0,1,522.83,223Z"/><path class="h" d="M522.83,202.78H615a1.49,1.49,0,0,1,1.49,1.49v9.58a1.86,1.86,0,0,1-1.86,1.86H523.19a1.86,1.86,0,0,1-1.86-1.86v-9.58A1.49,1.49,0,0,1,522.83,202.78Z"/><rect class="c" x="177.89" y="102.36" width="140.27" height="207.4" rx="6.92" ry="6.92" transform="translate(41.97 454.09) rotate(-90)"/><circle class="j" cx="341.22" cy="204.93" r="6.29"/><rect class="j" x="143.63" y="205.39" width="18.46" height="2.16" rx="1.08" ry="1.08" transform="translate(-54.1 358.66) rotate(-89.82)"/><path class="g" d="M186.05,119.79H303.54a1.79,1.79,0,0,1,1.79,1.79V291.12a1.21,1.21,0,0,1-1.21,1.21H185.47a1.21,1.21,0,0,1-1.21-1.21V121.59a1.79,1.79,0,0,1,1.79-1.79Z" transform="translate(38.73 450.86) rotate(-90)"/><rect class="h" x="167.73" y="153.5" width="33.39" height="10.34" rx="0.95" ry="0.95"/><rect class="h" x="307.46" y="156.64" width="13.91" height="4.06" rx="0.33" ry="0.33"/><rect class="h" x="290.02" y="156.64" width="13.91" height="4.06" rx="0.33" ry="0.33"/><rect class="h" x="267.74" y="156.64" width="18.75" height="4.06" rx="0.33" ry="0.33"/><rect class="h" x="249.97" y="156.64" width="14.75" height="4.06" rx="0.33" ry="0.33"/><rect class="i" x="168.13" y="178.22" width="153.44" height="39.55" rx="2.1" ry="2.1"/><path class="h" d="M169.12,239.15H320.58a1,1,0,0,1,1,1v26.53a0,0,0,0,1,0,0H168.13a0,0,0,0,1,0,0V240.14A1,1,0,0,1,169.12,239.15Z"/><path class="h" d="M169.12,225.72h61.13a1,1,0,0,1,1,1v6.35a1.23,1.23,0,0,1-1.23,1.23H169.36a1.23,1.23,0,0,1-1.23-1.23v-6.35A1,1,0,0,1,169.12,225.72Z"/><path class="c" d="M1036.12,136V267.14a9,9,0,0,1-9,9l-63.44.06a9,9,0,0,1-9.21-8.82V136.12a9.16,9.16,0,0,1,9.12-9.06H1027A9.06,9.06,0,0,1,1036.12,136Z"/><path class="g" d="M1029,141.22V251.08a2.47,2.47,0,0,1-2.47,2.47H964a2.42,2.42,0,0,1-2.47-2.41V141.28a2.47,2.47,0,0,1,2.41-2.53h62.53A2.52,2.52,0,0,1,1029,141.22Z"/><circle class="j" cx="995.3" cy="264.49" r="8.05"/><rect class="j" x="988.65" y="132.57" width="13.29" height="1.56" rx="0.78" ry="0.78" transform="translate(0.43 -3.19) rotate(0.18)"/><rect class="h" x="964.73" y="142.44" width="13.35" height="4.13" rx="0.38" ry="0.38"/><rect class="i" x="964.89" y="152.32" width="61.34" height="38.37" rx="2.57" ry="2.57"/><path class="h" d="M968,213.47h55.13a3.11,3.11,0,0,1,3.11,3.11v37a0,0,0,0,1,0,0H964.89a0,0,0,0,1,0,0v-37A3.11,3.11,0,0,1,968,213.47Z"/><path class="h" d="M967.27,200h38.13a2.37,2.37,0,0,1,2.37,2.37v3.27a2.47,2.47,0,0,1-2.47,2.47H967.36a2.47,2.47,0,0,1-2.47-2.47v-3.27A2.37,2.37,0,0,1,967.27,200Z"/><path class="c" d="M893.77,449.15,926.87,439l-85-277.45a4.58,4.58,0,0,0-5.72-3L811.83,166a4.58,4.58,0,0,0-3,5.72Z"/><path class="d" d="M903.28,446.59,817.67,164.4l19.17-5.87a4.07,4.07,0,0,1,5.09,2.7l84.32,278Z"/><path class="j" d="M813.69,180.14a.64.64,0,0,1,.42-.8l4.14-1.27a.64.64,0,0,1,.37,1.22l-4.14,1.27A.64.64,0,0,1,813.69,180.14Z"/><path class="j" d="M819.76,200a.64.64,0,0,1,.42-.8l4.14-1.27a.64.64,0,0,1,.37,1.22l-4.14,1.27A.64.64,0,0,1,819.76,200Z"/><path class="j" d="M825.82,219.86a.64.64,0,0,1,.42-.8l4.14-1.27a.64.64,0,0,1,.37,1.22l-4.14,1.27A.64.64,0,0,1,825.82,219.86Z"/><path class="j" d="M831.89,239.73a.64.64,0,0,1,.42-.8l4.14-1.27a.64.64,0,0,1,.37,1.22l-4.14,1.27A.64.64,0,0,1,831.89,239.73Z"/><path class="j" d="M838,259.59a.64.64,0,0,1,.42-.8l4.14-1.27a.64.64,0,0,1,.37,1.22L838.75,260A.64.64,0,0,1,838,259.59Z"/><circle class="k" cx="830.58" cy="172.99" r="4.03" transform="translate(-14.31 250.17) rotate(-16.98)"/><polygon class="g" points="896.96 236.27 866.42 293.81 880.42 301.15 910.96 243.62 896.96 236.27"/><polygon class="h" points="906.29 241.17 875.75 298.71 880.42 301.15 910.96 243.62 906.29 241.17"/><polygon class="l" points="942.25 171.92 939.62 188.25 934.98 185.82 940.69 171.11 942.25 171.92"/><polygon class="e" points="937.59 169.47 940.69 171.11 934.98 185.82 925.64 180.92 937.59 169.47"/><polygon class="m" points="937.59 169.47 943.55 163.75 940.69 171.11 937.59 169.47"/><polygon class="m" points="943.55 163.75 942.25 171.92 940.69 171.11 943.55 163.75"/><path class="g" d="M890.7,248.22l16.12-30.78,18.82-36.53,9.33,4.9-18.82,36.53L911,232.09l-11.61,22.18a22.84,22.84,0,0,1-2.4-1.09A21.71,21.71,0,0,1,890.7,248.22Z"/><path class="h" d="M935,185.82l4.67,2.45-34.94,67.3a21,21,0,0,1-5.27-1.3Z"/><polygon class="c" points="121.24 283.98 68.05 246.38 58.98 259.33 112.18 296.93 121.24 283.98"/><rect class="e" x="49.18" y="240.52" width="15.81" height="15.68" transform="matrix(0.57, -0.82, 0.82, 0.57, -179.21, 152.93)"/><polygon class="d" points="115.2 292.62 62.01 255.01 58.98 259.33 112.18 296.93 115.2 292.62"/><g class="n"><rect class="o" x="51.43" y="244.84" width="5.27" height="15.68" transform="translate(-184.04 152.29) rotate(-55.06)"/></g><path class="p" d="M52,235.15l3.21,2.25-9.06,12.95-3.21-2.25h0c-1.77-1.24-1.86-4.18-.19-6.56l3-4.31C47.41,234.84,50.2,233.91,52,235.15Z"/><path class="q" d="M45.94,243.78h0L49.15,246l-3,4.32-3.21-2.25h0c-1.77-1.24-1.86-4.18-.19-6.56l3-4.31h0C44.08,239.61,44.16,242.54,45.94,243.78Z"/><polygon class="c" points="107.09 258.83 116.33 323.31 131.97 321 122.72 256.52 107.09 258.83"/><polygon class="d" points="117.51 257.29 126.75 321.77 131.97 321 122.72 256.52 117.51 257.29"/><polygon class="l" points="105.74 180.16 113.25 194.9 108.06 195.67 104.01 180.41 105.74 180.16"/><polygon class="e" points="100.54 180.93 104.01 180.41 108.06 195.67 97.64 197.21 100.54 180.93"/><polygon class="m" points="100.54 180.93 101.99 172.79 104.01 180.41 100.54 180.93"/><polygon class="m" points="101.99 172.79 105.74 180.16 104.01 180.41 101.99 172.79"/><path class="c" d="M109.08,272.17,104,237.81l-6.32-40.6,10.42-1.54,6.32,40.6L116,247.15l3.69,24.76a22.84,22.84,0,0,1-2.58.54A21.71,21.71,0,0,1,109.08,272.17Z"/><path class="d" d="M108.06,195.67l5.21-.77,11.44,75a21,21,0,0,1-5,2.06Z"/><polygon class="g" points="387.99 268.42 415.69 327.38 429.96 320.59 402.26 261.63 387.99 268.42"/><polygon class="h" points="397.51 263.89 425.21 322.85 429.96 320.59 402.26 261.63 397.51 263.89"/><polygon class="l" points="363.69 193.58 375.18 205.48 370.44 207.73 362.11 194.33 363.69 193.58"/><polygon class="e" points="358.94 195.84 362.11 194.33 370.44 207.73 360.93 212.26 358.94 195.84"/><polygon class="m" points="358.94 195.84 357.94 187.63 362.11 194.33 358.94 195.84"/><polygon class="m" points="357.94 187.63 363.69 193.58 362.11 194.33 357.94 187.63"/><path class="g" d="M393.8,280.59l-14.95-31.36-17.92-37,9.52-4.53,17.92,37,4.73,9.93,10.77,22.6a22.84,22.84,0,0,1-2.31,1.27A21.71,21.71,0,0,1,393.8,280.59Z"/><path class="h" d="M370.44,207.73l4.76-2.26,32.87,68.34a21,21,0,0,1-4.2,3.44Z"/><path class="c" d="M1095,210.71c-4.93-6-3.8-16.09,3-20,7.2-4.14,16.67-1.49,15.09-13.22,7.44,5.41,6.81,15.58,3,22.64-1.95,3.64-4.73,8-8.62,10s-8.28,1.86-11.65,4.92Z"/><polygon class="h" points="1093.86 209.61 1100.37 212.58 1079.36 258.56 1067.03 252.37 1093.86 209.61"/><path class="g" d="M1067,252.37l-46.92,89.16s-7.77,19.47.86,11.62l5.93-6.83,52.45-87.75Z"/><path class="c" d="M445.58,170.82c-6.62-4.09-8.84-14-3.71-19.87,5.45-6.27,15.28-6.85,10-17.42,8.8,2.68,11.53,12.51,10.26,20.41-.65,4.08-1.87,9.07-4.9,12.23s-7.22,4.46-9.41,8.46Z"/><polygon class="h" points="444.11 170.17 451.22 170.85 446.37 221.17 432.69 219.34 444.11 170.17"/><path class="g" d="M432.69,219.34l-15.25,99.59s-1,20.94,4.61,10.7l3.37-8.4,20.94-100.07Z"/></g></svg>